<svg viewBox="0 0 816.6000366210938 400" xmlns="http://www.w3.org/2000/svg"><g><g><g><g><g><line x1="51.5625" y1="343.6363636363638" x2="46.5625" y2="343.6363636363638" style="visibility: inherit;" fill="rgb(0, 0, 0)" stroke="rgb(204, 204, 204)" stroke-width="1px"></line><line x1="51.5625" y1="309.2727272727274" x2="46.5625" y2="309.2727272727274" style="visibility: inherit;" fill="rgb(0, 0, 0)" stroke="rgb(204, 204, 204)" stroke-width="1px"></line><line x1="51.5625" y1="274.909090909091" x2="46.5625" y2="274.909090909091" style="visibility: inherit;" fill="rgb(0, 0, 0)" stroke="rgb(204, 204, 204)" stroke-width="1px"></line><line x1="51.5625" y1="240.5454545454546" x2="46.5625" y2="240.5454545454546" style="visibility: inherit;" fill="rgb(0, 0, 0)" stroke="rgb(204, 204, 204)" stroke-width="1px"></line><line x1="51.5625" y1="206.18181818181822" x2="46.5625" y2="206.18181818181822" style="visibility: inherit;" fill="rgb(0, 0, 0)" stroke="rgb(204, 204, 204)" stroke-width="1px"></line><line x1="51.5625" y1="171.81818181818178" x2="46.5625" y2="171.81818181818178" style="visibility: inherit;" fill="rgb(0, 0, 0)" stroke="rgb(204, 204, 204)" stroke-width="1px"></line><line x1="51.5625" y1="137.45454545454558" x2="46.5625" y2="137.45454545454558" style="visibility: inherit;" fill="rgb(0, 0, 0)" stroke="rgb(204, 204, 204)" stroke-width="1px"></line><line x1="51.5625" y1="103.09090909090921" x2="46.5625" y2="103.09090909090921" style="visibility: inherit;" fill="rgb(0, 0, 0)" stroke="rgb(204, 204, 204)" stroke-width="1px"></line><line x1="51.5625" y1="68.72727272727279" x2="46.5625" y2="68.72727272727279" style="visibility: inherit;" fill="rgb(0, 0, 0)" stroke="rgb(204, 204, 204)" stroke-width="1px"></line><line x1="51.5625" y1="34.36363636363642" x2="46.5625" y2="34.36363636363642" style="visibility: inherit;" fill="rgb(0, 0, 0)" stroke="rgb(204, 204, 204)" stroke-width="1px"></line><line x1="51.5625" y1="0" x2="46.5625" y2="0" style="visibility: inherit;" fill="rgb(0, 0, 0)" stroke="rgb(204, 204, 204)" stroke-width="1px"></line></g><g transform="translate(41.5625, 0)"><text x="0" y="343.6363636363638" dx="0em" dy="0.3em" style="text-anchor: end; visibility: inherit; font-family: Roboto, sans-serif; font-size: 12px; font-weight: 200;" fill="rgb(50, 49, 63)" stroke="none" stroke-width="1px">0.29</text><text x="0" y="309.2727272727274" dx="0em" dy="0.3em" style="text-anchor: end; visibility: inherit; font-family: Roboto, sans-serif; font-size: 12px; font-weight: 200;" fill="rgb(50, 49, 63)" stroke="none" stroke-width="1px">0.3</text><text x="0" y="274.909090909091" dx="0em" dy="0.3em" style="text-anchor: end; visibility: inherit; font-family: Roboto, sans-serif; font-size: 12px; font-weight: 200;" fill="rgb(50, 49, 63)" stroke="none" stroke-width="1px">0.31</text><text x="0" y="240.5454545454546" dx="0em" dy="0.3em" style="text-anchor: end; visibility: inherit; font-family: Roboto, sans-serif; font-size: 12px; font-weight: 200;" fill="rgb(50, 49, 63)" stroke="none" stroke-width="1px">0.32</text><text x="0" y="206.18181818181822" dx="0em" dy="0.3em" style="text-anchor: end; visibility: inherit; font-family: Roboto, sans-serif; font-size: 12px; font-weight: 200;" fill="rgb(50, 49, 63)" stroke="none" stroke-width="1px">0.33</text><text x="0" y="171.81818181818178" dx="0em" dy="0.3em" style="text-anchor: end; visibility: inherit; font-family: Roboto, sans-serif; font-size: 12px; font-weight: 200;" fill="rgb(50, 49, 63)" stroke="none" stroke-width="1px">0.34</text><text x="0" y="137.45454545454558" dx="0em" dy="0.3em" style="text-anchor: end; visibility: inherit; font-family: Roboto, sans-serif; font-size: 12px; font-weight: 200;" fill="rgb(50, 49, 63)" stroke="none" stroke-width="1px">0.35</text><text x="0" y="103.09090909090921" dx="0em" dy="0.3em" style="text-anchor: end; visibility: inherit; font-family: Roboto, sans-serif; font-size: 12px; font-weight: 200;" fill="rgb(50, 49, 63)" stroke="none" stroke-width="1px">0.36</text><text x="0" y="68.72727272727279" dx="0em" dy="0.3em" style="text-anchor: end; visibility: inherit; font-family: Roboto, sans-serif; font-size: 12px; font-weight: 200;" fill="rgb(50, 49, 63)" stroke="none" stroke-width="1px">0.37</text><text x="0" y="34.36363636363642" dx="0em" dy="0.3em" style="text-anchor: end; visibility: inherit; font-family: Roboto, sans-serif; font-size: 12px; font-weight: 200;" fill="rgb(50, 49, 63)" stroke="none" stroke-width="1px">0.38</text><text x="0" y="0" dx="0em" dy="0.3em" style="text-anchor: end; visibility: hidden; font-family: Roboto, sans-serif; font-size: 12px; font-weight: 200;" fill="rgb(50, 49, 63)" stroke="none" stroke-width="1px">0.39</text></g><line x1="51.5625" y1="0" x2="51.5625" y2="378" fill="rgb(0, 0, 0)" stroke="rgb(204, 204, 204)" stroke-width="1px"></line></g></g><g transform="translate(51, 0)" clip-path="url(#clip_0)"><clipPath id="clip_0"><rect width="765" height="378"></rect></clipPath><g><g><g><line x1="0" y1="0" x2="0" y2="378" fill="rgb(0, 0, 0)" stroke="rgb(60, 60, 60)" stroke-width="1px" opacity="0.25"></line><line x1="63.753125" y1="0" x2="63.753125" y2="378" fill="rgb(0, 0, 0)" stroke="rgb(60, 60, 60)" stroke-width="1px" opacity="0.25"></line><line x1="127.50625" y1="0" x2="127.50625" y2="378" fill="rgb(0, 0, 0)" stroke="rgb(60, 60, 60)" stroke-width="1px" opacity="0.25"></line><line x1="191.259375" y1="0" x2="191.259375" y2="378" fill="rgb(0, 0, 0)" stroke="rgb(60, 60, 60)" stroke-width="1px" opacity="0.25"></line><line x1="255.0125" y1="0" x2="255.0125" y2="378" fill="rgb(0, 0, 0)" stroke="rgb(60, 60, 60)" stroke-width="1px" opacity="0.25"></line><line x1="318.765625" y1="0" x2="318.765625" y2="378" fill="rgb(0, 0, 0)" stroke="rgb(60, 60, 60)" stroke-width="1px" opacity="0.25"></line><line x1="382.51875" y1="0" x2="382.51875" y2="378" fill="rgb(0, 0, 0)" stroke="rgb(60, 60, 60)" stroke-width="1px" opacity="0.25"></line><line x1="446.271875" y1="0" x2="446.271875" y2="378" fill="rgb(0, 0, 0)" stroke="rgb(60, 60, 60)" stroke-width="1px" opacity="0.25"></line><line x1="510.025" y1="0" x2="510.025" y2="378" fill="rgb(0, 0, 0)" stroke="rgb(60, 60, 60)" stroke-width="1px" opacity="0.25"></line><line x1="573.778125" y1="0" x2="573.778125" y2="378" fill="rgb(0, 0, 0)" stroke="rgb(60, 60, 60)" stroke-width="1px" opacity="0.25"></line><line x1="637.53125" y1="0" x2="637.53125" y2="378" fill="rgb(0, 0, 0)" stroke="rgb(60, 60, 60)" stroke-width="1px" opacity="0.25"></line><line x1="701.284375" y1="0" x2="701.284375" y2="378" fill="rgb(0, 0, 0)" stroke="rgb(60, 60, 60)" stroke-width="1px" opacity="0.25"></line><line x1="765.0375" y1="0" x2="765.0375" y2="378" fill="rgb(0, 0, 0)" stroke="rgb(60, 60, 60)" stroke-width="1px" opacity="0.25"></line></g><g><line x1="0" y1="343.6363636363638" x2="765.0375" y2="343.6363636363638" fill="rgb(0, 0, 0)" stroke="rgb(60, 60, 60)" stroke-width="1px" opacity="0.25"></line><line x1="0" y1="309.2727272727274" x2="765.0375" y2="309.2727272727274" fill="rgb(0, 0, 0)" stroke="rgb(60, 60, 60)" stroke-width="1px" opacity="0.25"></line><line x1="0" y1="274.909090909091" x2="765.0375" y2="274.909090909091" fill="rgb(0, 0, 0)" stroke="rgb(60, 60, 60)" stroke-width="1px" opacity="0.25"></line><line x1="0" y1="240.5454545454546" x2="765.0375" y2="240.5454545454546" fill="rgb(0, 0, 0)" stroke="rgb(60, 60, 60)" stroke-width="1px" opacity="0.25"></line><line x1="0" y1="206.18181818181822" x2="765.0375" y2="206.18181818181822" fill="rgb(0, 0, 0)" stroke="rgb(60, 60, 60)" stroke-width="1px" opacity="0.25"></line><line x1="0" y1="171.81818181818178" x2="765.0375" y2="171.81818181818178" fill="rgb(0, 0, 0)" stroke="rgb(60, 60, 60)" stroke-width="1px" opacity="0.25"></line><line x1="0" y1="137.45454545454558" x2="765.0375" y2="137.45454545454558" fill="rgb(0, 0, 0)" stroke="rgb(60, 60, 60)" stroke-width="1px" opacity="0.25"></line><line x1="0" y1="103.09090909090921" x2="765.0375" y2="103.09090909090921" fill="rgb(0, 0, 0)" stroke="rgb(60, 60, 60)" stroke-width="1px" opacity="0.25"></line><line x1="0" y1="68.72727272727279" x2="765.0375" y2="68.72727272727279" fill="rgb(0, 0, 0)" stroke="rgb(60, 60, 60)" stroke-width="1px" opacity="0.25"></line><line x1="0" y1="34.36363636363642" x2="765.0375" y2="34.36363636363642" fill="rgb(0, 0, 0)" stroke="rgb(60, 60, 60)" stroke-width="1px" opacity="0.25"></line><line x1="0" y1="0" x2="765.0375" y2="0" fill="rgb(0, 0, 0)" stroke="rgb(60, 60, 60)" stroke-width="1px" opacity="0.25"></line></g></g></g><g><g><line x1="0" y1="1340.1818181818182" x2="765.0375" y2="1340.1818181818182" fill="rgb(0, 0, 0)" stroke="rgb(153, 153, 153)" stroke-width="1.5px"></line></g></g><g><g><line x1="63.753125" y1="0" x2="63.753125" y2="378" fill="rgb(0, 0, 0)" stroke="rgb(153, 153, 153)" stroke-width="1.5px"></line></g></g><g><g><g><g><g><path stroke="rgb(255, 112, 67)" stroke-width="2px" d="M63.753125,-303.4694337194616L76.50375000000001,54.201090184125064L89.25437500000001,164.85766157236975L102.005,225.36357138373643L114.755625,266.7755520994014L127.50625,287.55650776082825L140.256875,288.63254661993557L153.00750000000002,284.0600727471439L165.758125,284.63542121106934L178.50875000000002,266.14510618556636L191.259375,278.6396306861531L204.01,283.248051036488L216.760625,279.6537105170164L229.51125,279.8518769957803L242.261875,281.5316323367033L255.0125,279.67060843381023L267.763125,280.99458581751054L280.51375,282.51498868248683L293.26437500000003,280.03079009056097L306.01500000000004,280.30934968861675L318.765625,281.5806875012139L331.51625,280.9387714862824L344.266875,279.95777060768825L357.01750000000004,281.2317711223256L369.768125,281.418672323227L382.51875,280.27012603933167L395.269375,279.9570537263698L408.02,280.32747654481375L420.77062500000005,280.4293761036614L433.52125,280.6673807014119L446.271875,280.8211005384273L459.0225,280.9326267892665L471.77312500000005,280.9810674840755L484.52375,280.9657057415356L497.274375,281.07293070446366L510.025,280.9977605776354L522.775625,280.9440968903629L535.52625,280.9628382162615L548.276875,280.96560332991874L561.0275,280.9895676482808L573.778125,280.9895676482808L586.5287500000001,280.9949954639782L599.279375,280.9971461079339L612.0300000000001,280.99642922661525L624.780625,280.9940737594258L637.53125,281.0021642771635L650.281875,281.00964032519954L663.0325,281.01107408783656L675.783125,281.0133271434091L688.53375,281.0117909691552" style="fill: none;" fill="none"></path></g><g><path stroke="rgb(0, 153, 136)" stroke-width="2px" d="M76.50375000000001,-2.079623547467311L89.25437500000001,20.110003904862882L102.005,115.09862201864075L114.755625,151.20895814895638L127.50625,157.83222465081656L140.256875,230.90670256181204L153.00750000000002,154.986205816269L165.758125,207.2112146941099L178.50875000000002,166.69697421247315L191.259375,169.6077171889219L204.01,213.98881550268698L216.760625,226.70516356554907L229.51125,219.18251824378976L242.261875,223.1928547512402L255.0125,235.62101652405485L267.763125,230.18879712711689L280.51375,239.2440322962675L293.26437500000003,236.00956619869586L306.01500000000004,238.46119789643728L318.765625,237.8003357323734L331.51625,236.24603462219247L344.266875,235.00972158258622L357.01750000000004,238.2540191953833L369.768125,236.82455784624284L382.51875,237.37133346904415L395.269375,237.07915312593644L408.02,236.5746735009281L420.77062500000005,236.79137648235675L433.52125,236.97889215295976L446.271875,236.8029489950701L459.0225,236.74621295928964L471.77312500000005,236.56217928366232L484.52375,236.53227509151813L497.274375,236.69306133010178L510.025,236.74877324971294L522.775625,236.80591893196114L535.52625,236.80714787136432L548.276875,236.81411186131572L561.0275,236.74918289618063L573.778125,236.7757075049661L586.5287500000001,236.78154496713125L599.279375,236.78984030810278L612.0300000000001,236.80100317434835L624.780625,236.82896154577088L637.53125,236.8372568867424L650.281875,236.84217264435514L663.0325,236.84053405848425L675.783125,236.8410461165689L688.53375,236.84217264435514" style="fill: none;" fill="none"></path></g><g><path stroke="rgb(51, 187, 238)" stroke-width="2px" d="M76.50375000000001,-55.005435119975644L89.25437500000001,92.05641785534951L102.005,107.16448682004761L114.755625,204.534994320436L127.50625,129.8386236320843L140.256875,183.16087057373747L153.00750000000002,194.01240550387996L165.758125,232.76588305560034L178.50875000000002,205.81237441843217L191.259375,224.896984056993L204.01,193.3415070013567L216.760625,192.58878161690458L229.51125,194.3703341050582L242.261875,183.51613647287547L255.0125,184.677996266972L267.763125,191.46645270694393L280.51375,186.98092629692778L293.26437500000003,180.04796706546443L306.01500000000004,181.23420082439083L318.765625,174.56822867826992L331.51625,176.75932522253567L344.266875,176.11515615203172L357.01750000000004,175.7808846343648L369.768125,174.95657352967703L382.51875,175.22059067812842L395.269375,175.83557243780666L408.02,176.09375212409287L420.77062500000005,175.85134382681423L433.52125,175.71308814395564L446.271875,175.45531810413715L459.0225,174.90997624397286L471.77312500000005,174.83511335199535L484.52375,174.49817913228821L497.274375,174.40293632854122L510.025,174.2879280827263L522.775625,174.15786532922232L535.52625,174.13256965984004L548.276875,174.11382833394143L561.0275,174.07071304321298L573.778125,174.07378539172095L586.5287500000001,174.09221948276874L599.279375,174.0689720457251L612.0300000000001,174.06559246236634L624.780625,174.06968892704364L637.53125,174.0733757452532L650.281875,174.07532156597492L663.0325,174.07767703316435L675.783125,174.0771649750797L688.53375,174.07829150286597" style="fill: none;" fill="none"></path></g><g><path stroke="rgb(0, 119, 187)" stroke-width="2px" d="M102.005,-4.922057975422222L114.755625,61.32607119733644L127.50625,104.10145776922059L140.256875,171.65564229271635L153.00750000000002,169.11952101100582L165.758125,173.84346166524026L178.50875000000002,172.92155228961605L191.259375,196.08101775429472L204.01,185.2395191626116L216.760625,200.5148262977601L229.51125,199.72625684738168L242.261875,192.89601646770137L255.0125,194.32957428151917L267.763125,192.56113048033285L280.51375,196.03032400391325L293.26437500000003,196.95438402349305L306.01500000000004,193.7769611965527L318.765625,197.2574199979956L331.51625,197.52502155303964L344.266875,194.67255078662532L357.01750000000004,196.29997379129594L369.768125,196.15895299478015L382.51875,196.57863580096858L395.269375,197.07553696632394L408.02,196.4248135523363L420.77062500000005,196.2856361649254L433.52125,196.27222024310726L446.271875,196.3249622258274L459.0225,196.37114986506384L471.77312500000005,196.41354827447375L484.52375,196.35660741545945L497.274375,196.33694438500842L510.025,196.34360114010906L522.775625,196.37033057212838L535.52625,196.37125227668076L548.276875,196.37340292063635L561.0275,196.38958395611164L573.778125,196.3908128955148L586.5287500000001,196.39910823648637L599.279375,196.39880100163555L612.0300000000001,196.39163218845027L624.780625,196.3929635394704L637.53125,196.4000299410387L650.281875,196.40381917086523L663.0325,196.40689151937318L675.783125,196.4081204587764L688.53375,196.40955422141343" style="fill: none;" fill="none"></path></g></g></g></g></g></g><g transform="translate(51, 378)" clip-path="url(#clip_1)"><clipPath id="clip_1"><rect width="765" height="22"></rect></clipPath><g><g><line x1="0" y1="0" x2="0" y2="5" style="visibility: inherit;" fill="rgb(0, 0, 0)" stroke="rgb(204, 204, 204)" stroke-width="1px"></line><line x1="63.753125" y1="0" x2="63.753125" y2="5" style="visibility: inherit;" fill="rgb(0, 0, 0)" stroke="rgb(204, 204, 204)" stroke-width="1px"></line><line x1="127.50625" y1="0" x2="127.50625" y2="5" style="visibility: inherit;" fill="rgb(0, 0, 0)" stroke="rgb(204, 204, 204)" stroke-width="1px"></line><line x1="191.259375" y1="0" x2="191.259375" y2="5" style="visibility: inherit;" fill="rgb(0, 0, 0)" stroke="rgb(204, 204, 204)" stroke-width="1px"></line><line x1="255.0125" y1="0" x2="255.0125" y2="5" style="visibility: inherit;" fill="rgb(0, 0, 0)" stroke="rgb(204, 204, 204)" stroke-width="1px"></line><line x1="318.765625" y1="0" x2="318.765625" y2="5" style="visibility: inherit;" fill="rgb(0, 0, 0)" stroke="rgb(204, 204, 204)" stroke-width="1px"></line><line x1="382.51875" y1="0" x2="382.51875" y2="5" style="visibility: inherit;" fill="rgb(0, 0, 0)" stroke="rgb(204, 204, 204)" stroke-width="1px"></line><line x1="446.271875" y1="0" x2="446.271875" y2="5" style="visibility: inherit;" fill="rgb(0, 0, 0)" stroke="rgb(204, 204, 204)" stroke-width="1px"></line><line x1="510.025" y1="0" x2="510.025" y2="5" style="visibility: inherit;" fill="rgb(0, 0, 0)" stroke="rgb(204, 204, 204)" stroke-width="1px"></line><line x1="573.778125" y1="0" x2="573.778125" y2="5" style="visibility: inherit;" fill="rgb(0, 0, 0)" stroke="rgb(204, 204, 204)" stroke-width="1px"></line><line x1="637.53125" y1="0" x2="637.53125" y2="5" style="visibility: inherit;" fill="rgb(0, 0, 0)" stroke="rgb(204, 204, 204)" stroke-width="1px"></line><line x1="701.284375" y1="0" x2="701.284375" y2="5" style="visibility: inherit;" fill="rgb(0, 0, 0)" stroke="rgb(204, 204, 204)" stroke-width="1px"></line><line x1="765.0375" y1="0" x2="765.0375" y2="5" style="visibility: inherit;" fill="rgb(0, 0, 0)" stroke="rgb(204, 204, 204)" stroke-width="1px"></line></g><g transform="translate(0, 8)"><text x="0" y="0" dx="0em" dy="0.95em" style="text-anchor: middle; visibility: hidden; font-family: Roboto, sans-serif; font-size: 12px; font-weight: 200;" fill="rgb(50, 49, 63)" stroke="none" stroke-width="1px">-5</text><text x="63.753125" y="0" dx="0em" dy="0.95em" style="text-anchor: middle; visibility: inherit; font-family: Roboto, sans-serif; font-size: 12px; font-weight: 200;" fill="rgb(50, 49, 63)" stroke="none" stroke-width="1px">0</text><text x="127.50625" y="0" dx="0em" dy="0.95em" style="text-anchor: middle; visibility: inherit; font-family: Roboto, sans-serif; font-size: 12px; font-weight: 200;" fill="rgb(50, 49, 63)" stroke="none" stroke-width="1px">5</text><text x="191.259375" y="0" dx="0em" dy="0.95em" style="text-anchor: middle; visibility: inherit; font-family: Roboto, sans-serif; font-size: 12px; font-weight: 200;" fill="rgb(50, 49, 63)" stroke="none" stroke-width="1px">10</text><text x="255.0125" y="0" dx="0em" dy="0.95em" style="text-anchor: middle; visibility: inherit; font-family: Roboto, sans-serif; font-size: 12px; font-weight: 200;" fill="rgb(50, 49, 63)" stroke="none" stroke-width="1px">15</text><text x="318.765625" y="0" dx="0em" dy="0.95em" style="text-anchor: middle; visibility: inherit; font-family: Roboto, sans-serif; font-size: 12px; font-weight: 200;" fill="rgb(50, 49, 63)" stroke="none" stroke-width="1px">20</text><text x="382.51875" y="0" dx="0em" dy="0.95em" style="text-anchor: middle; visibility: inherit; font-family: Roboto, sans-serif; font-size: 12px; font-weight: 200;" fill="rgb(50, 49, 63)" stroke="none" stroke-width="1px">25</text><text x="446.271875" y="0" dx="0em" dy="0.95em" style="text-anchor: middle; visibility: inherit; font-family: Roboto, sans-serif; font-size: 12px; font-weight: 200;" fill="rgb(50, 49, 63)" stroke="none" stroke-width="1px">30</text><text x="510.025" y="0" dx="0em" dy="0.95em" style="text-anchor: middle; visibility: inherit; font-family: Roboto, sans-serif; font-size: 12px; font-weight: 200;" fill="rgb(50, 49, 63)" stroke="none" stroke-width="1px">35</text><text x="573.778125" y="0" dx="0em" dy="0.95em" style="text-anchor: middle; visibility: inherit; font-family: Roboto, sans-serif; font-size: 12px; font-weight: 200;" fill="rgb(50, 49, 63)" stroke="none" stroke-width="1px">40</text><text x="637.53125" y="0" dx="0em" dy="0.95em" style="text-anchor: middle; visibility: inherit; font-family: Roboto, sans-serif; font-size: 12px; font-weight: 200;" fill="rgb(50, 49, 63)" stroke="none" stroke-width="1px">45</text><text x="701.284375" y="0" dx="0em" dy="0.95em" style="text-anchor: middle; visibility: inherit; font-family: Roboto, sans-serif; font-size: 12px; font-weight: 200;" fill="rgb(50, 49, 63)" stroke="none" stroke-width="1px">50</text><text x="765.0375" y="0" dx="0em" dy="0.95em" style="text-anchor: middle; visibility: hidden; font-family: Roboto, sans-serif; font-size: 12px; font-weight: 200;" fill="rgb(50, 49, 63)" stroke="none" stroke-width="1px">55</text></g><line x1="0" y1="0" x2="765.0375" y2="0" fill="rgb(0, 0, 0)" stroke="rgb(204, 204, 204)" stroke-width="1px"></line></g></g></g></g></svg>