<svg viewBox="0 0 826.7999877929688 400" xmlns="http://www.w3.org/2000/svg"><g><g><g><g><g><line x1="41.171875" y1="323.5697529162488" x2="36.171875" y2="323.5697529162488" style="visibility: inherit;" fill="rgb(0, 0, 0)" stroke="rgb(204, 204, 204)" stroke-width="1px"></line><line x1="41.171875" y1="205.03422749854707" x2="36.171875" y2="205.03422749854707" style="visibility: inherit;" fill="rgb(0, 0, 0)" stroke="rgb(204, 204, 204)" stroke-width="1px"></line><line x1="41.171875" y1="120.93193378841039" x2="36.171875" y2="120.93193378841039" style="visibility: inherit;" fill="rgb(0, 0, 0)" stroke="rgb(204, 204, 204)" stroke-width="1px"></line><line x1="41.171875" y1="55.69712672445555" x2="36.171875" y2="55.69712672445555" style="visibility: inherit;" fill="rgb(0, 0, 0)" stroke="rgb(204, 204, 204)" stroke-width="1px"></line><line x1="41.171875" y1="2.396408370708712" x2="36.171875" y2="2.396408370708712" style="visibility: inherit;" fill="rgb(0, 0, 0)" stroke="rgb(204, 204, 204)" stroke-width="1px"></line></g><g transform="translate(31.171875, 0)"><text x="0" y="323.5697529162488" dx="0em" dy="0.3em" style="text-anchor: end; visibility: inherit; font-family: Roboto, sans-serif; font-size: 12px; font-weight: 200;" fill="rgb(50, 49, 63)" stroke="none" stroke-width="1px">0.2</text><text x="0" y="205.03422749854707" dx="0em" dy="0.3em" style="text-anchor: end; visibility: inherit; font-family: Roboto, sans-serif; font-size: 12px; font-weight: 200;" fill="rgb(50, 49, 63)" stroke="none" stroke-width="1px">0.3</text><text x="0" y="120.93193378841039" dx="0em" dy="0.3em" style="text-anchor: end; visibility: inherit; font-family: Roboto, sans-serif; font-size: 12px; font-weight: 200;" fill="rgb(50, 49, 63)" stroke="none" stroke-width="1px">0.4</text><text x="0" y="55.69712672445555" dx="0em" dy="0.3em" style="text-anchor: end; visibility: inherit; font-family: Roboto, sans-serif; font-size: 12px; font-weight: 200;" fill="rgb(50, 49, 63)" stroke="none" stroke-width="1px">0.5</text><text x="0" y="2.396408370708712" dx="0em" dy="0.3em" style="text-anchor: end; visibility: hidden; font-family: Roboto, sans-serif; font-size: 12px; font-weight: 200;" fill="rgb(50, 49, 63)" stroke="none" stroke-width="1px">0.6</text></g><line x1="41.171875" y1="0" x2="41.171875" y2="378" fill="rgb(0, 0, 0)" stroke="rgb(204, 204, 204)" stroke-width="1px"></line></g></g><g transform="translate(41, 0)" clip-path="url(#clip_0)"><clipPath id="clip_0"><rect width="785" height="378"></rect></clipPath><g><g><g><line x1="32.14733709598012" y1="0" x2="32.14733709598012" y2="378" fill="rgb(0, 0, 0)" stroke="rgb(60, 60, 60)" stroke-width="1px" opacity="0.25"></line><line x1="124.7344995423756" y1="0" x2="124.7344995423756" y2="378" fill="rgb(0, 0, 0)" stroke="rgb(60, 60, 60)" stroke-width="1px" opacity="0.25"></line><line x1="217.3216619887711" y1="0" x2="217.3216619887711" y2="378" fill="rgb(0, 0, 0)" stroke="rgb(60, 60, 60)" stroke-width="1px" opacity="0.25"></line><line x1="309.9088244351666" y1="0" x2="309.9088244351666" y2="378" fill="rgb(0, 0, 0)" stroke="rgb(60, 60, 60)" stroke-width="1px" opacity="0.25"></line><line x1="402.49598688156203" y1="0" x2="402.49598688156203" y2="378" fill="rgb(0, 0, 0)" stroke="rgb(60, 60, 60)" stroke-width="1px" opacity="0.25"></line><line x1="495.0831493279576" y1="0" x2="495.0831493279576" y2="378" fill="rgb(0, 0, 0)" stroke="rgb(60, 60, 60)" stroke-width="1px" opacity="0.25"></line><line x1="587.670311774353" y1="0" x2="587.670311774353" y2="378" fill="rgb(0, 0, 0)" stroke="rgb(60, 60, 60)" stroke-width="1px" opacity="0.25"></line><line x1="680.2574742207486" y1="0" x2="680.2574742207486" y2="378" fill="rgb(0, 0, 0)" stroke="rgb(60, 60, 60)" stroke-width="1px" opacity="0.25"></line><line x1="772.8446366671441" y1="0" x2="772.8446366671441" y2="378" fill="rgb(0, 0, 0)" stroke="rgb(60, 60, 60)" stroke-width="1px" opacity="0.25"></line></g><g><line x1="0" y1="323.5697529162488" x2="785.628125" y2="323.5697529162488" fill="rgb(0, 0, 0)" stroke="rgb(60, 60, 60)" stroke-width="1px" opacity="0.25"></line><line x1="0" y1="205.03422749854707" x2="785.628125" y2="205.03422749854707" fill="rgb(0, 0, 0)" stroke="rgb(60, 60, 60)" stroke-width="1px" opacity="0.25"></line><line x1="0" y1="120.93193378841039" x2="785.628125" y2="120.93193378841039" fill="rgb(0, 0, 0)" stroke="rgb(60, 60, 60)" stroke-width="1px" opacity="0.25"></line><line x1="0" y1="55.69712672445555" x2="785.628125" y2="55.69712672445555" fill="rgb(0, 0, 0)" stroke="rgb(60, 60, 60)" stroke-width="1px" opacity="0.25"></line><line x1="0" y1="2.396408370708712" x2="785.628125" y2="2.396408370708712" fill="rgb(0, 0, 0)" stroke="rgb(60, 60, 60)" stroke-width="1px" opacity="0.25"></line></g></g></g><g><g><line x1="124.7344995423756" y1="0" x2="124.7344995423756" y2="378" fill="rgb(0, 0, 0)" stroke="rgb(153, 153, 153)" stroke-width="1.5px"></line></g></g><g><g><g><g><g><path stroke="rgb(204, 51, 17)" stroke-width="2px" d="M152.51064827629426,-26.693044117117502L161.7693645209338,19.940666355147833L171.02808076557335,22.451675803392206L180.2867970102129,61.112510818136215L189.54551325485244,65.44105302810391L198.80422949949198,75.45486106182726L208.06294574413153,84.06211839808108L217.3216619887711,87.9023158595802L226.58037823341064,92.79934823568391L235.83909447805019,92.46888167883729L245.09781072268976,93.88771667788706L254.3565269673293,99.18154806470953L263.61524321196885,96.1211419721882L272.87395945660836,98.59037757088957L282.13267570124793,98.59578554144503L291.39139194588745,97.71522227616413L300.650108190527,98.62004192358192L309.9088244351666,99.17503740854295L319.1675406798061,99.65276249189155L328.4262569244457,99.24002915370434L337.68497316908525,99.42082424855423L346.94368941372477,99.69179122414734L356.2024056583643,99.51372321242211L365.46112190300386,99.6521751766084L374.71983814764343,99.67384586673892L383.97855439228294,99.36449206690077L393.23727063692246,99.56322066160101L402.49598688156203,99.47020477182932L411.7547031262016,99.51088925630859L421.0134193708411,99.51501874436681L430.2721356154807,99.58178689677688L439.53085186012026,99.63619660318247L448.7895681047598,99.67672191084372L458.04828434939935,99.69505229337443L467.3070005940389,99.69071771242234L476.56571683867844,99.68887452224018L485.824433083318,99.70325576501443L495.0831493279576,99.70189863159274L504.3418655725971,99.70515981356941L513.6005818172367,99.70878564245032L522.8592980618762,99.7108315210501L532.1180143065158,99.71342433826166L541.3767305511553,99.71399152009208L550.6354467957948,99.71530819644067L559.8941630404344,99.71613871841825L569.1528792850739,99.71652359525667L578.4115955297135,99.71672616221727" style="fill: none;" fill="none"></path></g><g><path stroke="rgb(51, 187, 238)" stroke-width="2px" d="M124.7344995423756,81.6286058228258L133.99321578701515,145.31076972688686L143.2519320316547,211.8658768729204L152.51064827629426,204.6232146253526L161.7693645209338,215.90093554994684L171.02808076557335,222.64911314492738L180.2867970102129,228.38559733452084L189.54551325485244,218.63036453580858L198.80422949949198,220.8049523548939L208.06294574413153,221.9120029227318L217.3216619887711,229.14289168890076L226.58037823341064,226.83243320391028L235.83909447805019,228.78348113925668L245.09781072268976,228.66966381652324L254.3565269673293,230.53695597088807L263.61524321196885,229.9095837230212L272.87395945660836,228.50449652204176L282.13267570124793,229.18477759093915L291.39139194588745,228.72795265388459L300.650108190527,227.99456860219016L309.9088244351666,229.10747629012715L319.1675406798061,228.826607244873L328.4262569244457,229.01030308474887L337.68497316908525,228.92614604163512L346.94368941372477,228.93396185507348L356.2024056583643,229.25209778017037L365.46112190300386,229.08388942887126L374.71983814764343,229.12220327680288L383.97855439228294,229.04037855538238L393.23727063692246,229.16414929582393L402.49598688156203,229.17894222220687L411.7547031262016,229.1744632614359L421.0134193708411,229.14591938421015L430.2721356154807,229.10495354028527L439.53085186012026,229.11889200529816L448.7895681047598,229.10668792846297L458.04828434939935,229.0992143654927L467.3070005940389,229.1061203093812L476.56571683867844,229.10678253175047L485.824433083318,229.1035029689837L495.0831493279576,229.10441745874837L504.3418655725971,229.1075078246379L513.6005818172367,229.11129199062773L522.8592980618762,229.11249032006947L532.1180143065158,229.11293181110202L541.3767305511553,229.11406707681863L550.6354467957948,229.11419321772595L559.8941630404344,229.1152969529866L569.1528792850739,229.1156753774639L578.4115955297135,229.11611687330642" style="fill: none;" fill="none"></path></g><g><path stroke="rgb(0, 153, 136)" stroke-width="2px" d="M124.7344995423756,98.12679417451116L133.99321578701515,139.96161173180693L143.2519320316547,179.93658609269247L152.51064827629426,263.4689363821995L161.7693645209338,267.27387056361914L171.02808076557335,278.4977100283811L180.2867970102129,278.6488023875038L189.54551325485244,285.6331470496428L198.80422949949198,286.9872031682104L208.06294574413153,285.6839431567254L217.3216619887711,287.7527328925685L226.58037823341064,287.92574969875534L235.83909447805019,285.7037282849893L245.09781072268976,288.96817357508115L254.3565269673293,284.91269779883817L263.61524321196885,284.7045519054251L272.87395945660836,283.6040417178973L282.13267570124793,283.3877125992052L291.39139194588745,282.9957048766251L300.650108190527,283.640919666177L309.9088244351666,283.7052439646995L319.1675406798061,283.4576587837611L328.4262569244457,283.27530973848934L337.68497316908525,283.2393886568144L346.94368941372477,283.09250541004326L356.2024056583643,282.96233934960384L365.46112190300386,282.9160130801086L374.71983814764343,282.68867724448586L383.97855439228294,282.69002190714616L393.23727063692246,282.64627619595717L402.49598688156203,282.6254850749838L411.7547031262016,282.6294045994431L421.0134193708411,282.5993562547778L430.2721356154807,282.5987314637532L439.53085186012026,282.60130636868513L448.7895681047598,282.6081981375863L458.04828434939935,282.6089744184399L467.3070005940389,282.59698962915917L476.56571683867844,282.59897759339134L485.824433083318,282.5921996375371L495.0831493279576,282.58917043433405L504.3418655725971,282.58699321391924L513.6005818172367,282.5873150628723L522.8592980618762,282.5874097243965L532.1180143065158,282.587693709153L541.3767305511553,282.5886592593888L550.6354467957948,282.5886213946136L559.8941630404344,282.58881071853864L569.1528792850739,282.5891325694926L578.4115955297135,282.58935975861465" style="fill: none;" fill="none"></path></g><g><path stroke="rgb(255, 112, 67)" stroke-width="2px" d="M124.7344995423756,104.9924206950494L133.99321578701515,154.99146572580278L143.2519320316547,198.98859019294443L152.51064827629426,168.46880273261144L161.7693645209338,211.12764084742108L171.02808076557335,218.91829048198318L180.2867970102129,213.910481105106L189.54551325485244,212.25426978713296L198.80422949949198,208.06038703392704L208.06294574413153,208.75434483444667L217.3216619887711,205.80833322967516L226.58037823341064,208.39357262681486L235.83909447805019,210.0404915881457L245.09781072268976,206.42802669851366L254.3565269673293,206.7152174409201L263.61524321196885,206.06247630953703L272.87395945660836,205.8207672331426L282.13267570124793,204.43836255909537L291.39139194588745,204.01945719044895L300.650108190527,202.4181932575098L309.9088244351666,202.36385580714213L319.1675406798061,202.8991513763309L328.4262569244457,203.35009080958645L337.68497316908525,203.04313749666528L346.94368941372477,203.07758009664929L356.2024056583643,202.96445974467943L365.46112190300386,202.91806479369384L374.71983814764343,202.73993507875775L383.97855439228294,202.89128075679176L393.23727063692246,202.93464387168848L402.49598688156203,202.8995550035576L411.7547031262016,202.8832373755302L421.0134193708411,202.8852554073802L430.2721356154807,202.8796337818745L439.53085186012026,202.88352566494163L448.7895681047598,202.88686984289004L458.04828434939935,202.88857077566126L467.3070005940389,202.88617794086554L476.56571683867844,202.86899623250278L485.824433083318,202.86712244953878L495.0831493279576,202.86481627160853L504.3418655725971,202.86075167729445L513.6005818172367,202.85789784697025L522.8592980618762,202.86124173176896L532.1180143065158,202.8619047479538L541.3767305511553,202.8616453066589L550.6354467957948,202.862048882106L559.8941630404344,202.86268307321978L569.1528792850739,202.8630001692926L578.4115955297135,202.86340374661006" style="fill: none;" fill="none"></path></g><g><path stroke="rgb(0, 119, 187)" stroke-width="2px" d="M124.7344995423756,-0.7376367160703521L133.99321578701515,115.75281454548866L143.2519320316547,131.0640264747291L152.51064827629426,160.25380760073963L161.7693645209338,168.35893325883833L171.02808076557335,184.30485497577257L180.2867970102129,183.97795664744083L189.54551325485244,185.49208621761252L198.80422949949198,183.220197231637L208.06294574413153,183.9731735049145L217.3216619887711,187.84761943431553L226.58037823341064,186.2704723277889L235.83909447805019,190.0267558576792L245.09781072268976,184.29346552267523L254.3565269673293,184.2224605310512L263.61524321196885,186.45903606349574L272.87395945660836,184.58697343735278L282.13267570124793,186.14303388328184L291.39139194588745,186.19743350050715L300.650108190527,186.07979820335177L309.9088244351666,186.2213420397205L319.1675406798061,186.65983031772095L328.4262569244457,186.51349451982804L337.68497316908525,186.17556897423498L346.94368941372477,186.1884478808263L356.2024056583643,186.14142764204135L365.46112190300386,186.22297595204623L374.71983814764343,186.2592239222043L383.97855439228294,186.14235327150928L393.23727063692246,186.1535155046811L402.49598688156203,186.18940088800275L411.7547031262016,186.2589515690821L421.0134193708411,186.26853855171223L430.2721356154807,186.30111485310985L439.53085186012026,186.31203798752864L448.7895681047598,186.32881846040743L458.04828434939935,186.32854604244207L467.3070005940389,186.3287639767941L476.56571683867844,186.32219877571177L485.824433083318,186.32770154836268L495.0831493279576,186.32481394187786L504.3418655725971,186.32478670044307L513.6005818172367,186.3233156667331L522.8592980618762,186.32680257347494L532.1180143065158,186.32680257347494L541.3767305511553,186.32691153998076L550.6354467957948,186.32737464808366L559.8941630404344,186.3271022314637L569.1528792850739,186.32693878161356L578.4115955297135,186.32721119808122" style="fill: none;" fill="none"></path></g></g></g></g></g></g><g transform="translate(41, 378)" clip-path="url(#clip_1)"><clipPath id="clip_1"><rect width="785" height="22"></rect></clipPath><g><g><line x1="32.14733709598012" y1="0" x2="32.14733709598012" y2="5" style="visibility: inherit;" fill="rgb(0, 0, 0)" stroke="rgb(204, 204, 204)" stroke-width="1px"></line><line x1="124.7344995423756" y1="0" x2="124.7344995423756" y2="5" style="visibility: inherit;" fill="rgb(0, 0, 0)" stroke="rgb(204, 204, 204)" stroke-width="1px"></line><line x1="217.3216619887711" y1="0" x2="217.3216619887711" y2="5" style="visibility: inherit;" fill="rgb(0, 0, 0)" stroke="rgb(204, 204, 204)" stroke-width="1px"></line><line x1="309.9088244351666" y1="0" x2="309.9088244351666" y2="5" style="visibility: inherit;" fill="rgb(0, 0, 0)" stroke="rgb(204, 204, 204)" stroke-width="1px"></line><line x1="402.49598688156203" y1="0" x2="402.49598688156203" y2="5" style="visibility: inherit;" fill="rgb(0, 0, 0)" stroke="rgb(204, 204, 204)" stroke-width="1px"></line><line x1="495.0831493279576" y1="0" x2="495.0831493279576" y2="5" style="visibility: inherit;" fill="rgb(0, 0, 0)" stroke="rgb(204, 204, 204)" stroke-width="1px"></line><line x1="587.670311774353" y1="0" x2="587.670311774353" y2="5" style="visibility: inherit;" fill="rgb(0, 0, 0)" stroke="rgb(204, 204, 204)" stroke-width="1px"></line><line x1="680.2574742207486" y1="0" x2="680.2574742207486" y2="5" style="visibility: inherit;" fill="rgb(0, 0, 0)" stroke="rgb(204, 204, 204)" stroke-width="1px"></line><line x1="772.8446366671441" y1="0" x2="772.8446366671441" y2="5" style="visibility: inherit;" fill="rgb(0, 0, 0)" stroke="rgb(204, 204, 204)" stroke-width="1px"></line></g><g transform="translate(0, 8)"><text x="32.14733709598012" y="0" dx="0em" dy="0.95em" style="text-anchor: middle; visibility: inherit; font-family: Roboto, sans-serif; font-size: 12px; font-weight: 200;" fill="rgb(50, 49, 63)" stroke="none" stroke-width="1px">-10</text><text x="124.7344995423756" y="0" dx="0em" dy="0.95em" style="text-anchor: middle; visibility: inherit; font-family: Roboto, sans-serif; font-size: 12px; font-weight: 200;" fill="rgb(50, 49, 63)" stroke="none" stroke-width="1px">0</text><text x="217.3216619887711" y="0" dx="0em" dy="0.95em" style="text-anchor: middle; visibility: inherit; font-family: Roboto, sans-serif; font-size: 12px; font-weight: 200;" fill="rgb(50, 49, 63)" stroke="none" stroke-width="1px">10</text><text x="309.9088244351666" y="0" dx="0em" dy="0.95em" style="text-anchor: middle; visibility: inherit; font-family: Roboto, sans-serif; font-size: 12px; font-weight: 200;" fill="rgb(50, 49, 63)" stroke="none" stroke-width="1px">20</text><text x="402.49598688156203" y="0" dx="0em" dy="0.95em" style="text-anchor: middle; visibility: inherit; font-family: Roboto, sans-serif; font-size: 12px; font-weight: 200;" fill="rgb(50, 49, 63)" stroke="none" stroke-width="1px">30</text><text x="495.0831493279576" y="0" dx="0em" dy="0.95em" style="text-anchor: middle; visibility: inherit; font-family: Roboto, sans-serif; font-size: 12px; font-weight: 200;" fill="rgb(50, 49, 63)" stroke="none" stroke-width="1px">40</text><text x="587.670311774353" y="0" dx="0em" dy="0.95em" style="text-anchor: middle; visibility: inherit; font-family: Roboto, sans-serif; font-size: 12px; font-weight: 200;" fill="rgb(50, 49, 63)" stroke="none" stroke-width="1px">50</text><text x="680.2574742207486" y="0" dx="0em" dy="0.95em" style="text-anchor: middle; visibility: inherit; font-family: Roboto, sans-serif; font-size: 12px; font-weight: 200;" fill="rgb(50, 49, 63)" stroke="none" stroke-width="1px">60</text><text x="772.8446366671441" y="0" dx="0em" dy="0.95em" style="text-anchor: middle; visibility: inherit; font-family: Roboto, sans-serif; font-size: 12px; font-weight: 200;" fill="rgb(50, 49, 63)" stroke="none" stroke-width="1px">70</text></g><line x1="0" y1="0" x2="785.628125" y2="0" fill="rgb(0, 0, 0)" stroke="rgb(204, 204, 204)" stroke-width="1px"></line></g></g></g></g></svg>