<svg viewBox="0 0 806.4000244140625 400" xmlns="http://www.w3.org/2000/svg"><g><g><g><g><g><line x1="51.5625" y1="378" x2="46.5625" y2="378" style="visibility: inherit;" fill="rgb(0, 0, 0)" stroke="rgb(204, 204, 204)" stroke-width="1px"></line><line x1="51.5625" y1="346.5" x2="46.5625" y2="346.5" style="visibility: inherit;" fill="rgb(0, 0, 0)" stroke="rgb(204, 204, 204)" stroke-width="1px"></line><line x1="51.5625" y1="314.99999999999994" x2="46.5625" y2="314.99999999999994" style="visibility: inherit;" fill="rgb(0, 0, 0)" stroke="rgb(204, 204, 204)" stroke-width="1px"></line><line x1="51.5625" y1="283.5" x2="46.5625" y2="283.5" style="visibility: inherit;" fill="rgb(0, 0, 0)" stroke="rgb(204, 204, 204)" stroke-width="1px"></line><line x1="51.5625" y1="251.99999999999994" x2="46.5625" y2="251.99999999999994" style="visibility: inherit;" fill="rgb(0, 0, 0)" stroke="rgb(204, 204, 204)" stroke-width="1px"></line><line x1="51.5625" y1="220.49999999999997" x2="46.5625" y2="220.49999999999997" style="visibility: inherit;" fill="rgb(0, 0, 0)" stroke="rgb(204, 204, 204)" stroke-width="1px"></line><line x1="51.5625" y1="189" x2="46.5625" y2="189" style="visibility: inherit;" fill="rgb(0, 0, 0)" stroke="rgb(204, 204, 204)" stroke-width="1px"></line><line x1="51.5625" y1="157.5" x2="46.5625" y2="157.5" style="visibility: inherit;" fill="rgb(0, 0, 0)" stroke="rgb(204, 204, 204)" stroke-width="1px"></line><line x1="51.5625" y1="125.99999999999993" x2="46.5625" y2="125.99999999999993" style="visibility: inherit;" fill="rgb(0, 0, 0)" stroke="rgb(204, 204, 204)" stroke-width="1px"></line><line x1="51.5625" y1="94.5" x2="46.5625" y2="94.5" style="visibility: inherit;" fill="rgb(0, 0, 0)" stroke="rgb(204, 204, 204)" stroke-width="1px"></line><line x1="51.5625" y1="62.999999999999986" x2="46.5625" y2="62.999999999999986" style="visibility: inherit;" fill="rgb(0, 0, 0)" stroke="rgb(204, 204, 204)" stroke-width="1px"></line><line x1="51.5625" y1="31.49999999999993" x2="46.5625" y2="31.49999999999993" style="visibility: inherit;" fill="rgb(0, 0, 0)" stroke="rgb(204, 204, 204)" stroke-width="1px"></line><line x1="51.5625" y1="0" x2="46.5625" y2="0" style="visibility: inherit;" fill="rgb(0, 0, 0)" stroke="rgb(204, 204, 204)" stroke-width="1px"></line></g><g transform="translate(41.5625, 0)"><text x="0" y="378" dx="0em" dy="0.3em" style="text-anchor: end; visibility: hidden; font-family: Roboto, sans-serif; font-size: 12px; font-weight: 200;" fill="rgb(50, 49, 63)" stroke="none" stroke-width="1px">0.24</text><text x="0" y="346.5" dx="0em" dy="0.3em" style="text-anchor: end; visibility: inherit; font-family: Roboto, sans-serif; font-size: 12px; font-weight: 200;" fill="rgb(50, 49, 63)" stroke="none" stroke-width="1px">0.26</text><text x="0" y="314.99999999999994" dx="0em" dy="0.3em" style="text-anchor: end; visibility: inherit; font-family: Roboto, sans-serif; font-size: 12px; font-weight: 200;" fill="rgb(50, 49, 63)" stroke="none" stroke-width="1px">0.28</text><text x="0" y="283.5" dx="0em" dy="0.3em" style="text-anchor: end; visibility: inherit; font-family: Roboto, sans-serif; font-size: 12px; font-weight: 200;" fill="rgb(50, 49, 63)" stroke="none" stroke-width="1px">0.3</text><text x="0" y="251.99999999999994" dx="0em" dy="0.3em" style="text-anchor: end; visibility: inherit; font-family: Roboto, sans-serif; font-size: 12px; font-weight: 200;" fill="rgb(50, 49, 63)" stroke="none" stroke-width="1px">0.32</text><text x="0" y="220.49999999999997" dx="0em" dy="0.3em" style="text-anchor: end; visibility: inherit; font-family: Roboto, sans-serif; font-size: 12px; font-weight: 200;" fill="rgb(50, 49, 63)" stroke="none" stroke-width="1px">0.34</text><text x="0" y="189" dx="0em" dy="0.3em" style="text-anchor: end; visibility: inherit; font-family: Roboto, sans-serif; font-size: 12px; font-weight: 200;" fill="rgb(50, 49, 63)" stroke="none" stroke-width="1px">0.36</text><text x="0" y="157.5" dx="0em" dy="0.3em" style="text-anchor: end; visibility: inherit; font-family: Roboto, sans-serif; font-size: 12px; font-weight: 200;" fill="rgb(50, 49, 63)" stroke="none" stroke-width="1px">0.38</text><text x="0" y="125.99999999999993" dx="0em" dy="0.3em" style="text-anchor: end; visibility: inherit; font-family: Roboto, sans-serif; font-size: 12px; font-weight: 200;" fill="rgb(50, 49, 63)" stroke="none" stroke-width="1px">0.4</text><text x="0" y="94.5" dx="0em" dy="0.3em" style="text-anchor: end; visibility: inherit; font-family: Roboto, sans-serif; font-size: 12px; font-weight: 200;" fill="rgb(50, 49, 63)" stroke="none" stroke-width="1px">0.42</text><text x="0" y="62.999999999999986" dx="0em" dy="0.3em" style="text-anchor: end; visibility: inherit; font-family: Roboto, sans-serif; font-size: 12px; font-weight: 200;" fill="rgb(50, 49, 63)" stroke="none" stroke-width="1px">0.44</text><text x="0" y="31.49999999999993" dx="0em" dy="0.3em" style="text-anchor: end; visibility: inherit; font-family: Roboto, sans-serif; font-size: 12px; font-weight: 200;" fill="rgb(50, 49, 63)" stroke="none" stroke-width="1px">0.46</text><text x="0" y="0" dx="0em" dy="0.3em" style="text-anchor: end; visibility: hidden; font-family: Roboto, sans-serif; font-size: 12px; font-weight: 200;" fill="rgb(50, 49, 63)" stroke="none" stroke-width="1px">0.48</text></g><line x1="51.5625" y1="0" x2="51.5625" y2="378" fill="rgb(0, 0, 0)" stroke="rgb(204, 204, 204)" stroke-width="1px"></line></g></g><g transform="translate(51, 0)" clip-path="url(#clip_0)"><clipPath id="clip_0"><rect width="754" height="378"></rect></clipPath><g><g><g><line x1="0" y1="0" x2="0" y2="378" fill="rgb(0, 0, 0)" stroke="rgb(60, 60, 60)" stroke-width="1px" opacity="0.25"></line><line x1="62.903124999999996" y1="0" x2="62.903124999999996" y2="378" fill="rgb(0, 0, 0)" stroke="rgb(60, 60, 60)" stroke-width="1px" opacity="0.25"></line><line x1="125.80624999999999" y1="0" x2="125.80624999999999" y2="378" fill="rgb(0, 0, 0)" stroke="rgb(60, 60, 60)" stroke-width="1px" opacity="0.25"></line><line x1="188.709375" y1="0" x2="188.709375" y2="378" fill="rgb(0, 0, 0)" stroke="rgb(60, 60, 60)" stroke-width="1px" opacity="0.25"></line><line x1="251.61249999999998" y1="0" x2="251.61249999999998" y2="378" fill="rgb(0, 0, 0)" stroke="rgb(60, 60, 60)" stroke-width="1px" opacity="0.25"></line><line x1="314.515625" y1="0" x2="314.515625" y2="378" fill="rgb(0, 0, 0)" stroke="rgb(60, 60, 60)" stroke-width="1px" opacity="0.25"></line><line x1="377.41875" y1="0" x2="377.41875" y2="378" fill="rgb(0, 0, 0)" stroke="rgb(60, 60, 60)" stroke-width="1px" opacity="0.25"></line><line x1="440.32187500000003" y1="0" x2="440.32187500000003" y2="378" fill="rgb(0, 0, 0)" stroke="rgb(60, 60, 60)" stroke-width="1px" opacity="0.25"></line><line x1="503.22499999999997" y1="0" x2="503.22499999999997" y2="378" fill="rgb(0, 0, 0)" stroke="rgb(60, 60, 60)" stroke-width="1px" opacity="0.25"></line><line x1="566.128125" y1="0" x2="566.128125" y2="378" fill="rgb(0, 0, 0)" stroke="rgb(60, 60, 60)" stroke-width="1px" opacity="0.25"></line><line x1="629.03125" y1="0" x2="629.03125" y2="378" fill="rgb(0, 0, 0)" stroke="rgb(60, 60, 60)" stroke-width="1px" opacity="0.25"></line><line x1="691.9343749999999" y1="0" x2="691.9343749999999" y2="378" fill="rgb(0, 0, 0)" stroke="rgb(60, 60, 60)" stroke-width="1px" opacity="0.25"></line><line x1="754.8375" y1="0" x2="754.8375" y2="378" fill="rgb(0, 0, 0)" stroke="rgb(60, 60, 60)" stroke-width="1px" opacity="0.25"></line></g><g><line x1="0" y1="378" x2="754.8375" y2="378" fill="rgb(0, 0, 0)" stroke="rgb(60, 60, 60)" stroke-width="1px" opacity="0.25"></line><line x1="0" y1="346.5" x2="754.8375" y2="346.5" fill="rgb(0, 0, 0)" stroke="rgb(60, 60, 60)" stroke-width="1px" opacity="0.25"></line><line x1="0" y1="314.99999999999994" x2="754.8375" y2="314.99999999999994" fill="rgb(0, 0, 0)" stroke="rgb(60, 60, 60)" stroke-width="1px" opacity="0.25"></line><line x1="0" y1="283.5" x2="754.8375" y2="283.5" fill="rgb(0, 0, 0)" stroke="rgb(60, 60, 60)" stroke-width="1px" opacity="0.25"></line><line x1="0" y1="251.99999999999994" x2="754.8375" y2="251.99999999999994" fill="rgb(0, 0, 0)" stroke="rgb(60, 60, 60)" stroke-width="1px" opacity="0.25"></line><line x1="0" y1="220.49999999999997" x2="754.8375" y2="220.49999999999997" fill="rgb(0, 0, 0)" stroke="rgb(60, 60, 60)" stroke-width="1px" opacity="0.25"></line><line x1="0" y1="189" x2="754.8375" y2="189" fill="rgb(0, 0, 0)" stroke="rgb(60, 60, 60)" stroke-width="1px" opacity="0.25"></line><line x1="0" y1="157.5" x2="754.8375" y2="157.5" fill="rgb(0, 0, 0)" stroke="rgb(60, 60, 60)" stroke-width="1px" opacity="0.25"></line><line x1="0" y1="125.99999999999993" x2="754.8375" y2="125.99999999999993" fill="rgb(0, 0, 0)" stroke="rgb(60, 60, 60)" stroke-width="1px" opacity="0.25"></line><line x1="0" y1="94.5" x2="754.8375" y2="94.5" fill="rgb(0, 0, 0)" stroke="rgb(60, 60, 60)" stroke-width="1px" opacity="0.25"></line><line x1="0" y1="62.999999999999986" x2="754.8375" y2="62.999999999999986" fill="rgb(0, 0, 0)" stroke="rgb(60, 60, 60)" stroke-width="1px" opacity="0.25"></line><line x1="0" y1="31.49999999999993" x2="754.8375" y2="31.49999999999993" fill="rgb(0, 0, 0)" stroke="rgb(60, 60, 60)" stroke-width="1px" opacity="0.25"></line><line x1="0" y1="0" x2="754.8375" y2="0" fill="rgb(0, 0, 0)" stroke="rgb(60, 60, 60)" stroke-width="1px" opacity="0.25"></line></g></g></g><g><g><line x1="0" y1="756" x2="754.8375" y2="756" fill="rgb(0, 0, 0)" stroke="rgb(153, 153, 153)" stroke-width="1.5px"></line></g></g><g><g><line x1="62.903124999999996" y1="0" x2="62.903124999999996" y2="378" fill="rgb(0, 0, 0)" stroke="rgb(153, 153, 153)" stroke-width="1.5px"></line></g></g><g><g><g><g><g><path stroke="rgb(0, 119, 187)" stroke-width="2px" d="M100.645,-4.347394645214081L113.225625,38.14978650212285L125.80624999999999,57.01668611168857L138.38687499999997,81.3007762134075L150.9675,104.37046936154363L163.548125,113.95712694525717L176.12875,122.36078953742977L188.709375,142.58553063869473L201.29,144.53747472167012L213.870625,135.4835239648819L226.45125,140.48934406042096L239.03187499999999,139.98071676492688L251.61249999999998,148.7615314722061L264.19312499999995,149.30512806773183L276.77374999999995,155.06835034489632L289.354375,152.45851403474805L301.935,155.178609251976L314.515625,155.22503158450124L327.09625,155.83870759606359L339.676875,155.98726844787595L352.2575,155.5721898972988L364.838125,156.6617300212383L377.41875,157.00780874490738L389.99937500000004,156.64243823289868L402.58,156.67050755023953L415.16062500000004,156.94293951988217L427.74125,156.86159482598302L440.32187500000003,156.85788667201993L452.9025,157.0650739073753L465.48312500000003,157.17946341633797L478.06374999999997,157.28699988126752L490.644375,157.34285688400266L503.22499999999997,157.37482210993764L515.805625,157.32929161190987L528.3862499999999,157.3089671730995L540.966875,157.30868554115293L553.5474999999999,157.320044696331L566.128125,157.33497118949887L578.70875,157.31464675068855L591.289375,157.32032632827756L603.87,157.31600797176358L616.450625,157.31366103887558L629.03125,157.31183043122292L641.6118749999999,157.31131410598752L654.1925,157.31164267659184L666.7731249999999,157.31150186061856L679.35375,157.31173655390737" style="fill: none;" fill="none"></path></g><g><path stroke="rgb(51, 187, 238)" stroke-width="2px" d="M75.48375,-44.30129849910742L88.064375,47.245371848344774L100.645,63.16288089752193L113.225625,94.79319950938223L125.80624999999999,142.4740513265133L138.38687499999997,144.47166672348976L150.9675,142.99685409665105L163.548125,151.11376842856404L176.12875,178.193618863821L188.709375,168.06740140914914L201.29,173.02276244759557L213.870625,176.1929524540901L226.45125,180.3412502110004L239.03187499999999,177.0716441273689L251.61249999999998,181.98410323262212L264.19312499999995,181.2582438290119L276.77374999999995,185.2636603116989L289.354375,187.52915462851522L301.935,186.73837906122205L314.515625,187.51206895709038L327.09625,187.4644731581211L339.676875,185.52205762267113L352.2575,186.4190084338188L364.838125,187.14186376333237L377.41875,187.51530772447586L389.99937500000004,187.17861673235893L402.58,186.79174831509587L415.16062500000004,186.9967294335365L427.74125,186.7158015668392L440.32187500000003,186.81930130720136L452.9025,186.53715303540227L465.48312500000003,186.54067343473432L478.06374999999997,186.65149560570714L490.644375,186.65731599926949L503.22499999999997,186.65938130021092L515.805625,186.62797933816907L528.3862499999999,186.63140586018562L540.966875,186.60197532176971L553.5474999999999,186.58169782161713L566.128125,186.5865794420242L578.70875,186.5795386433601L591.289375,186.58343455195424L603.87,186.5881753563881L616.450625,186.5883631110191L629.03125,186.58521822094917L641.6118749999999,186.5857345461845L654.1925,186.58615699410436L666.7731249999999,186.58747127652168L679.35375,186.5881753563881" style="fill: none;" fill="none"></path></g><g><path stroke="rgb(0, 153, 136)" stroke-width="2px" d="M75.48375,-6.665037810802488L88.064375,19.35733160376546L100.645,95.02366831898686L113.225625,154.8522447645664L125.80624999999999,164.45641046762466L138.38687499999997,186.6411691009998L150.9675,215.13044661283493L163.548125,217.58665269613263L176.12875,217.05812340974808L188.709375,225.095242023468L201.29,210.60926815867424L213.870625,225.6385569870472L226.45125,222.88128635287285L239.03187499999999,220.88939747214317L251.61249999999998,220.75473046302793L264.19312499999995,217.2033516168594L276.77374999999995,219.66002708673474L289.354375,219.59736397862432L301.935,217.28732487559319L314.515625,220.24943581223488L327.09625,220.90526273846623L339.676875,220.93957489728928L352.2575,220.6630123257637L364.838125,221.63778743147847L377.41875,221.61647728085518L389.99937500000004,221.2164191007614L402.58,221.04391953349113L415.16062500000004,220.75876718759537L427.74125,220.51553106307983L440.32187500000003,220.6816000342369L452.9025,220.6267756819725L465.48312500000003,220.68882858753202L478.06374999999997,220.6563470363617L490.644375,220.62203487753868L503.22499999999997,220.64968174695966L515.805625,220.65967968106267L528.3862499999999,220.6590694785118L540.966875,220.6462082862854L553.5474999999999,220.6484613418579L566.128125,220.66780006885529L578.70875,220.67371433973312L591.289375,220.6817408502102L603.87,220.67972248792648L616.450625,220.68408778309822L629.03125,220.6819286048412L641.6118749999999,220.683149009943L654.1925,220.68474492430684L666.7731249999999,220.68605920672417L679.35375,220.68643471598622" style="fill: none;" fill="none"></path></g><g><path stroke="rgb(255, 112, 67)" stroke-width="2px" d="M62.903124999999996,-122.3163517713547L75.48375,9.45932990312572L88.064375,28.280745953321443L100.645,101.9166571497917L113.225625,126.45717313885686L125.80624999999999,153.70985171198842L138.38687499999997,150.2633807659149L150.9675,165.9545046687126L163.548125,172.45067408680916L176.12875,167.32872775197026L188.709375,173.949378490448L201.29,176.04101201891896L213.870625,183.36048549413678L226.45125,178.60757088661194L239.03187499999999,176.1671831309795L251.61249999999998,177.97164595127106L264.19312499999995,176.28382569551468L276.77374999999995,173.7902564406395L289.354375,174.72593164443967L301.935,173.5816141068935L314.515625,172.40598848462102L327.09625,172.9612258672714L339.676875,171.72730243206024L352.2575,172.49878621101377L364.838125,172.31074994802472L377.41875,173.16465801000592L389.99937500000004,172.80262014269826L402.58,173.11579486727712L415.16062500000004,173.13062748312947L427.74125,172.96239933371544L440.32187500000003,172.94592386484146L452.9025,172.8983280658722L465.48312500000003,172.98455438017842L478.06374999999997,172.94043204188347L490.644375,172.9044770300388L503.22499999999997,172.8950892984867L515.805625,172.8981872498989L528.3862499999999,172.8955586850643L540.966875,172.90874844789505L553.5474999999999,172.92513003945348L566.128125,172.93005859851834L578.70875,172.9309504330158L591.289375,172.93508103489876L603.87,172.94000959396362L616.450625,172.94371774792668L629.03125,172.94592386484146L641.6118749999999,172.94705039262772L654.1925,172.94686263799665L666.7731249999999,172.94761365652084L679.35375,172.9478952884674" style="fill: none;" fill="none"></path></g><g><path stroke="rgb(204, 51, 17)" stroke-width="2px" d="M62.903124999999996,18.395323812961564L75.48375,167.02780401706693L88.064375,222.02620482444763L100.645,224.15984845161438L113.225625,281.95921978354454L125.80624999999999,237.30750730633733L138.38687499999997,258.65694558620453L150.9675,252.72995433211324L163.548125,262.0520187020302L176.12875,261.58530762791634L188.709375,252.61260768771172L201.29,260.5961692929268L213.870625,246.96213206648824L226.45125,247.7247913777828L239.03187499999999,252.38917967677114L251.61249999999998,241.46336218714714L264.19312499999995,247.2512741982937L276.77374999999995,246.24983793497086L289.354375,244.58055844902992L301.935,245.46990519762036L314.515625,245.5898804068565L327.09625,245.5286723971367L339.676875,244.56586664915082L352.2575,245.6325945854187L364.838125,244.93968611955643L377.41875,244.86937201023102L389.99937500000004,245.2014630138874L402.58,245.1990691423416L415.16062500000004,244.68922144174573L427.74125,244.72700706124306L440.32187500000003,244.68499696254727L452.9025,244.64092156291005L465.48312500000003,244.61604407429695L478.06374999999997,244.65730315446854L490.644375,244.66894394159314L503.22499999999997,244.6597439646721L515.805625,244.67884799838066L528.3862499999999,244.68480920791626L540.966875,244.67133781313893L553.5474999999999,244.66274803876874L566.128125,244.66636231541634L578.70875,244.67434188723564L591.289375,244.67692351341248L603.87,244.67889493703842L616.450625,244.67598474025723L629.03125,244.67805004119873L641.6118749999999,244.67950513958928L654.1925,244.68063166737554L666.7731249999999,244.68124186992645L679.35375,244.68114799261093" style="fill: none;" fill="none"></path></g><g><path stroke="rgb(238, 51, 119)" stroke-width="2px" d="M62.903124999999996,67.2367808818817L75.48375,247.32905155420303L88.064375,264.15763995051384L100.645,249.27930584549904L113.225625,276.6075556576252L125.80624999999999,287.590873003006L138.38687499999997,279.9503391087055L150.9675,303.2988948225975L163.548125,296.8920496702194L176.12875,292.91090047359467L188.709375,294.9153689146042L201.29,293.73584738373756L213.870625,298.1468608081341L226.45125,302.8308225274086L239.03187499999999,302.64682298898697L251.61249999999998,306.87684094905853L264.19312499999995,302.2417893111706L276.77374999999995,302.66841477155685L289.354375,301.8154924213886L301.935,302.53346613049507L314.515625,301.9701083600521L327.09625,301.4238831996918L339.676875,301.11436969041824L352.2575,300.6484565734863L364.838125,300.2678779363632L377.41875,300.8933355510235L389.99937500000004,300.6051321923733L402.58,300.52148750424385L415.16062500000004,300.5470221340656L427.74125,300.5061855018139L440.32187500000003,300.73961144685745L452.9025,300.62742805480957L465.48312500000003,300.65056881308556L478.06374999999997,300.62972804903984L490.644375,300.61911991238594L503.22499999999997,300.61231380701065L515.805625,300.56997513771057L528.3862499999999,300.5786118507385L540.966875,300.5921301841736L553.5474999999999,300.57978531718254L566.128125,300.57189962267876L578.70875,300.57894042134285L591.289375,300.5755138993263L603.87,300.5779547095299L616.450625,300.5766404271126L629.03125,300.57701593637466L641.6118749999999,300.57584246993065L654.1925,300.57654654979706L666.7731249999999,300.5766404271126L679.35375,300.5771098136902" style="fill: none;" fill="none"></path></g></g></g></g></g></g><g transform="translate(51, 378)" clip-path="url(#clip_1)"><clipPath id="clip_1"><rect width="754" height="22"></rect></clipPath><g><g><line x1="0" y1="0" x2="0" y2="5" style="visibility: inherit;" fill="rgb(0, 0, 0)" stroke="rgb(204, 204, 204)" stroke-width="1px"></line><line x1="62.903124999999996" y1="0" x2="62.903124999999996" y2="5" style="visibility: inherit;" fill="rgb(0, 0, 0)" stroke="rgb(204, 204, 204)" stroke-width="1px"></line><line x1="125.80624999999999" y1="0" x2="125.80624999999999" y2="5" style="visibility: inherit;" fill="rgb(0, 0, 0)" stroke="rgb(204, 204, 204)" stroke-width="1px"></line><line x1="188.709375" y1="0" x2="188.709375" y2="5" style="visibility: inherit;" fill="rgb(0, 0, 0)" stroke="rgb(204, 204, 204)" stroke-width="1px"></line><line x1="251.61249999999998" y1="0" x2="251.61249999999998" y2="5" style="visibility: inherit;" fill="rgb(0, 0, 0)" stroke="rgb(204, 204, 204)" stroke-width="1px"></line><line x1="314.515625" y1="0" x2="314.515625" y2="5" style="visibility: inherit;" fill="rgb(0, 0, 0)" stroke="rgb(204, 204, 204)" stroke-width="1px"></line><line x1="377.41875" y1="0" x2="377.41875" y2="5" style="visibility: inherit;" fill="rgb(0, 0, 0)" stroke="rgb(204, 204, 204)" stroke-width="1px"></line><line x1="440.32187500000003" y1="0" x2="440.32187500000003" y2="5" style="visibility: inherit;" fill="rgb(0, 0, 0)" stroke="rgb(204, 204, 204)" stroke-width="1px"></line><line x1="503.22499999999997" y1="0" x2="503.22499999999997" y2="5" style="visibility: inherit;" fill="rgb(0, 0, 0)" stroke="rgb(204, 204, 204)" stroke-width="1px"></line><line x1="566.128125" y1="0" x2="566.128125" y2="5" style="visibility: inherit;" fill="rgb(0, 0, 0)" stroke="rgb(204, 204, 204)" stroke-width="1px"></line><line x1="629.03125" y1="0" x2="629.03125" y2="5" style="visibility: inherit;" fill="rgb(0, 0, 0)" stroke="rgb(204, 204, 204)" stroke-width="1px"></line><line x1="691.9343749999999" y1="0" x2="691.9343749999999" y2="5" style="visibility: inherit;" fill="rgb(0, 0, 0)" stroke="rgb(204, 204, 204)" stroke-width="1px"></line><line x1="754.8375" y1="0" x2="754.8375" y2="5" style="visibility: inherit;" fill="rgb(0, 0, 0)" stroke="rgb(204, 204, 204)" stroke-width="1px"></line></g><g transform="translate(0, 8)"><text x="0" y="0" dx="0em" dy="0.95em" style="text-anchor: middle; visibility: hidden; font-family: Roboto, sans-serif; font-size: 12px; font-weight: 200;" fill="rgb(50, 49, 63)" stroke="none" stroke-width="1px">-5</text><text x="62.903124999999996" y="0" dx="0em" dy="0.95em" style="text-anchor: middle; visibility: inherit; font-family: Roboto, sans-serif; font-size: 12px; font-weight: 200;" fill="rgb(50, 49, 63)" stroke="none" stroke-width="1px">0</text><text x="125.80624999999999" y="0" dx="0em" dy="0.95em" style="text-anchor: middle; visibility: inherit; font-family: Roboto, sans-serif; font-size: 12px; font-weight: 200;" fill="rgb(50, 49, 63)" stroke="none" stroke-width="1px">5</text><text x="188.709375" y="0" dx="0em" dy="0.95em" style="text-anchor: middle; visibility: inherit; font-family: Roboto, sans-serif; font-size: 12px; font-weight: 200;" fill="rgb(50, 49, 63)" stroke="none" stroke-width="1px">10</text><text x="251.61249999999998" y="0" dx="0em" dy="0.95em" style="text-anchor: middle; visibility: inherit; font-family: Roboto, sans-serif; font-size: 12px; font-weight: 200;" fill="rgb(50, 49, 63)" stroke="none" stroke-width="1px">15</text><text x="314.515625" y="0" dx="0em" dy="0.95em" style="text-anchor: middle; visibility: inherit; font-family: Roboto, sans-serif; font-size: 12px; font-weight: 200;" fill="rgb(50, 49, 63)" stroke="none" stroke-width="1px">20</text><text x="377.41875" y="0" dx="0em" dy="0.95em" style="text-anchor: middle; visibility: inherit; font-family: Roboto, sans-serif; font-size: 12px; font-weight: 200;" fill="rgb(50, 49, 63)" stroke="none" stroke-width="1px">25</text><text x="440.32187500000003" y="0" dx="0em" dy="0.95em" style="text-anchor: middle; visibility: inherit; font-family: Roboto, sans-serif; font-size: 12px; font-weight: 200;" fill="rgb(50, 49, 63)" stroke="none" stroke-width="1px">30</text><text x="503.22499999999997" y="0" dx="0em" dy="0.95em" style="text-anchor: middle; visibility: inherit; font-family: Roboto, sans-serif; font-size: 12px; font-weight: 200;" fill="rgb(50, 49, 63)" stroke="none" stroke-width="1px">35</text><text x="566.128125" y="0" dx="0em" dy="0.95em" style="text-anchor: middle; visibility: inherit; font-family: Roboto, sans-serif; font-size: 12px; font-weight: 200;" fill="rgb(50, 49, 63)" stroke="none" stroke-width="1px">40</text><text x="629.03125" y="0" dx="0em" dy="0.95em" style="text-anchor: middle; visibility: inherit; font-family: Roboto, sans-serif; font-size: 12px; font-weight: 200;" fill="rgb(50, 49, 63)" stroke="none" stroke-width="1px">45</text><text x="691.9343749999999" y="0" dx="0em" dy="0.95em" style="text-anchor: middle; visibility: inherit; font-family: Roboto, sans-serif; font-size: 12px; font-weight: 200;" fill="rgb(50, 49, 63)" stroke="none" stroke-width="1px">50</text><text x="754.8375" y="0" dx="0em" dy="0.95em" style="text-anchor: middle; visibility: hidden; font-family: Roboto, sans-serif; font-size: 12px; font-weight: 200;" fill="rgb(50, 49, 63)" stroke="none" stroke-width="1px">55</text></g><line x1="0" y1="0" x2="754.8375" y2="0" fill="rgb(0, 0, 0)" stroke="rgb(204, 204, 204)" stroke-width="1px"></line></g></g></g></g></svg>