<svg viewBox="0 0 826.7999877929688 400" xmlns="http://www.w3.org/2000/svg"><g><g><g><g><g><line x1="51.5625" y1="378" x2="46.5625" y2="378" style="visibility: inherit;" fill="rgb(0, 0, 0)" stroke="rgb(204, 204, 204)" stroke-width="1px"></line><line x1="51.5625" y1="336" x2="46.5625" y2="336" style="visibility: inherit;" fill="rgb(0, 0, 0)" stroke="rgb(204, 204, 204)" stroke-width="1px"></line><line x1="51.5625" y1="294" x2="46.5625" y2="294" style="visibility: inherit;" fill="rgb(0, 0, 0)" stroke="rgb(204, 204, 204)" stroke-width="1px"></line><line x1="51.5625" y1="252.00000000000003" x2="46.5625" y2="252.00000000000003" style="visibility: inherit;" fill="rgb(0, 0, 0)" stroke="rgb(204, 204, 204)" stroke-width="1px"></line><line x1="51.5625" y1="210" x2="46.5625" y2="210" style="visibility: inherit;" fill="rgb(0, 0, 0)" stroke="rgb(204, 204, 204)" stroke-width="1px"></line><line x1="51.5625" y1="168" x2="46.5625" y2="168" style="visibility: inherit;" fill="rgb(0, 0, 0)" stroke="rgb(204, 204, 204)" stroke-width="1px"></line><line x1="51.5625" y1="126.00000000000001" x2="46.5625" y2="126.00000000000001" style="visibility: inherit;" fill="rgb(0, 0, 0)" stroke="rgb(204, 204, 204)" stroke-width="1px"></line><line x1="51.5625" y1="84" x2="46.5625" y2="84" style="visibility: inherit;" fill="rgb(0, 0, 0)" stroke="rgb(204, 204, 204)" stroke-width="1px"></line><line x1="51.5625" y1="42.00000000000002" x2="46.5625" y2="42.00000000000002" style="visibility: inherit;" fill="rgb(0, 0, 0)" stroke="rgb(204, 204, 204)" stroke-width="1px"></line><line x1="51.5625" y1="0" x2="46.5625" y2="0" style="visibility: inherit;" fill="rgb(0, 0, 0)" stroke="rgb(204, 204, 204)" stroke-width="1px"></line></g><g transform="translate(41.5625, 0)"><text x="0" y="378" dx="0em" dy="0.3em" style="text-anchor: end; visibility: hidden; font-family: Roboto, sans-serif; font-size: 12px; font-weight: 200;" fill="rgb(50, 49, 63)" stroke="none" stroke-width="1px">0.82</text><text x="0" y="336" dx="0em" dy="0.3em" style="text-anchor: end; visibility: inherit; font-family: Roboto, sans-serif; font-size: 12px; font-weight: 200;" fill="rgb(50, 49, 63)" stroke="none" stroke-width="1px">0.83</text><text x="0" y="294" dx="0em" dy="0.3em" style="text-anchor: end; visibility: inherit; font-family: Roboto, sans-serif; font-size: 12px; font-weight: 200;" fill="rgb(50, 49, 63)" stroke="none" stroke-width="1px">0.84</text><text x="0" y="252.00000000000003" dx="0em" dy="0.3em" style="text-anchor: end; visibility: inherit; font-family: Roboto, sans-serif; font-size: 12px; font-weight: 200;" fill="rgb(50, 49, 63)" stroke="none" stroke-width="1px">0.85</text><text x="0" y="210" dx="0em" dy="0.3em" style="text-anchor: end; visibility: inherit; font-family: Roboto, sans-serif; font-size: 12px; font-weight: 200;" fill="rgb(50, 49, 63)" stroke="none" stroke-width="1px">0.86</text><text x="0" y="168" dx="0em" dy="0.3em" style="text-anchor: end; visibility: inherit; font-family: Roboto, sans-serif; font-size: 12px; font-weight: 200;" fill="rgb(50, 49, 63)" stroke="none" stroke-width="1px">0.87</text><text x="0" y="126.00000000000001" dx="0em" dy="0.3em" style="text-anchor: end; visibility: inherit; font-family: Roboto, sans-serif; font-size: 12px; font-weight: 200;" fill="rgb(50, 49, 63)" stroke="none" stroke-width="1px">0.88</text><text x="0" y="84" dx="0em" dy="0.3em" style="text-anchor: end; visibility: inherit; font-family: Roboto, sans-serif; font-size: 12px; font-weight: 200;" fill="rgb(50, 49, 63)" stroke="none" stroke-width="1px">0.89</text><text x="0" y="42.00000000000002" dx="0em" dy="0.3em" style="text-anchor: end; visibility: inherit; font-family: Roboto, sans-serif; font-size: 12px; font-weight: 200;" fill="rgb(50, 49, 63)" stroke="none" stroke-width="1px">0.9</text><text x="0" y="0" dx="0em" dy="0.3em" style="text-anchor: end; visibility: hidden; font-family: Roboto, sans-serif; font-size: 12px; font-weight: 200;" fill="rgb(50, 49, 63)" stroke="none" stroke-width="1px">0.91</text></g><line x1="51.5625" y1="0" x2="51.5625" y2="378" fill="rgb(0, 0, 0)" stroke="rgb(204, 204, 204)" stroke-width="1px"></line></g></g><g transform="translate(51, 0)" clip-path="url(#clip_0)"><clipPath id="clip_0"><rect width="775" height="378"></rect></clipPath><g><g><g><line x1="0" y1="0" x2="0" y2="378" fill="rgb(0, 0, 0)" stroke="rgb(60, 60, 60)" stroke-width="1px" opacity="0.25"></line><line x1="64.60312499999999" y1="0" x2="64.60312499999999" y2="378" fill="rgb(0, 0, 0)" stroke="rgb(60, 60, 60)" stroke-width="1px" opacity="0.25"></line><line x1="129.20624999999998" y1="0" x2="129.20624999999998" y2="378" fill="rgb(0, 0, 0)" stroke="rgb(60, 60, 60)" stroke-width="1px" opacity="0.25"></line><line x1="193.809375" y1="0" x2="193.809375" y2="378" fill="rgb(0, 0, 0)" stroke="rgb(60, 60, 60)" stroke-width="1px" opacity="0.25"></line><line x1="258.41249999999997" y1="0" x2="258.41249999999997" y2="378" fill="rgb(0, 0, 0)" stroke="rgb(60, 60, 60)" stroke-width="1px" opacity="0.25"></line><line x1="323.015625" y1="0" x2="323.015625" y2="378" fill="rgb(0, 0, 0)" stroke="rgb(60, 60, 60)" stroke-width="1px" opacity="0.25"></line><line x1="387.61875" y1="0" x2="387.61875" y2="378" fill="rgb(0, 0, 0)" stroke="rgb(60, 60, 60)" stroke-width="1px" opacity="0.25"></line><line x1="452.221875" y1="0" x2="452.221875" y2="378" fill="rgb(0, 0, 0)" stroke="rgb(60, 60, 60)" stroke-width="1px" opacity="0.25"></line><line x1="516.8249999999999" y1="0" x2="516.8249999999999" y2="378" fill="rgb(0, 0, 0)" stroke="rgb(60, 60, 60)" stroke-width="1px" opacity="0.25"></line><line x1="581.4281249999999" y1="0" x2="581.4281249999999" y2="378" fill="rgb(0, 0, 0)" stroke="rgb(60, 60, 60)" stroke-width="1px" opacity="0.25"></line><line x1="646.03125" y1="0" x2="646.03125" y2="378" fill="rgb(0, 0, 0)" stroke="rgb(60, 60, 60)" stroke-width="1px" opacity="0.25"></line><line x1="710.634375" y1="0" x2="710.634375" y2="378" fill="rgb(0, 0, 0)" stroke="rgb(60, 60, 60)" stroke-width="1px" opacity="0.25"></line><line x1="775.2375" y1="0" x2="775.2375" y2="378" fill="rgb(0, 0, 0)" stroke="rgb(60, 60, 60)" stroke-width="1px" opacity="0.25"></line></g><g><line x1="0" y1="378" x2="775.2375" y2="378" fill="rgb(0, 0, 0)" stroke="rgb(60, 60, 60)" stroke-width="1px" opacity="0.25"></line><line x1="0" y1="336" x2="775.2375" y2="336" fill="rgb(0, 0, 0)" stroke="rgb(60, 60, 60)" stroke-width="1px" opacity="0.25"></line><line x1="0" y1="294" x2="775.2375" y2="294" fill="rgb(0, 0, 0)" stroke="rgb(60, 60, 60)" stroke-width="1px" opacity="0.25"></line><line x1="0" y1="252.00000000000003" x2="775.2375" y2="252.00000000000003" fill="rgb(0, 0, 0)" stroke="rgb(60, 60, 60)" stroke-width="1px" opacity="0.25"></line><line x1="0" y1="210" x2="775.2375" y2="210" fill="rgb(0, 0, 0)" stroke="rgb(60, 60, 60)" stroke-width="1px" opacity="0.25"></line><line x1="0" y1="168" x2="775.2375" y2="168" fill="rgb(0, 0, 0)" stroke="rgb(60, 60, 60)" stroke-width="1px" opacity="0.25"></line><line x1="0" y1="126.00000000000001" x2="775.2375" y2="126.00000000000001" fill="rgb(0, 0, 0)" stroke="rgb(60, 60, 60)" stroke-width="1px" opacity="0.25"></line><line x1="0" y1="84" x2="775.2375" y2="84" fill="rgb(0, 0, 0)" stroke="rgb(60, 60, 60)" stroke-width="1px" opacity="0.25"></line><line x1="0" y1="42.00000000000002" x2="775.2375" y2="42.00000000000002" fill="rgb(0, 0, 0)" stroke="rgb(60, 60, 60)" stroke-width="1px" opacity="0.25"></line><line x1="0" y1="0" x2="775.2375" y2="0" fill="rgb(0, 0, 0)" stroke="rgb(60, 60, 60)" stroke-width="1px" opacity="0.25"></line></g></g></g><g><g><line x1="0" y1="3821.9999999999964" x2="775.2375" y2="3821.9999999999964" fill="rgb(0, 0, 0)" stroke="rgb(153, 153, 153)" stroke-width="1.5px"></line></g></g><g><g><line x1="64.60312499999999" y1="0" x2="64.60312499999999" y2="378" fill="rgb(0, 0, 0)" stroke="rgb(153, 153, 153)" stroke-width="1.5px"></line></g></g><g><g><g><g><g><path stroke="rgb(204, 51, 17)" stroke-width="2px" d="M129.20624999999998,411.2764091491697L142.12687499999998,322.72882175445545L155.0475,312.89022874832136L167.968125,296.4924902915953L180.88875,257.13786792755116L193.809375,261.5105481147765L206.73,259.32433319091786L219.650625,253.85842037200922L232.57124999999996,246.2060422897338L245.49187499999996,248.39250755310053L258.41249999999997,254.9516530036925L271.33312499999994,239.64714717864982L284.25374999999997,251.6719551086425L297.174375,244.01982736587513L310.095,242.92659473419184L323.015625,245.1130599975585L335.93625,246.2060422897338L348.856875,246.2060422897338L361.7775,240.74012947082514L374.698125,242.92659473419184L387.61875,244.01982736587513L400.539375,242.92659473419184L413.46,240.74012947082514L426.380625,244.01982736587513L439.30125,241.83336210250843L452.221875,241.83336210250843L465.1424999999999,242.92659473419184L478.063125,242.92659473419184L490.98374999999993,242.92659473419184L503.904375,242.92659473419184L516.8249999999999,242.92659473419184L529.745625,242.92659473419184L542.6662499999999,242.92659473419184L555.586875,242.92659473419184L568.5074999999999,242.92659473419184L581.4281249999999,242.92659473419184L594.34875,242.92659473419184L607.269375,242.92659473419184L620.19,242.92659473419184L633.1106249999999,242.92659473419184L646.03125,242.92659473419184L658.951875,242.92659473419184L671.8725,242.92659473419184L684.7931249999999,242.92659473419184L697.71375,242.92659473419184" style="fill: none;" fill="none"></path></g><g><path stroke="rgb(51, 187, 238)" stroke-width="2px" d="M64.60312499999999,346.7786879539488L77.52375,247.29927492141712L90.444375,160.93815279006958L103.365,137.98126888275146L116.28562499999998,131.42212343215942L129.20624999999998,123.76999568939212L142.12687499999998,123.76999568939212L155.0475,132.51535606384277L167.968125,127.04944324493408L180.88875,119.3970651626587L193.809375,112.83817005157474L206.73,102.9995770454407L219.650625,98.62664651870732L232.57124999999996,95.34719896316533L245.49187499999996,99.71987915039067L258.41249999999997,101.90634441375735L271.33312499999994,98.62664651870732L284.25374999999997,102.9995770454407L297.174375,99.71987915039067L310.095,97.53366422653201L323.015625,99.71987915039067L335.93625,98.62664651870732L348.856875,96.44043159484866L361.7775,97.53366422653201L374.698125,95.34719896316533L387.61875,97.53366422653201L400.539375,95.34719896316533L413.46,95.34719896316533L426.380625,95.34719896316533L439.30125,97.53366422653201L452.221875,95.34719896316533L465.1424999999999,95.34719896316533L478.063125,95.34719896316533L490.98374999999993,95.34719896316533L503.904375,95.34719896316533L516.8249999999999,95.34719896316533L529.745625,95.34719896316533L542.6662499999999,95.34719896316533L555.586875,95.34719896316533L568.5074999999999,95.34719896316533L581.4281249999999,95.34719896316533L594.34875,95.34719896316533L607.269375,95.34719896316533L620.19,95.34719896316533L633.1106249999999,95.34719896316533L646.03125,95.34719896316533L658.951875,95.34719896316533L671.8725,95.34719896316533L684.7931249999999,95.34719896316533L697.71375,95.34719896316533" style="fill: none;" fill="none"></path></g><g><path stroke="rgb(0, 153, 136)" stroke-width="2px" d="M64.60312499999999,327.10150194168074L77.52375,260.4175658226012L90.444375,224.34264135360715L103.365,104.09255933761601L116.28562499999998,96.44043159484866L129.20624999999998,69.11086750030525L142.12687499999998,63.644954681396555L155.0475,54.899594306945865L167.968125,50.52691411972056L180.88875,59.272274494171214L193.809375,52.71312904357917L206.73,58.179041862487864L219.650625,55.992826938629214L232.57124999999996,53.80636167526252L245.49187499999996,51.61989641189583L258.41249999999997,49.433681488037216L271.33312499999994,51.61989641189583L284.25374999999997,52.71312904357917L297.174375,52.71312904357917L310.095,53.80636167526252L323.015625,51.61989641189583L335.93625,52.71312904357917L348.856875,50.52691411972056L361.7775,49.433681488037216L374.698125,52.71312904357917L387.61875,51.61989641189583L400.539375,51.61989641189583L413.46,52.71312904357917L426.380625,51.61989641189583L439.30125,51.61989641189583L452.221875,52.71312904357917L465.1424999999999,51.61989641189583L478.063125,51.61989641189583L490.98374999999993,51.61989641189583L503.904375,51.61989641189583L516.8249999999999,51.61989641189583L529.745625,51.61989641189583L542.6662499999999,50.52691411972056L555.586875,51.61989641189583L568.5074999999999,51.61989641189583L581.4281249999999,51.61989641189583L594.34875,50.52691411972056L607.269375,51.61989641189583L620.19,51.61989641189583L633.1106249999999,51.61989641189583L646.03125,51.61989641189583L658.951875,51.61989641189583L671.8725,51.61989641189583L684.7931249999999,51.61989641189583L697.71375,51.61989641189583" style="fill: none;" fill="none"></path></g><g><path stroke="rgb(255, 112, 67)" stroke-width="2px" d="M64.60312499999999,331.4741821289061L77.52375,234.18123435974113L90.444375,144.5404143333435L103.365,181.70857143402097L116.28562499999998,104.09255933761601L129.20624999999998,115.02438497543339L142.12687499999998,92.06775140762332L155.0475,104.09255933761601L167.968125,98.62664651870732L180.88875,83.3221406936646L193.809375,97.53366422653201L206.73,82.22915840148933L219.650625,78.9494605064393L232.57124999999996,87.69507122039802L245.49187499999996,83.3221406936646L258.41249999999997,80.04269313812263L271.33312499999994,82.22915840148933L284.25374999999997,88.78805351257328L297.174375,88.78805351257328L310.095,84.41537332534794L323.015625,89.88128614425663L335.93625,90.97451877593997L348.856875,93.16073369979863L361.7775,86.60183858871467L374.698125,86.60183858871467L387.61875,86.60183858871467L400.539375,84.41537332534794L413.46,84.41537332534794L426.380625,83.3221406936646L439.30125,83.3221406936646L452.221875,83.3221406936646L465.1424999999999,84.41537332534794L478.063125,85.50860595703132L490.98374999999993,84.41537332534794L503.904375,84.41537332534794L516.8249999999999,84.41537332534794L529.745625,82.22915840148933L542.6662499999999,82.22915840148933L555.586875,83.3221406936646L568.5074999999999,82.22915840148933L581.4281249999999,82.22915840148933L594.34875,82.22915840148933L607.269375,82.22915840148933L620.19,82.22915840148933L633.1106249999999,82.22915840148933L646.03125,82.22915840148933L658.951875,82.22915840148933L671.8725,82.22915840148933L684.7931249999999,82.22915840148933L697.71375,82.22915840148933" style="fill: none;" fill="none"></path></g><g><path stroke="rgb(0, 119, 187)" stroke-width="2px" d="M64.60312499999999,489.9854035377499L77.52375,297.58572292327864L90.444375,250.5789728164672L103.365,213.41081571578977L116.28562499999998,187.17448425292966L129.20624999999998,148.91309452056885L142.12687499999998,150.0063271522522L155.0475,141.26071643829346L167.968125,123.76999568939212L180.88875,135.79480361938477L193.809375,123.76999568939212L206.73,129.2359085083008L219.650625,116.11761760711674L232.57124999999996,115.02438497543339L245.49187499999996,112.83817005157474L258.41249999999997,106.27902460098271L271.33312499999994,119.3970651626587L284.25374999999997,108.4654898643494L297.174375,108.4654898643494L310.095,105.18579196929936L323.015625,110.65170478820805L335.93625,108.4654898643494L348.856875,109.5584721565247L361.7775,108.4654898643494L374.698125,108.4654898643494L387.61875,109.5584721565247L400.539375,109.5584721565247L413.46,109.5584721565247L426.380625,108.4654898643494L439.30125,108.4654898643494L452.221875,108.4654898643494L465.1424999999999,108.4654898643494L478.063125,109.5584721565247L490.98374999999993,109.5584721565247L503.904375,109.5584721565247L516.8249999999999,108.4654898643494L529.745625,108.4654898643494L542.6662499999999,108.4654898643494L555.586875,108.4654898643494L568.5074999999999,108.4654898643494L581.4281249999999,108.4654898643494L594.34875,108.4654898643494L607.269375,108.4654898643494L620.19,108.4654898643494L633.1106249999999,108.4654898643494L646.03125,108.4654898643494L658.951875,108.4654898643494L671.8725,108.4654898643494L684.7931249999999,108.4654898643494L697.71375,108.4654898643494" style="fill: none;" fill="none"></path></g></g></g></g></g></g><g transform="translate(51, 378)" clip-path="url(#clip_1)"><clipPath id="clip_1"><rect width="775" height="22"></rect></clipPath><g><g><line x1="0" y1="0" x2="0" y2="5" style="visibility: inherit;" fill="rgb(0, 0, 0)" stroke="rgb(204, 204, 204)" stroke-width="1px"></line><line x1="64.60312499999999" y1="0" x2="64.60312499999999" y2="5" style="visibility: inherit;" fill="rgb(0, 0, 0)" stroke="rgb(204, 204, 204)" stroke-width="1px"></line><line x1="129.20624999999998" y1="0" x2="129.20624999999998" y2="5" style="visibility: inherit;" fill="rgb(0, 0, 0)" stroke="rgb(204, 204, 204)" stroke-width="1px"></line><line x1="193.809375" y1="0" x2="193.809375" y2="5" style="visibility: inherit;" fill="rgb(0, 0, 0)" stroke="rgb(204, 204, 204)" stroke-width="1px"></line><line x1="258.41249999999997" y1="0" x2="258.41249999999997" y2="5" style="visibility: inherit;" fill="rgb(0, 0, 0)" stroke="rgb(204, 204, 204)" stroke-width="1px"></line><line x1="323.015625" y1="0" x2="323.015625" y2="5" style="visibility: inherit;" fill="rgb(0, 0, 0)" stroke="rgb(204, 204, 204)" stroke-width="1px"></line><line x1="387.61875" y1="0" x2="387.61875" y2="5" style="visibility: inherit;" fill="rgb(0, 0, 0)" stroke="rgb(204, 204, 204)" stroke-width="1px"></line><line x1="452.221875" y1="0" x2="452.221875" y2="5" style="visibility: inherit;" fill="rgb(0, 0, 0)" stroke="rgb(204, 204, 204)" stroke-width="1px"></line><line x1="516.8249999999999" y1="0" x2="516.8249999999999" y2="5" style="visibility: inherit;" fill="rgb(0, 0, 0)" stroke="rgb(204, 204, 204)" stroke-width="1px"></line><line x1="581.4281249999999" y1="0" x2="581.4281249999999" y2="5" style="visibility: inherit;" fill="rgb(0, 0, 0)" stroke="rgb(204, 204, 204)" stroke-width="1px"></line><line x1="646.03125" y1="0" x2="646.03125" y2="5" style="visibility: inherit;" fill="rgb(0, 0, 0)" stroke="rgb(204, 204, 204)" stroke-width="1px"></line><line x1="710.634375" y1="0" x2="710.634375" y2="5" style="visibility: inherit;" fill="rgb(0, 0, 0)" stroke="rgb(204, 204, 204)" stroke-width="1px"></line><line x1="775.2375" y1="0" x2="775.2375" y2="5" style="visibility: inherit;" fill="rgb(0, 0, 0)" stroke="rgb(204, 204, 204)" stroke-width="1px"></line></g><g transform="translate(0, 8)"><text x="0" y="0" dx="0em" dy="0.95em" style="text-anchor: middle; visibility: hidden; font-family: Roboto, sans-serif; font-size: 12px; font-weight: 200;" fill="rgb(50, 49, 63)" stroke="none" stroke-width="1px">-5</text><text x="64.60312499999999" y="0" dx="0em" dy="0.95em" style="text-anchor: middle; visibility: inherit; font-family: Roboto, sans-serif; font-size: 12px; font-weight: 200;" fill="rgb(50, 49, 63)" stroke="none" stroke-width="1px">0</text><text x="129.20624999999998" y="0" dx="0em" dy="0.95em" style="text-anchor: middle; visibility: inherit; font-family: Roboto, sans-serif; font-size: 12px; font-weight: 200;" fill="rgb(50, 49, 63)" stroke="none" stroke-width="1px">5</text><text x="193.809375" y="0" dx="0em" dy="0.95em" style="text-anchor: middle; visibility: inherit; font-family: Roboto, sans-serif; font-size: 12px; font-weight: 200;" fill="rgb(50, 49, 63)" stroke="none" stroke-width="1px">10</text><text x="258.41249999999997" y="0" dx="0em" dy="0.95em" style="text-anchor: middle; visibility: inherit; font-family: Roboto, sans-serif; font-size: 12px; font-weight: 200;" fill="rgb(50, 49, 63)" stroke="none" stroke-width="1px">15</text><text x="323.015625" y="0" dx="0em" dy="0.95em" style="text-anchor: middle; visibility: inherit; font-family: Roboto, sans-serif; font-size: 12px; font-weight: 200;" fill="rgb(50, 49, 63)" stroke="none" stroke-width="1px">20</text><text x="387.61875" y="0" dx="0em" dy="0.95em" style="text-anchor: middle; visibility: inherit; font-family: Roboto, sans-serif; font-size: 12px; font-weight: 200;" fill="rgb(50, 49, 63)" stroke="none" stroke-width="1px">25</text><text x="452.221875" y="0" dx="0em" dy="0.95em" style="text-anchor: middle; visibility: inherit; font-family: Roboto, sans-serif; font-size: 12px; font-weight: 200;" fill="rgb(50, 49, 63)" stroke="none" stroke-width="1px">30</text><text x="516.8249999999999" y="0" dx="0em" dy="0.95em" style="text-anchor: middle; visibility: inherit; font-family: Roboto, sans-serif; font-size: 12px; font-weight: 200;" fill="rgb(50, 49, 63)" stroke="none" stroke-width="1px">35</text><text x="581.4281249999999" y="0" dx="0em" dy="0.95em" style="text-anchor: middle; visibility: inherit; font-family: Roboto, sans-serif; font-size: 12px; font-weight: 200;" fill="rgb(50, 49, 63)" stroke="none" stroke-width="1px">40</text><text x="646.03125" y="0" dx="0em" dy="0.95em" style="text-anchor: middle; visibility: inherit; font-family: Roboto, sans-serif; font-size: 12px; font-weight: 200;" fill="rgb(50, 49, 63)" stroke="none" stroke-width="1px">45</text><text x="710.634375" y="0" dx="0em" dy="0.95em" style="text-anchor: middle; visibility: inherit; font-family: Roboto, sans-serif; font-size: 12px; font-weight: 200;" fill="rgb(50, 49, 63)" stroke="none" stroke-width="1px">50</text><text x="775.2375" y="0" dx="0em" dy="0.95em" style="text-anchor: middle; visibility: hidden; font-family: Roboto, sans-serif; font-size: 12px; font-weight: 200;" fill="rgb(50, 49, 63)" stroke="none" stroke-width="1px">55</text></g><line x1="0" y1="0" x2="775.2375" y2="0" fill="rgb(0, 0, 0)" stroke="rgb(204, 204, 204)" stroke-width="1px"></line></g></g></g></g></svg>