<svg viewBox="0 0 816.6000366210938 400" xmlns="http://www.w3.org/2000/svg"><g><g><g><g><g><line x1="61.953125" y1="378" x2="56.953125" y2="378" style="visibility: inherit;" fill="rgb(0, 0, 0)" stroke="rgb(204, 204, 204)" stroke-width="1px"></line><line x1="61.953125" y1="340.2" x2="56.953125" y2="340.2" style="visibility: inherit;" fill="rgb(0, 0, 0)" stroke="rgb(204, 204, 204)" stroke-width="1px"></line><line x1="61.953125" y1="302.40000000000003" x2="56.953125" y2="302.40000000000003" style="visibility: inherit;" fill="rgb(0, 0, 0)" stroke="rgb(204, 204, 204)" stroke-width="1px"></line><line x1="61.953125" y1="264.59999999999997" x2="56.953125" y2="264.59999999999997" style="visibility: inherit;" fill="rgb(0, 0, 0)" stroke="rgb(204, 204, 204)" stroke-width="1px"></line><line x1="61.953125" y1="226.79999999999998" x2="56.953125" y2="226.79999999999998" style="visibility: inherit;" fill="rgb(0, 0, 0)" stroke="rgb(204, 204, 204)" stroke-width="1px"></line><line x1="61.953125" y1="189" x2="56.953125" y2="189" style="visibility: inherit;" fill="rgb(0, 0, 0)" stroke="rgb(204, 204, 204)" stroke-width="1px"></line><line x1="61.953125" y1="151.20000000000002" x2="56.953125" y2="151.20000000000002" style="visibility: inherit;" fill="rgb(0, 0, 0)" stroke="rgb(204, 204, 204)" stroke-width="1px"></line><line x1="61.953125" y1="113.40000000000002" x2="56.953125" y2="113.40000000000002" style="visibility: inherit;" fill="rgb(0, 0, 0)" stroke="rgb(204, 204, 204)" stroke-width="1px"></line><line x1="61.953125" y1="75.59999999999998" x2="56.953125" y2="75.59999999999998" style="visibility: inherit;" fill="rgb(0, 0, 0)" stroke="rgb(204, 204, 204)" stroke-width="1px"></line><line x1="61.953125" y1="37.79999999999999" x2="56.953125" y2="37.79999999999999" style="visibility: inherit;" fill="rgb(0, 0, 0)" stroke="rgb(204, 204, 204)" stroke-width="1px"></line><line x1="61.953125" y1="0" x2="56.953125" y2="0" style="visibility: inherit;" fill="rgb(0, 0, 0)" stroke="rgb(204, 204, 204)" stroke-width="1px"></line></g><g transform="translate(51.953125, 0)"><text x="0" y="378" dx="0em" dy="0.3em" style="text-anchor: end; visibility: hidden; font-family: Roboto, sans-serif; font-size: 12px; font-weight: 200;" fill="rgb(50, 49, 63)" stroke="none" stroke-width="1px">0.845</text><text x="0" y="340.2" dx="0em" dy="0.3em" style="text-anchor: end; visibility: inherit; font-family: Roboto, sans-serif; font-size: 12px; font-weight: 200;" fill="rgb(50, 49, 63)" stroke="none" stroke-width="1px">0.85</text><text x="0" y="302.40000000000003" dx="0em" dy="0.3em" style="text-anchor: end; visibility: inherit; font-family: Roboto, sans-serif; font-size: 12px; font-weight: 200;" fill="rgb(50, 49, 63)" stroke="none" stroke-width="1px">0.855</text><text x="0" y="264.59999999999997" dx="0em" dy="0.3em" style="text-anchor: end; visibility: inherit; font-family: Roboto, sans-serif; font-size: 12px; font-weight: 200;" fill="rgb(50, 49, 63)" stroke="none" stroke-width="1px">0.86</text><text x="0" y="226.79999999999998" dx="0em" dy="0.3em" style="text-anchor: end; visibility: inherit; font-family: Roboto, sans-serif; font-size: 12px; font-weight: 200;" fill="rgb(50, 49, 63)" stroke="none" stroke-width="1px">0.865</text><text x="0" y="189" dx="0em" dy="0.3em" style="text-anchor: end; visibility: inherit; font-family: Roboto, sans-serif; font-size: 12px; font-weight: 200;" fill="rgb(50, 49, 63)" stroke="none" stroke-width="1px">0.87</text><text x="0" y="151.20000000000002" dx="0em" dy="0.3em" style="text-anchor: end; visibility: inherit; font-family: Roboto, sans-serif; font-size: 12px; font-weight: 200;" fill="rgb(50, 49, 63)" stroke="none" stroke-width="1px">0.875</text><text x="0" y="113.40000000000002" dx="0em" dy="0.3em" style="text-anchor: end; visibility: inherit; font-family: Roboto, sans-serif; font-size: 12px; font-weight: 200;" fill="rgb(50, 49, 63)" stroke="none" stroke-width="1px">0.88</text><text x="0" y="75.59999999999998" dx="0em" dy="0.3em" style="text-anchor: end; visibility: inherit; font-family: Roboto, sans-serif; font-size: 12px; font-weight: 200;" fill="rgb(50, 49, 63)" stroke="none" stroke-width="1px">0.885</text><text x="0" y="37.79999999999999" dx="0em" dy="0.3em" style="text-anchor: end; visibility: inherit; font-family: Roboto, sans-serif; font-size: 12px; font-weight: 200;" fill="rgb(50, 49, 63)" stroke="none" stroke-width="1px">0.89</text><text x="0" y="0" dx="0em" dy="0.3em" style="text-anchor: end; visibility: hidden; font-family: Roboto, sans-serif; font-size: 12px; font-weight: 200;" fill="rgb(50, 49, 63)" stroke="none" stroke-width="1px">0.895</text></g><line x1="61.953125" y1="0" x2="61.953125" y2="378" fill="rgb(0, 0, 0)" stroke="rgb(204, 204, 204)" stroke-width="1px"></line></g></g><g transform="translate(61, 0)" clip-path="url(#clip_0)"><clipPath id="clip_0"><rect width="754" height="378"></rect></clipPath><g><g><g><line x1="0" y1="0" x2="0" y2="378" fill="rgb(0, 0, 0)" stroke="rgb(60, 60, 60)" stroke-width="1px" opacity="0.25"></line><line x1="62.88723958333333" y1="0" x2="62.88723958333333" y2="378" fill="rgb(0, 0, 0)" stroke="rgb(60, 60, 60)" stroke-width="1px" opacity="0.25"></line><line x1="125.77447916666667" y1="0" x2="125.77447916666667" y2="378" fill="rgb(0, 0, 0)" stroke="rgb(60, 60, 60)" stroke-width="1px" opacity="0.25"></line><line x1="188.66171875" y1="0" x2="188.66171875" y2="378" fill="rgb(0, 0, 0)" stroke="rgb(60, 60, 60)" stroke-width="1px" opacity="0.25"></line><line x1="251.54895833333333" y1="0" x2="251.54895833333333" y2="378" fill="rgb(0, 0, 0)" stroke="rgb(60, 60, 60)" stroke-width="1px" opacity="0.25"></line><line x1="314.4361979166667" y1="0" x2="314.4361979166667" y2="378" fill="rgb(0, 0, 0)" stroke="rgb(60, 60, 60)" stroke-width="1px" opacity="0.25"></line><line x1="377.3234375" y1="0" x2="377.3234375" y2="378" fill="rgb(0, 0, 0)" stroke="rgb(60, 60, 60)" stroke-width="1px" opacity="0.25"></line><line x1="440.2106770833334" y1="0" x2="440.2106770833334" y2="378" fill="rgb(0, 0, 0)" stroke="rgb(60, 60, 60)" stroke-width="1px" opacity="0.25"></line><line x1="503.09791666666666" y1="0" x2="503.09791666666666" y2="378" fill="rgb(0, 0, 0)" stroke="rgb(60, 60, 60)" stroke-width="1px" opacity="0.25"></line><line x1="565.98515625" y1="0" x2="565.98515625" y2="378" fill="rgb(0, 0, 0)" stroke="rgb(60, 60, 60)" stroke-width="1px" opacity="0.25"></line><line x1="628.8723958333334" y1="0" x2="628.8723958333334" y2="378" fill="rgb(0, 0, 0)" stroke="rgb(60, 60, 60)" stroke-width="1px" opacity="0.25"></line><line x1="691.7596354166667" y1="0" x2="691.7596354166667" y2="378" fill="rgb(0, 0, 0)" stroke="rgb(60, 60, 60)" stroke-width="1px" opacity="0.25"></line><line x1="754.646875" y1="0" x2="754.646875" y2="378" fill="rgb(0, 0, 0)" stroke="rgb(60, 60, 60)" stroke-width="1px" opacity="0.25"></line></g><g><line x1="0" y1="378" x2="754.646875" y2="378" fill="rgb(0, 0, 0)" stroke="rgb(60, 60, 60)" stroke-width="1px" opacity="0.25"></line><line x1="0" y1="340.2" x2="754.646875" y2="340.2" fill="rgb(0, 0, 0)" stroke="rgb(60, 60, 60)" stroke-width="1px" opacity="0.25"></line><line x1="0" y1="302.40000000000003" x2="754.646875" y2="302.40000000000003" fill="rgb(0, 0, 0)" stroke="rgb(60, 60, 60)" stroke-width="1px" opacity="0.25"></line><line x1="0" y1="264.59999999999997" x2="754.646875" y2="264.59999999999997" fill="rgb(0, 0, 0)" stroke="rgb(60, 60, 60)" stroke-width="1px" opacity="0.25"></line><line x1="0" y1="226.79999999999998" x2="754.646875" y2="226.79999999999998" fill="rgb(0, 0, 0)" stroke="rgb(60, 60, 60)" stroke-width="1px" opacity="0.25"></line><line x1="0" y1="189" x2="754.646875" y2="189" fill="rgb(0, 0, 0)" stroke="rgb(60, 60, 60)" stroke-width="1px" opacity="0.25"></line><line x1="0" y1="151.20000000000002" x2="754.646875" y2="151.20000000000002" fill="rgb(0, 0, 0)" stroke="rgb(60, 60, 60)" stroke-width="1px" opacity="0.25"></line><line x1="0" y1="113.40000000000002" x2="754.646875" y2="113.40000000000002" fill="rgb(0, 0, 0)" stroke="rgb(60, 60, 60)" stroke-width="1px" opacity="0.25"></line><line x1="0" y1="75.59999999999998" x2="754.646875" y2="75.59999999999998" fill="rgb(0, 0, 0)" stroke="rgb(60, 60, 60)" stroke-width="1px" opacity="0.25"></line><line x1="0" y1="37.79999999999999" x2="754.646875" y2="37.79999999999999" fill="rgb(0, 0, 0)" stroke="rgb(60, 60, 60)" stroke-width="1px" opacity="0.25"></line><line x1="0" y1="0" x2="754.646875" y2="0" fill="rgb(0, 0, 0)" stroke="rgb(60, 60, 60)" stroke-width="1px" opacity="0.25"></line></g></g></g><g><g><line x1="0" y1="6766.199999999994" x2="754.646875" y2="6766.199999999994" fill="rgb(0, 0, 0)" stroke="rgb(153, 153, 153)" stroke-width="1.5px"></line></g></g><g><g><line x1="62.88723958333333" y1="0" x2="62.88723958333333" y2="378" fill="rgb(0, 0, 0)" stroke="rgb(153, 153, 153)" stroke-width="1.5px"></line></g></g><g><g><g><g><g><path stroke="rgb(255, 112, 67)" stroke-width="2px" d="M62.88723958333333,585.5751454353328L75.46468750000001,376.996272754669L88.04213541666667,249.0943634033202L100.61958333333334,180.22386188507076L113.19703125,154.64357013702394L125.77447916666667,148.74056453704836L138.35192708333332,125.127640914917L150.92937500000002,105.45035476684575L163.50682291666666,91.67652482986455L176.08427083333333,107.41817350387578L188.66171875,103.48253602981572L201.23916666666668,71.99923868179326L213.81661458333335,83.80524988174443L226.3940625,87.74088735580449L238.97151041666666,77.90224428176884L251.54895833333333,75.93442554473882L264.12640625,79.87006301879887L276.70385416666664,66.09578247070321L289.28130208333334,64.12796373367318L301.85875000000004,60.192776870727634L314.4361979166667,66.09578247070321L327.0136458333333,60.192776870727634L339.59109375,56.257139396667576L352.16854166666667,54.289320659637546L364.74598958333337,54.289320659637546L377.3234375,54.289320659637546L389.9008854166667,54.289320659637546L402.47833333333335,52.32195253372202L415.05578125000005,58.224958133697605L427.6332291666667,52.32195253372202L440.2106770833334,56.257139396667576L452.788125,52.32195253372202L465.3655729166667,50.35413379669199L477.9430208333333,52.32195253372202L490.52046875,50.35413379669199L503.09791666666666,54.289320659637546L515.6753645833334,54.289320659637546L528.2528125,54.289320659637546L540.8302604166666,54.289320659637546L553.4077083333333,54.289320659637546L565.98515625,52.32195253372202L578.5626041666667,54.289320659637546L591.1400520833333,54.289320659637546L603.7175000000001,54.289320659637546L616.2949479166667,54.289320659637546L628.8723958333334,54.289320659637546L641.44984375,54.289320659637546L654.0272916666667,54.289320659637546L666.6047395833333,54.289320659637546L679.1821875,54.289320659637546" style="fill: none;" fill="none"></path></g><g><path stroke="rgb(0, 153, 136)" stroke-width="2px" d="M62.88723958333333,571.8013154983516L75.46468750000001,371.0932671546934L88.04213541666667,355.3516184806822L100.61958333333334,304.190584373474L113.19703125,251.06218214035022L125.77447916666667,258.93300647735583L138.35192708333332,219.57843418121334L150.92937500000002,213.67542858123775L163.50682291666666,186.12731809616085L176.08427083333333,195.9659611701965L188.66171875,199.90114803314205L201.23916666666668,199.90114803314205L213.81661458333335,170.38521881103512L226.3940625,178.25604314804073L238.97151041666666,172.35303754806515L251.54895833333333,168.4174000740051L264.12640625,172.35303754806515L276.70385416666664,150.70793266296388L289.28130208333334,154.64357013702394L301.85875000000004,148.74056453704836L314.4361979166667,142.83710832595827L327.0136458333333,150.70793266296388L339.59109375,148.74056453704836L352.16854166666667,146.77274580001833L364.74598958333337,146.77274580001833L377.3234375,148.74056453704836L389.9008854166667,146.77274580001833L402.47833333333335,146.77274580001833L415.05578125000005,146.77274580001833L427.6332291666667,146.77274580001833L440.2106770833334,146.77274580001833L452.788125,146.77274580001833L465.3655729166667,144.8049270629883L477.9430208333333,144.8049270629883L490.52046875,142.83710832595827L503.09791666666666,144.8049270629883L515.6753645833334,144.8049270629883L528.2528125,144.8049270629883L540.8302604166666,144.8049270629883L553.4077083333333,144.8049270629883L565.98515625,146.77274580001833L578.5626041666667,144.8049270629883L591.1400520833333,144.8049270629883L603.7175000000001,144.8049270629883L616.2949479166667,144.8049270629883L628.8723958333334,144.8049270629883L641.44984375,144.8049270629883L654.0272916666667,144.8049270629883L666.6047395833333,144.8049270629883L679.1821875,144.8049270629883" style="fill: none;" fill="none"></path></g><g><path stroke="rgb(51, 187, 238)" stroke-width="2px" d="M75.46468750000001,382.8997289657591L88.04213541666667,254.99736900329577L100.61958333333334,288.44893569946277L113.19703125,207.77197237014767L125.77447916666667,203.8367855072021L138.35192708333332,203.8367855072021L150.92937500000002,148.74056453704836L163.50682291666666,148.74056453704836L176.08427083333333,140.86928958892824L188.66171875,152.6757513999939L201.23916666666668,136.93410272598268L213.81661458333335,144.8049270629883L226.3940625,144.8049270629883L238.97151041666666,134.96628398895265L251.54895833333333,132.99846525192262L264.12640625,134.96628398895265L276.70385416666664,125.127640914917L289.28130208333334,136.93410272598268L301.85875000000004,136.93410272598268L314.4361979166667,134.96628398895265L327.0136458333333,136.93410272598268L339.59109375,134.96628398895265L352.16854166666667,134.96628398895265L364.74598958333337,138.9019214630127L377.3234375,140.86928958892824L389.9008854166667,136.93410272598268L402.47833333333335,138.9019214630127L415.05578125000005,134.96628398895265L427.6332291666667,134.96628398895265L440.2106770833334,136.93410272598268L452.788125,136.93410272598268L465.3655729166667,138.9019214630127L477.9430208333333,136.93410272598268L490.52046875,136.93410272598268L503.09791666666666,140.86928958892824L515.6753645833334,140.86928958892824L528.2528125,140.86928958892824L540.8302604166666,138.9019214630127L553.4077083333333,140.86928958892824L565.98515625,140.86928958892824L578.5626041666667,140.86928958892824L591.1400520833333,140.86928958892824L603.7175000000001,140.86928958892824L616.2949479166667,140.86928958892824L628.8723958333334,140.86928958892824L641.44984375,140.86928958892824L654.0272916666667,140.86928958892824L666.6047395833333,140.86928958892824L679.1821875,140.86928958892824" style="fill: none;" fill="none"></path></g><g><path stroke="rgb(0, 119, 187)" stroke-width="2px" d="M75.46468750000001,408.48002071380597L88.04213541666667,345.51297540664655L100.61958333333334,304.190584373474L113.19703125,276.6424738883971L125.77447916666667,241.22353906631463L138.35192708333332,170.38521881103512L150.92937500000002,156.61138887405397L163.50682291666666,156.61138887405397L176.08427083333333,152.6757513999939L188.66171875,125.127640914917L201.23916666666668,140.86928958892824L213.81661458333335,121.19200344085694L226.3940625,117.25681657791142L238.97151041666666,109.38599224090581L251.54895833333333,121.19200344085694L264.12640625,113.32117910385136L276.70385416666664,105.45035476684575L289.28130208333334,89.70870609283452L301.85875000000004,99.54734916687016L314.4361979166667,97.57953042984013L327.0136458333333,97.57953042984013L339.59109375,93.64389295578007L352.16854166666667,95.6117116928101L364.74598958333337,95.6117116928101L377.3234375,101.51471729278569L389.9008854166667,101.51471729278569L402.47833333333335,99.54734916687016L415.05578125000005,99.54734916687016L427.6332291666667,95.6117116928101L440.2106770833334,95.6117116928101L452.788125,93.64389295578007L465.3655729166667,95.6117116928101L477.9430208333333,97.57953042984013L490.52046875,97.57953042984013L503.09791666666666,97.57953042984013L515.6753645833334,97.57953042984013L528.2528125,97.57953042984013L540.8302604166666,97.57953042984013L553.4077083333333,99.54734916687016L565.98515625,99.54734916687016L578.5626041666667,99.54734916687016L591.1400520833333,97.57953042984013L603.7175000000001,97.57953042984013L616.2949479166667,97.57953042984013L628.8723958333334,97.57953042984013L641.44984375,97.57953042984013L654.0272916666667,97.57953042984013L666.6047395833333,97.57953042984013L679.1821875,97.57953042984013" style="fill: none;" fill="none"></path></g></g></g></g></g></g><g transform="translate(61, 378)" clip-path="url(#clip_1)"><clipPath id="clip_1"><rect width="754" height="22"></rect></clipPath><g><g><line x1="0" y1="0" x2="0" y2="5" style="visibility: inherit;" fill="rgb(0, 0, 0)" stroke="rgb(204, 204, 204)" stroke-width="1px"></line><line x1="62.88723958333333" y1="0" x2="62.88723958333333" y2="5" style="visibility: inherit;" fill="rgb(0, 0, 0)" stroke="rgb(204, 204, 204)" stroke-width="1px"></line><line x1="125.77447916666667" y1="0" x2="125.77447916666667" y2="5" style="visibility: inherit;" fill="rgb(0, 0, 0)" stroke="rgb(204, 204, 204)" stroke-width="1px"></line><line x1="188.66171875" y1="0" x2="188.66171875" y2="5" style="visibility: inherit;" fill="rgb(0, 0, 0)" stroke="rgb(204, 204, 204)" stroke-width="1px"></line><line x1="251.54895833333333" y1="0" x2="251.54895833333333" y2="5" style="visibility: inherit;" fill="rgb(0, 0, 0)" stroke="rgb(204, 204, 204)" stroke-width="1px"></line><line x1="314.4361979166667" y1="0" x2="314.4361979166667" y2="5" style="visibility: inherit;" fill="rgb(0, 0, 0)" stroke="rgb(204, 204, 204)" stroke-width="1px"></line><line x1="377.3234375" y1="0" x2="377.3234375" y2="5" style="visibility: inherit;" fill="rgb(0, 0, 0)" stroke="rgb(204, 204, 204)" stroke-width="1px"></line><line x1="440.2106770833334" y1="0" x2="440.2106770833334" y2="5" style="visibility: inherit;" fill="rgb(0, 0, 0)" stroke="rgb(204, 204, 204)" stroke-width="1px"></line><line x1="503.09791666666666" y1="0" x2="503.09791666666666" y2="5" style="visibility: inherit;" fill="rgb(0, 0, 0)" stroke="rgb(204, 204, 204)" stroke-width="1px"></line><line x1="565.98515625" y1="0" x2="565.98515625" y2="5" style="visibility: inherit;" fill="rgb(0, 0, 0)" stroke="rgb(204, 204, 204)" stroke-width="1px"></line><line x1="628.8723958333334" y1="0" x2="628.8723958333334" y2="5" style="visibility: inherit;" fill="rgb(0, 0, 0)" stroke="rgb(204, 204, 204)" stroke-width="1px"></line><line x1="691.7596354166667" y1="0" x2="691.7596354166667" y2="5" style="visibility: inherit;" fill="rgb(0, 0, 0)" stroke="rgb(204, 204, 204)" stroke-width="1px"></line><line x1="754.646875" y1="0" x2="754.646875" y2="5" style="visibility: inherit;" fill="rgb(0, 0, 0)" stroke="rgb(204, 204, 204)" stroke-width="1px"></line></g><g transform="translate(0, 8)"><text x="0" y="0" dx="0em" dy="0.95em" style="text-anchor: middle; visibility: hidden; font-family: Roboto, sans-serif; font-size: 12px; font-weight: 200;" fill="rgb(50, 49, 63)" stroke="none" stroke-width="1px">-5</text><text x="62.88723958333333" y="0" dx="0em" dy="0.95em" style="text-anchor: middle; visibility: inherit; font-family: Roboto, sans-serif; font-size: 12px; font-weight: 200;" fill="rgb(50, 49, 63)" stroke="none" stroke-width="1px">0</text><text x="125.77447916666667" y="0" dx="0em" dy="0.95em" style="text-anchor: middle; visibility: inherit; font-family: Roboto, sans-serif; font-size: 12px; font-weight: 200;" fill="rgb(50, 49, 63)" stroke="none" stroke-width="1px">5</text><text x="188.66171875" y="0" dx="0em" dy="0.95em" style="text-anchor: middle; visibility: inherit; font-family: Roboto, sans-serif; font-size: 12px; font-weight: 200;" fill="rgb(50, 49, 63)" stroke="none" stroke-width="1px">10</text><text x="251.54895833333333" y="0" dx="0em" dy="0.95em" style="text-anchor: middle; visibility: inherit; font-family: Roboto, sans-serif; font-size: 12px; font-weight: 200;" fill="rgb(50, 49, 63)" stroke="none" stroke-width="1px">15</text><text x="314.4361979166667" y="0" dx="0em" dy="0.95em" style="text-anchor: middle; visibility: inherit; font-family: Roboto, sans-serif; font-size: 12px; font-weight: 200;" fill="rgb(50, 49, 63)" stroke="none" stroke-width="1px">20</text><text x="377.3234375" y="0" dx="0em" dy="0.95em" style="text-anchor: middle; visibility: inherit; font-family: Roboto, sans-serif; font-size: 12px; font-weight: 200;" fill="rgb(50, 49, 63)" stroke="none" stroke-width="1px">25</text><text x="440.2106770833334" y="0" dx="0em" dy="0.95em" style="text-anchor: middle; visibility: inherit; font-family: Roboto, sans-serif; font-size: 12px; font-weight: 200;" fill="rgb(50, 49, 63)" stroke="none" stroke-width="1px">30</text><text x="503.09791666666666" y="0" dx="0em" dy="0.95em" style="text-anchor: middle; visibility: inherit; font-family: Roboto, sans-serif; font-size: 12px; font-weight: 200;" fill="rgb(50, 49, 63)" stroke="none" stroke-width="1px">35</text><text x="565.98515625" y="0" dx="0em" dy="0.95em" style="text-anchor: middle; visibility: inherit; font-family: Roboto, sans-serif; font-size: 12px; font-weight: 200;" fill="rgb(50, 49, 63)" stroke="none" stroke-width="1px">40</text><text x="628.8723958333334" y="0" dx="0em" dy="0.95em" style="text-anchor: middle; visibility: inherit; font-family: Roboto, sans-serif; font-size: 12px; font-weight: 200;" fill="rgb(50, 49, 63)" stroke="none" stroke-width="1px">45</text><text x="691.7596354166667" y="0" dx="0em" dy="0.95em" style="text-anchor: middle; visibility: inherit; font-family: Roboto, sans-serif; font-size: 12px; font-weight: 200;" fill="rgb(50, 49, 63)" stroke="none" stroke-width="1px">50</text><text x="754.646875" y="0" dx="0em" dy="0.95em" style="text-anchor: middle; visibility: hidden; font-family: Roboto, sans-serif; font-size: 12px; font-weight: 200;" fill="rgb(50, 49, 63)" stroke="none" stroke-width="1px">55</text></g><line x1="0" y1="0" x2="754.646875" y2="0" fill="rgb(0, 0, 0)" stroke="rgb(204, 204, 204)" stroke-width="1px"></line></g></g></g></g></svg>