<svg viewBox="0 0 806.4000244140625 400" xmlns="http://www.w3.org/2000/svg"><g><g><g><g><g><line x1="51.5625" y1="378" x2="46.5625" y2="378" style="visibility: inherit;" fill="rgb(0, 0, 0)" stroke="rgb(204, 204, 204)" stroke-width="1px"></line><line x1="51.5625" y1="336.0000000000004" x2="46.5625" y2="336.0000000000004" style="visibility: inherit;" fill="rgb(0, 0, 0)" stroke="rgb(204, 204, 204)" stroke-width="1px"></line><line x1="51.5625" y1="294.0000000000004" x2="46.5625" y2="294.0000000000004" style="visibility: inherit;" fill="rgb(0, 0, 0)" stroke="rgb(204, 204, 204)" stroke-width="1px"></line><line x1="51.5625" y1="252.00000000000028" x2="46.5625" y2="252.00000000000028" style="visibility: inherit;" fill="rgb(0, 0, 0)" stroke="rgb(204, 204, 204)" stroke-width="1px"></line><line x1="51.5625" y1="210.00000000000026" x2="46.5625" y2="210.00000000000026" style="visibility: inherit;" fill="rgb(0, 0, 0)" stroke="rgb(204, 204, 204)" stroke-width="1px"></line><line x1="51.5625" y1="168.0000000000002" x2="46.5625" y2="168.0000000000002" style="visibility: inherit;" fill="rgb(0, 0, 0)" stroke="rgb(204, 204, 204)" stroke-width="1px"></line><line x1="51.5625" y1="126.00000000000014" x2="46.5625" y2="126.00000000000014" style="visibility: inherit;" fill="rgb(0, 0, 0)" stroke="rgb(204, 204, 204)" stroke-width="1px"></line><line x1="51.5625" y1="84.00000000000013" x2="46.5625" y2="84.00000000000013" style="visibility: inherit;" fill="rgb(0, 0, 0)" stroke="rgb(204, 204, 204)" stroke-width="1px"></line><line x1="51.5625" y1="42.000000000000064" x2="46.5625" y2="42.000000000000064" style="visibility: inherit;" fill="rgb(0, 0, 0)" stroke="rgb(204, 204, 204)" stroke-width="1px"></line><line x1="51.5625" y1="0" x2="46.5625" y2="0" style="visibility: inherit;" fill="rgb(0, 0, 0)" stroke="rgb(204, 204, 204)" stroke-width="1px"></line></g><g transform="translate(41.5625, 0)"><text x="0" y="378" dx="0em" dy="0.3em" style="text-anchor: end; visibility: hidden; font-family: Roboto, sans-serif; font-size: 12px; font-weight: 200;" fill="rgb(50, 49, 63)" stroke="none" stroke-width="1px">0.81</text><text x="0" y="336.0000000000004" dx="0em" dy="0.3em" style="text-anchor: end; visibility: inherit; font-family: Roboto, sans-serif; font-size: 12px; font-weight: 200;" fill="rgb(50, 49, 63)" stroke="none" stroke-width="1px">0.82</text><text x="0" y="294.0000000000004" dx="0em" dy="0.3em" style="text-anchor: end; visibility: inherit; font-family: Roboto, sans-serif; font-size: 12px; font-weight: 200;" fill="rgb(50, 49, 63)" stroke="none" stroke-width="1px">0.83</text><text x="0" y="252.00000000000028" dx="0em" dy="0.3em" style="text-anchor: end; visibility: inherit; font-family: Roboto, sans-serif; font-size: 12px; font-weight: 200;" fill="rgb(50, 49, 63)" stroke="none" stroke-width="1px">0.84</text><text x="0" y="210.00000000000026" dx="0em" dy="0.3em" style="text-anchor: end; visibility: inherit; font-family: Roboto, sans-serif; font-size: 12px; font-weight: 200;" fill="rgb(50, 49, 63)" stroke="none" stroke-width="1px">0.85</text><text x="0" y="168.0000000000002" dx="0em" dy="0.3em" style="text-anchor: end; visibility: inherit; font-family: Roboto, sans-serif; font-size: 12px; font-weight: 200;" fill="rgb(50, 49, 63)" stroke="none" stroke-width="1px">0.86</text><text x="0" y="126.00000000000014" dx="0em" dy="0.3em" style="text-anchor: end; visibility: inherit; font-family: Roboto, sans-serif; font-size: 12px; font-weight: 200;" fill="rgb(50, 49, 63)" stroke="none" stroke-width="1px">0.87</text><text x="0" y="84.00000000000013" dx="0em" dy="0.3em" style="text-anchor: end; visibility: inherit; font-family: Roboto, sans-serif; font-size: 12px; font-weight: 200;" fill="rgb(50, 49, 63)" stroke="none" stroke-width="1px">0.88</text><text x="0" y="42.000000000000064" dx="0em" dy="0.3em" style="text-anchor: end; visibility: inherit; font-family: Roboto, sans-serif; font-size: 12px; font-weight: 200;" fill="rgb(50, 49, 63)" stroke="none" stroke-width="1px">0.89</text><text x="0" y="0" dx="0em" dy="0.3em" style="text-anchor: end; visibility: hidden; font-family: Roboto, sans-serif; font-size: 12px; font-weight: 200;" fill="rgb(50, 49, 63)" stroke="none" stroke-width="1px">0.9</text></g><line x1="51.5625" y1="0" x2="51.5625" y2="378" fill="rgb(0, 0, 0)" stroke="rgb(204, 204, 204)" stroke-width="1px"></line></g></g><g transform="translate(51, 0)" clip-path="url(#clip_0)"><clipPath id="clip_0"><rect width="754" height="378"></rect></clipPath><g><g><g><line x1="0" y1="0" x2="0" y2="378" fill="rgb(0, 0, 0)" stroke="rgb(60, 60, 60)" stroke-width="1px" opacity="0.25"></line><line x1="62.903124999999996" y1="0" x2="62.903124999999996" y2="378" fill="rgb(0, 0, 0)" stroke="rgb(60, 60, 60)" stroke-width="1px" opacity="0.25"></line><line x1="125.80624999999999" y1="0" x2="125.80624999999999" y2="378" fill="rgb(0, 0, 0)" stroke="rgb(60, 60, 60)" stroke-width="1px" opacity="0.25"></line><line x1="188.709375" y1="0" x2="188.709375" y2="378" fill="rgb(0, 0, 0)" stroke="rgb(60, 60, 60)" stroke-width="1px" opacity="0.25"></line><line x1="251.61249999999998" y1="0" x2="251.61249999999998" y2="378" fill="rgb(0, 0, 0)" stroke="rgb(60, 60, 60)" stroke-width="1px" opacity="0.25"></line><line x1="314.515625" y1="0" x2="314.515625" y2="378" fill="rgb(0, 0, 0)" stroke="rgb(60, 60, 60)" stroke-width="1px" opacity="0.25"></line><line x1="377.41875" y1="0" x2="377.41875" y2="378" fill="rgb(0, 0, 0)" stroke="rgb(60, 60, 60)" stroke-width="1px" opacity="0.25"></line><line x1="440.32187500000003" y1="0" x2="440.32187500000003" y2="378" fill="rgb(0, 0, 0)" stroke="rgb(60, 60, 60)" stroke-width="1px" opacity="0.25"></line><line x1="503.22499999999997" y1="0" x2="503.22499999999997" y2="378" fill="rgb(0, 0, 0)" stroke="rgb(60, 60, 60)" stroke-width="1px" opacity="0.25"></line><line x1="566.128125" y1="0" x2="566.128125" y2="378" fill="rgb(0, 0, 0)" stroke="rgb(60, 60, 60)" stroke-width="1px" opacity="0.25"></line><line x1="629.03125" y1="0" x2="629.03125" y2="378" fill="rgb(0, 0, 0)" stroke="rgb(60, 60, 60)" stroke-width="1px" opacity="0.25"></line><line x1="691.9343749999999" y1="0" x2="691.9343749999999" y2="378" fill="rgb(0, 0, 0)" stroke="rgb(60, 60, 60)" stroke-width="1px" opacity="0.25"></line><line x1="754.8375" y1="0" x2="754.8375" y2="378" fill="rgb(0, 0, 0)" stroke="rgb(60, 60, 60)" stroke-width="1px" opacity="0.25"></line></g><g><line x1="0" y1="378" x2="754.8375" y2="378" fill="rgb(0, 0, 0)" stroke="rgb(60, 60, 60)" stroke-width="1px" opacity="0.25"></line><line x1="0" y1="336.0000000000004" x2="754.8375" y2="336.0000000000004" fill="rgb(0, 0, 0)" stroke="rgb(60, 60, 60)" stroke-width="1px" opacity="0.25"></line><line x1="0" y1="294.0000000000004" x2="754.8375" y2="294.0000000000004" fill="rgb(0, 0, 0)" stroke="rgb(60, 60, 60)" stroke-width="1px" opacity="0.25"></line><line x1="0" y1="252.00000000000028" x2="754.8375" y2="252.00000000000028" fill="rgb(0, 0, 0)" stroke="rgb(60, 60, 60)" stroke-width="1px" opacity="0.25"></line><line x1="0" y1="210.00000000000026" x2="754.8375" y2="210.00000000000026" fill="rgb(0, 0, 0)" stroke="rgb(60, 60, 60)" stroke-width="1px" opacity="0.25"></line><line x1="0" y1="168.0000000000002" x2="754.8375" y2="168.0000000000002" fill="rgb(0, 0, 0)" stroke="rgb(60, 60, 60)" stroke-width="1px" opacity="0.25"></line><line x1="0" y1="126.00000000000014" x2="754.8375" y2="126.00000000000014" fill="rgb(0, 0, 0)" stroke="rgb(60, 60, 60)" stroke-width="1px" opacity="0.25"></line><line x1="0" y1="84.00000000000013" x2="754.8375" y2="84.00000000000013" fill="rgb(0, 0, 0)" stroke="rgb(60, 60, 60)" stroke-width="1px" opacity="0.25"></line><line x1="0" y1="42.000000000000064" x2="754.8375" y2="42.000000000000064" fill="rgb(0, 0, 0)" stroke="rgb(60, 60, 60)" stroke-width="1px" opacity="0.25"></line><line x1="0" y1="0" x2="754.8375" y2="0" fill="rgb(0, 0, 0)" stroke="rgb(60, 60, 60)" stroke-width="1px" opacity="0.25"></line></g></g></g><g><g><line x1="0" y1="3780.0000000000014" x2="754.8375" y2="3780.0000000000014" fill="rgb(0, 0, 0)" stroke="rgb(153, 153, 153)" stroke-width="1.5px"></line></g></g><g><g><line x1="62.903124999999996" y1="0" x2="62.903124999999996" y2="378" fill="rgb(0, 0, 0)" stroke="rgb(153, 153, 153)" stroke-width="1.5px"></line></g></g><g><g><g><g><g><path stroke="rgb(0, 119, 187)" stroke-width="2px" d="M88.064375,387.86061286926287L100.645,350.69245576858543L113.225625,332.1082520484926L125.80624999999999,318.99021148681663L138.38687499999997,296.03332757949846L150.9675,273.07644367218035L163.548125,273.07644367218035L176.12875,282.9150366783144L188.709375,255.58572292327898L201.29,256.6787052154543L213.870625,263.2378506660463L226.45125,265.42431592941307L239.03187499999999,270.89022874832176L251.61249999999998,257.7719378471376L264.19312499999995,257.7719378471376L276.77374999999995,246.84011220932024L289.354375,252.30602502822893L301.935,254.49249029159563L314.515625,249.02657747268694L327.09625,249.02657747268694L339.676875,251.2127923965456L352.2575,253.39925765991228L364.838125,254.49249029159563L377.41875,255.58572292327898L389.99937500000004,255.58572292327898L402.58,255.58572292327898L415.16062500000004,255.58572292327898L427.74125,256.6787052154543L440.32187500000003,255.58572292327898L452.9025,254.49249029159563L465.48312500000003,254.49249029159563L478.06374999999997,254.49249029159563L490.644375,254.49249029159563L503.22499999999997,254.49249029159563L515.805625,254.49249029159563L528.3862499999999,253.39925765991228L540.966875,253.39925765991228L553.5474999999999,253.39925765991228L566.128125,253.39925765991228L578.70875,253.39925765991228L591.289375,253.39925765991228L603.87,254.49249029159563L616.450625,253.39925765991228L629.03125,254.49249029159563L641.6118749999999,254.49249029159563L654.1925,254.49249029159563L666.7731249999999,254.49249029159563L679.35375,254.49249029159563" style="fill: none;" fill="none"></path></g><g><path stroke="rgb(51, 187, 238)" stroke-width="2px" d="M62.903124999999996,476.40820026397733L75.48375,329.922037124634L88.064375,320.08319377899187L100.645,317.8969788551333L113.225625,290.56741476058977L125.80624999999999,244.6538972854616L138.38687499999997,242.4674320220949L150.9675,261.05163574218767L163.548125,240.28121709823628L176.12875,215.13786792755144L188.709375,207.4857401847841L201.29,205.2992749214174L213.870625,210.7651877403261L226.45125,211.85842037200945L239.03187499999999,210.7651877403261L251.61249999999998,212.9516530036928L264.19312499999995,202.01982736587541L276.77374999999995,202.01982736587541L289.354375,200.92659473419207L301.935,199.83336210250872L314.515625,199.83336210250872L327.09625,200.92659473419207L339.676875,199.83336210250872L352.2575,198.74012947082537L364.838125,196.55391454696672L377.41875,196.55391454696672L389.99937500000004,198.74012947082537L402.58,197.64714717865007L415.16062500000004,197.64714717865007L427.74125,197.64714717865007L440.32187500000003,197.64714717865007L452.9025,197.64714717865007L465.48312500000003,195.46068191528337L478.06374999999997,195.46068191528337L490.644375,196.55391454696672L503.22499999999997,198.74012947082537L515.805625,198.74012947082537L528.3862499999999,198.74012947082537L540.966875,198.74012947082537L553.5474999999999,197.64714717865007L566.128125,197.64714717865007L578.70875,197.64714717865007L591.289375,197.64714717865007L603.87,197.64714717865007L616.450625,197.64714717865007L629.03125,197.64714717865007L641.6118749999999,197.64714717865007L654.1925,197.64714717865007L666.7731249999999,197.64714717865007L679.35375,197.64714717865007" style="fill: none;" fill="none"></path></g><g><path stroke="rgb(0, 153, 136)" stroke-width="2px" d="M62.903124999999996,420.655839443207L75.48375,297.1265602111818L88.064375,269.79699611663835L100.645,220.60378074646013L113.225625,187.808554172516L125.80624999999999,182.34264135360732L138.38687499999997,169.22435045242327L150.9675,155.01307725906386L163.548125,153.91984462738054L176.12875,156.1063098907472L188.709375,132.05619335174578L201.29,149.54716444015517L213.870625,134.24265861511245L226.45125,141.8947863578798L239.03187499999999,139.70857143402114L251.61249999999998,134.24265861511245L264.19312499999995,134.24265861511245L276.77374999999995,130.96296072006237L289.354375,140.8015537261964L301.935,138.6153388023378L314.515625,130.96296072006237L327.09625,129.8699784278871L339.676875,130.96296072006237L352.2575,130.96296072006237L364.838125,134.24265861511245L377.41875,133.1494259834291L389.99937500000004,133.1494259834291L402.58,133.1494259834291L415.16062500000004,133.1494259834291L427.74125,132.05619335174578L440.32187500000003,133.1494259834291L452.9025,133.1494259834291L465.48312500000003,133.1494259834291L478.06374999999997,132.05619335174578L490.644375,133.1494259834291L503.22499999999997,132.05619335174578L515.805625,133.1494259834291L528.3862499999999,132.05619335174578L540.966875,132.05619335174578L553.5474999999999,132.05619335174578L566.128125,132.05619335174578L578.70875,132.05619335174578L591.289375,132.05619335174578L603.87,132.05619335174578L616.450625,132.05619335174578L629.03125,132.05619335174578L641.6118749999999,132.05619335174578L654.1925,132.05619335174578L666.7731249999999,132.05619335174578L679.35375,132.05619335174578" style="fill: none;" fill="none"></path></g><g><path stroke="rgb(255, 112, 67)" stroke-width="2px" d="M62.903124999999996,383.4876823425295L75.48375,288.38094949722307L88.064375,282.9150366783144L100.645,198.74012947082537L113.225625,186.7153215408327L125.80624999999999,164.85167026519792L138.38687499999997,172.50379800796526L150.9675,160.47899007797255L163.548125,146.2674665451051L176.12875,140.8015537261964L188.709375,127.68351316452042L201.29,128.77674579620376L213.870625,114.56522226333631L226.45125,114.56522226333631L239.03187499999999,118.93815279006972L251.61249999999998,106.91309452056899L264.19312499999995,109.09930944442762L276.77374999999995,116.75168752670304L289.354375,105.81986188888561L301.935,109.09930944442762L314.515625,114.56522226333631L327.09625,111.2857747077943L339.676875,110.19254207611095L352.2575,109.09930944442762L364.838125,110.19254207611095L377.41875,108.00632715225234L389.99937500000004,108.00632715225234L402.58,108.00632715225234L415.16062500000004,111.2857747077943L427.74125,111.2857747077943L440.32187500000003,111.2857747077943L452.9025,109.09930944442762L465.48312500000003,111.2857747077943L478.06374999999997,111.2857747077943L490.644375,111.2857747077943L503.22499999999997,111.2857747077943L515.805625,111.2857747077943L528.3862499999999,111.2857747077943L540.966875,111.2857747077943L553.5474999999999,111.2857747077943L566.128125,111.2857747077943L578.70875,111.2857747077943L591.289375,111.2857747077943L603.87,111.2857747077943L616.450625,111.2857747077943L629.03125,111.2857747077943L641.6118749999999,111.2857747077943L654.1925,111.2857747077943L666.7731249999999,111.2857747077943L679.35375,111.2857747077943" style="fill: none;" fill="none"></path></g><g><path stroke="rgb(204, 51, 17)" stroke-width="2px" d="M62.903124999999996,312.4310660362246L75.48375,209.67195510864275L88.064375,156.1063098907472L100.645,153.91984462738054L113.225625,111.2857747077943L125.80624999999999,146.2674665451051L138.38687499999997,102.54041433334365L150.9675,75.21085023880015L163.548125,69.74493741989146L176.12875,85.0494432449342L188.709375,64.27902460098277L201.29,56.62664651870739L213.870625,63.18579196929942L226.45125,66.46548986434951L239.03187499999999,52.25396633148204L251.61249999999998,74.11761760711681L264.19312499999995,56.62664651870739L276.77374999999995,54.44043159484873L289.354375,60.99957704544081L301.935,66.46548986434951L314.515625,55.533664226532075L327.09625,52.25396633148204L339.676875,52.25396633148204L352.2575,53.34719896316538L364.838125,55.533664226532075L377.41875,55.533664226532075L389.99937500000004,56.62664651870739L402.58,55.533664226532075L415.16062500000004,56.62664651870739L427.74125,55.533664226532075L440.32187500000003,55.533664226532075L452.9025,55.533664226532075L465.48312500000003,54.44043159484873L478.06374999999997,54.44043159484873L490.644375,54.44043159484873L503.22499999999997,54.44043159484873L515.805625,54.44043159484873L528.3862499999999,54.44043159484873L540.966875,54.44043159484873L553.5474999999999,54.44043159484873L566.128125,54.44043159484873L578.70875,54.44043159484873L591.289375,54.44043159484873L603.87,54.44043159484873L616.450625,54.44043159484873L629.03125,54.44043159484873L641.6118749999999,54.44043159484873L654.1925,54.44043159484873L666.7731249999999,54.44043159484873L679.35375,54.44043159484873" style="fill: none;" fill="none"></path></g><g><path stroke="rgb(238, 51, 119)" stroke-width="2px" d="M62.903124999999996,343.04007768631004L75.48375,212.9516530036928L88.064375,179.0629434585573L100.645,173.5970306396486L113.225625,135.3356409072877L125.80624999999999,123.31083297729506L138.38687499999997,129.8699784278871L150.9675,115.65845489501964L163.548125,99.26071643829357L176.12875,109.09930944442762L188.709375,103.633646965027L201.29,93.79480361938488L213.870625,82.8629779815675L226.45125,82.8629779815675L239.03187499999999,66.46548986434951L251.61249999999998,71.9314026832582L264.19312499999995,77.3970651626588L276.77374999999995,69.74493741989146L289.354375,73.02438497543346L301.935,71.9314026832582L314.515625,78.49029779434215L327.09625,75.21085023880015L339.676875,70.8381700515748L352.2575,70.8381700515748L364.838125,73.02438497543346L377.41875,69.74493741989146L389.99937500000004,69.74493741989146L402.58,69.74493741989146L415.16062500000004,69.74493741989146L427.74125,69.74493741989146L440.32187500000003,68.65170478820812L452.9025,69.74493741989146L465.48312500000003,68.65170478820812L478.06374999999997,69.74493741989146L490.644375,69.74493741989146L503.22499999999997,69.74493741989146L515.805625,69.74493741989146L528.3862499999999,69.74493741989146L540.966875,69.74493741989146L553.5474999999999,69.74493741989146L566.128125,69.74493741989146L578.70875,69.74493741989146L591.289375,69.74493741989146L603.87,69.74493741989146L616.450625,69.74493741989146L629.03125,69.74493741989146L641.6118749999999,69.74493741989146L654.1925,69.74493741989146L666.7731249999999,69.74493741989146L679.35375,69.74493741989146" style="fill: none;" fill="none"></path></g></g></g></g></g></g><g transform="translate(51, 378)" clip-path="url(#clip_1)"><clipPath id="clip_1"><rect width="754" height="22"></rect></clipPath><g><g><line x1="0" y1="0" x2="0" y2="5" style="visibility: inherit;" fill="rgb(0, 0, 0)" stroke="rgb(204, 204, 204)" stroke-width="1px"></line><line x1="62.903124999999996" y1="0" x2="62.903124999999996" y2="5" style="visibility: inherit;" fill="rgb(0, 0, 0)" stroke="rgb(204, 204, 204)" stroke-width="1px"></line><line x1="125.80624999999999" y1="0" x2="125.80624999999999" y2="5" style="visibility: inherit;" fill="rgb(0, 0, 0)" stroke="rgb(204, 204, 204)" stroke-width="1px"></line><line x1="188.709375" y1="0" x2="188.709375" y2="5" style="visibility: inherit;" fill="rgb(0, 0, 0)" stroke="rgb(204, 204, 204)" stroke-width="1px"></line><line x1="251.61249999999998" y1="0" x2="251.61249999999998" y2="5" style="visibility: inherit;" fill="rgb(0, 0, 0)" stroke="rgb(204, 204, 204)" stroke-width="1px"></line><line x1="314.515625" y1="0" x2="314.515625" y2="5" style="visibility: inherit;" fill="rgb(0, 0, 0)" stroke="rgb(204, 204, 204)" stroke-width="1px"></line><line x1="377.41875" y1="0" x2="377.41875" y2="5" style="visibility: inherit;" fill="rgb(0, 0, 0)" stroke="rgb(204, 204, 204)" stroke-width="1px"></line><line x1="440.32187500000003" y1="0" x2="440.32187500000003" y2="5" style="visibility: inherit;" fill="rgb(0, 0, 0)" stroke="rgb(204, 204, 204)" stroke-width="1px"></line><line x1="503.22499999999997" y1="0" x2="503.22499999999997" y2="5" style="visibility: inherit;" fill="rgb(0, 0, 0)" stroke="rgb(204, 204, 204)" stroke-width="1px"></line><line x1="566.128125" y1="0" x2="566.128125" y2="5" style="visibility: inherit;" fill="rgb(0, 0, 0)" stroke="rgb(204, 204, 204)" stroke-width="1px"></line><line x1="629.03125" y1="0" x2="629.03125" y2="5" style="visibility: inherit;" fill="rgb(0, 0, 0)" stroke="rgb(204, 204, 204)" stroke-width="1px"></line><line x1="691.9343749999999" y1="0" x2="691.9343749999999" y2="5" style="visibility: inherit;" fill="rgb(0, 0, 0)" stroke="rgb(204, 204, 204)" stroke-width="1px"></line><line x1="754.8375" y1="0" x2="754.8375" y2="5" style="visibility: inherit;" fill="rgb(0, 0, 0)" stroke="rgb(204, 204, 204)" stroke-width="1px"></line></g><g transform="translate(0, 8)"><text x="0" y="0" dx="0em" dy="0.95em" style="text-anchor: middle; visibility: hidden; font-family: Roboto, sans-serif; font-size: 12px; font-weight: 200;" fill="rgb(50, 49, 63)" stroke="none" stroke-width="1px">-5</text><text x="62.903124999999996" y="0" dx="0em" dy="0.95em" style="text-anchor: middle; visibility: inherit; font-family: Roboto, sans-serif; font-size: 12px; font-weight: 200;" fill="rgb(50, 49, 63)" stroke="none" stroke-width="1px">0</text><text x="125.80624999999999" y="0" dx="0em" dy="0.95em" style="text-anchor: middle; visibility: inherit; font-family: Roboto, sans-serif; font-size: 12px; font-weight: 200;" fill="rgb(50, 49, 63)" stroke="none" stroke-width="1px">5</text><text x="188.709375" y="0" dx="0em" dy="0.95em" style="text-anchor: middle; visibility: inherit; font-family: Roboto, sans-serif; font-size: 12px; font-weight: 200;" fill="rgb(50, 49, 63)" stroke="none" stroke-width="1px">10</text><text x="251.61249999999998" y="0" dx="0em" dy="0.95em" style="text-anchor: middle; visibility: inherit; font-family: Roboto, sans-serif; font-size: 12px; font-weight: 200;" fill="rgb(50, 49, 63)" stroke="none" stroke-width="1px">15</text><text x="314.515625" y="0" dx="0em" dy="0.95em" style="text-anchor: middle; visibility: inherit; font-family: Roboto, sans-serif; font-size: 12px; font-weight: 200;" fill="rgb(50, 49, 63)" stroke="none" stroke-width="1px">20</text><text x="377.41875" y="0" dx="0em" dy="0.95em" style="text-anchor: middle; visibility: inherit; font-family: Roboto, sans-serif; font-size: 12px; font-weight: 200;" fill="rgb(50, 49, 63)" stroke="none" stroke-width="1px">25</text><text x="440.32187500000003" y="0" dx="0em" dy="0.95em" style="text-anchor: middle; visibility: inherit; font-family: Roboto, sans-serif; font-size: 12px; font-weight: 200;" fill="rgb(50, 49, 63)" stroke="none" stroke-width="1px">30</text><text x="503.22499999999997" y="0" dx="0em" dy="0.95em" style="text-anchor: middle; visibility: inherit; font-family: Roboto, sans-serif; font-size: 12px; font-weight: 200;" fill="rgb(50, 49, 63)" stroke="none" stroke-width="1px">35</text><text x="566.128125" y="0" dx="0em" dy="0.95em" style="text-anchor: middle; visibility: inherit; font-family: Roboto, sans-serif; font-size: 12px; font-weight: 200;" fill="rgb(50, 49, 63)" stroke="none" stroke-width="1px">40</text><text x="629.03125" y="0" dx="0em" dy="0.95em" style="text-anchor: middle; visibility: inherit; font-family: Roboto, sans-serif; font-size: 12px; font-weight: 200;" fill="rgb(50, 49, 63)" stroke="none" stroke-width="1px">45</text><text x="691.9343749999999" y="0" dx="0em" dy="0.95em" style="text-anchor: middle; visibility: inherit; font-family: Roboto, sans-serif; font-size: 12px; font-weight: 200;" fill="rgb(50, 49, 63)" stroke="none" stroke-width="1px">50</text><text x="754.8375" y="0" dx="0em" dy="0.95em" style="text-anchor: middle; visibility: hidden; font-family: Roboto, sans-serif; font-size: 12px; font-weight: 200;" fill="rgb(50, 49, 63)" stroke="none" stroke-width="1px">55</text></g><line x1="0" y1="0" x2="754.8375" y2="0" fill="rgb(0, 0, 0)" stroke="rgb(204, 204, 204)" stroke-width="1px"></line></g></g></g></g></svg>