<svg viewBox="0 0 625 400" xmlns="http://www.w3.org/2000/svg"><g><g><g><g><g><line x1="51.5625" y1="378" x2="46.5625" y2="378" style="visibility: inherit;" fill="rgb(0, 0, 0)" stroke="rgb(204, 204, 204)" stroke-width="1px"></line><line x1="51.5625" y1="350.99999999999994" x2="46.5625" y2="350.99999999999994" style="visibility: inherit;" fill="rgb(0, 0, 0)" stroke="rgb(204, 204, 204)" stroke-width="1px"></line><line x1="51.5625" y1="323.99999999999994" x2="46.5625" y2="323.99999999999994" style="visibility: inherit;" fill="rgb(0, 0, 0)" stroke="rgb(204, 204, 204)" stroke-width="1px"></line><line x1="51.5625" y1="296.99999999999994" x2="46.5625" y2="296.99999999999994" style="visibility: inherit;" fill="rgb(0, 0, 0)" stroke="rgb(204, 204, 204)" stroke-width="1px"></line><line x1="51.5625" y1="269.99999999999994" x2="46.5625" y2="269.99999999999994" style="visibility: inherit;" fill="rgb(0, 0, 0)" stroke="rgb(204, 204, 204)" stroke-width="1px"></line><line x1="51.5625" y1="243.00000000000006" x2="46.5625" y2="243.00000000000006" style="visibility: inherit;" fill="rgb(0, 0, 0)" stroke="rgb(204, 204, 204)" stroke-width="1px"></line><line x1="51.5625" y1="216.00000000000003" x2="46.5625" y2="216.00000000000003" style="visibility: inherit;" fill="rgb(0, 0, 0)" stroke="rgb(204, 204, 204)" stroke-width="1px"></line><line x1="51.5625" y1="189" x2="46.5625" y2="189" style="visibility: inherit;" fill="rgb(0, 0, 0)" stroke="rgb(204, 204, 204)" stroke-width="1px"></line><line x1="51.5625" y1="161.99999999999997" x2="46.5625" y2="161.99999999999997" style="visibility: inherit;" fill="rgb(0, 0, 0)" stroke="rgb(204, 204, 204)" stroke-width="1px"></line><line x1="51.5625" y1="134.99999999999994" x2="46.5625" y2="134.99999999999994" style="visibility: inherit;" fill="rgb(0, 0, 0)" stroke="rgb(204, 204, 204)" stroke-width="1px"></line><line x1="51.5625" y1="107.99999999999996" x2="46.5625" y2="107.99999999999996" style="visibility: inherit;" fill="rgb(0, 0, 0)" stroke="rgb(204, 204, 204)" stroke-width="1px"></line><line x1="51.5625" y1="81.00000000000004" x2="46.5625" y2="81.00000000000004" style="visibility: inherit;" fill="rgb(0, 0, 0)" stroke="rgb(204, 204, 204)" stroke-width="1px"></line><line x1="51.5625" y1="54.00000000000006" x2="46.5625" y2="54.00000000000006" style="visibility: inherit;" fill="rgb(0, 0, 0)" stroke="rgb(204, 204, 204)" stroke-width="1px"></line><line x1="51.5625" y1="27.00000000000003" x2="46.5625" y2="27.00000000000003" style="visibility: inherit;" fill="rgb(0, 0, 0)" stroke="rgb(204, 204, 204)" stroke-width="1px"></line><line x1="51.5625" y1="0" x2="46.5625" y2="0" style="visibility: inherit;" fill="rgb(0, 0, 0)" stroke="rgb(204, 204, 204)" stroke-width="1px"></line></g><g transform="translate(41.5625, 0)"><text x="0" y="378" dx="0em" dy="0.3em" style="text-anchor: end; visibility: hidden; font-family: Roboto, sans-serif; font-size: 12px; font-weight: 200;" fill="rgb(50, 49, 63)" stroke="none" stroke-width="1px">0.24</text><text x="0" y="350.99999999999994" dx="0em" dy="0.3em" style="text-anchor: end; visibility: inherit; font-family: Roboto, sans-serif; font-size: 12px; font-weight: 200;" fill="rgb(50, 49, 63)" stroke="none" stroke-width="1px">0.25</text><text x="0" y="323.99999999999994" dx="0em" dy="0.3em" style="text-anchor: end; visibility: inherit; font-family: Roboto, sans-serif; font-size: 12px; font-weight: 200;" fill="rgb(50, 49, 63)" stroke="none" stroke-width="1px">0.26</text><text x="0" y="296.99999999999994" dx="0em" dy="0.3em" style="text-anchor: end; visibility: inherit; font-family: Roboto, sans-serif; font-size: 12px; font-weight: 200;" fill="rgb(50, 49, 63)" stroke="none" stroke-width="1px">0.27</text><text x="0" y="269.99999999999994" dx="0em" dy="0.3em" style="text-anchor: end; visibility: inherit; font-family: Roboto, sans-serif; font-size: 12px; font-weight: 200;" fill="rgb(50, 49, 63)" stroke="none" stroke-width="1px">0.28</text><text x="0" y="243.00000000000006" dx="0em" dy="0.3em" style="text-anchor: end; visibility: inherit; font-family: Roboto, sans-serif; font-size: 12px; font-weight: 200;" fill="rgb(50, 49, 63)" stroke="none" stroke-width="1px">0.29</text><text x="0" y="216.00000000000003" dx="0em" dy="0.3em" style="text-anchor: end; visibility: inherit; font-family: Roboto, sans-serif; font-size: 12px; font-weight: 200;" fill="rgb(50, 49, 63)" stroke="none" stroke-width="1px">0.3</text><text x="0" y="189" dx="0em" dy="0.3em" style="text-anchor: end; visibility: inherit; font-family: Roboto, sans-serif; font-size: 12px; font-weight: 200;" fill="rgb(50, 49, 63)" stroke="none" stroke-width="1px">0.31</text><text x="0" y="161.99999999999997" dx="0em" dy="0.3em" style="text-anchor: end; visibility: inherit; font-family: Roboto, sans-serif; font-size: 12px; font-weight: 200;" fill="rgb(50, 49, 63)" stroke="none" stroke-width="1px">0.32</text><text x="0" y="134.99999999999994" dx="0em" dy="0.3em" style="text-anchor: end; visibility: inherit; font-family: Roboto, sans-serif; font-size: 12px; font-weight: 200;" fill="rgb(50, 49, 63)" stroke="none" stroke-width="1px">0.33</text><text x="0" y="107.99999999999996" dx="0em" dy="0.3em" style="text-anchor: end; visibility: inherit; font-family: Roboto, sans-serif; font-size: 12px; font-weight: 200;" fill="rgb(50, 49, 63)" stroke="none" stroke-width="1px">0.34</text><text x="0" y="81.00000000000004" dx="0em" dy="0.3em" style="text-anchor: end; visibility: inherit; font-family: Roboto, sans-serif; font-size: 12px; font-weight: 200;" fill="rgb(50, 49, 63)" stroke="none" stroke-width="1px">0.35</text><text x="0" y="54.00000000000006" dx="0em" dy="0.3em" style="text-anchor: end; visibility: inherit; font-family: Roboto, sans-serif; font-size: 12px; font-weight: 200;" fill="rgb(50, 49, 63)" stroke="none" stroke-width="1px">0.36</text><text x="0" y="27.00000000000003" dx="0em" dy="0.3em" style="text-anchor: end; visibility: inherit; font-family: Roboto, sans-serif; font-size: 12px; font-weight: 200;" fill="rgb(50, 49, 63)" stroke="none" stroke-width="1px">0.37</text><text x="0" y="0" dx="0em" dy="0.3em" style="text-anchor: end; visibility: hidden; font-family: Roboto, sans-serif; font-size: 12px; font-weight: 200;" fill="rgb(50, 49, 63)" stroke="none" stroke-width="1px">0.38</text></g><line x1="51.5625" y1="0" x2="51.5625" y2="378" fill="rgb(0, 0, 0)" stroke="rgb(204, 204, 204)" stroke-width="1px"></line></g></g><g transform="translate(51, 0)" clip-path="url(#clip_0)"><clipPath id="clip_0"><rect width="573" height="378"></rect></clipPath><g><g><g><line x1="0" y1="0" x2="0" y2="378" fill="rgb(0, 0, 0)" stroke="rgb(60, 60, 60)" stroke-width="1px" opacity="0.25"></line><line x1="47.78645833333333" y1="0" x2="47.78645833333333" y2="378" fill="rgb(0, 0, 0)" stroke="rgb(60, 60, 60)" stroke-width="1px" opacity="0.25"></line><line x1="95.57291666666666" y1="0" x2="95.57291666666666" y2="378" fill="rgb(0, 0, 0)" stroke="rgb(60, 60, 60)" stroke-width="1px" opacity="0.25"></line><line x1="143.359375" y1="0" x2="143.359375" y2="378" fill="rgb(0, 0, 0)" stroke="rgb(60, 60, 60)" stroke-width="1px" opacity="0.25"></line><line x1="191.14583333333331" y1="0" x2="191.14583333333331" y2="378" fill="rgb(0, 0, 0)" stroke="rgb(60, 60, 60)" stroke-width="1px" opacity="0.25"></line><line x1="238.93229166666669" y1="0" x2="238.93229166666669" y2="378" fill="rgb(0, 0, 0)" stroke="rgb(60, 60, 60)" stroke-width="1px" opacity="0.25"></line><line x1="286.71875" y1="0" x2="286.71875" y2="378" fill="rgb(0, 0, 0)" stroke="rgb(60, 60, 60)" stroke-width="1px" opacity="0.25"></line><line x1="334.50520833333337" y1="0" x2="334.50520833333337" y2="378" fill="rgb(0, 0, 0)" stroke="rgb(60, 60, 60)" stroke-width="1px" opacity="0.25"></line><line x1="382.29166666666663" y1="0" x2="382.29166666666663" y2="378" fill="rgb(0, 0, 0)" stroke="rgb(60, 60, 60)" stroke-width="1px" opacity="0.25"></line><line x1="430.078125" y1="0" x2="430.078125" y2="378" fill="rgb(0, 0, 0)" stroke="rgb(60, 60, 60)" stroke-width="1px" opacity="0.25"></line><line x1="477.86458333333337" y1="0" x2="477.86458333333337" y2="378" fill="rgb(0, 0, 0)" stroke="rgb(60, 60, 60)" stroke-width="1px" opacity="0.25"></line><line x1="525.6510416666666" y1="0" x2="525.6510416666666" y2="378" fill="rgb(0, 0, 0)" stroke="rgb(60, 60, 60)" stroke-width="1px" opacity="0.25"></line><line x1="573.4375" y1="0" x2="573.4375" y2="378" fill="rgb(0, 0, 0)" stroke="rgb(60, 60, 60)" stroke-width="1px" opacity="0.25"></line></g><g><line x1="0" y1="378" x2="573.4375" y2="378" fill="rgb(0, 0, 0)" stroke="rgb(60, 60, 60)" stroke-width="1px" opacity="0.25"></line><line x1="0" y1="350.99999999999994" x2="573.4375" y2="350.99999999999994" fill="rgb(0, 0, 0)" stroke="rgb(60, 60, 60)" stroke-width="1px" opacity="0.25"></line><line x1="0" y1="323.99999999999994" x2="573.4375" y2="323.99999999999994" fill="rgb(0, 0, 0)" stroke="rgb(60, 60, 60)" stroke-width="1px" opacity="0.25"></line><line x1="0" y1="296.99999999999994" x2="573.4375" y2="296.99999999999994" fill="rgb(0, 0, 0)" stroke="rgb(60, 60, 60)" stroke-width="1px" opacity="0.25"></line><line x1="0" y1="269.99999999999994" x2="573.4375" y2="269.99999999999994" fill="rgb(0, 0, 0)" stroke="rgb(60, 60, 60)" stroke-width="1px" opacity="0.25"></line><line x1="0" y1="243.00000000000006" x2="573.4375" y2="243.00000000000006" fill="rgb(0, 0, 0)" stroke="rgb(60, 60, 60)" stroke-width="1px" opacity="0.25"></line><line x1="0" y1="216.00000000000003" x2="573.4375" y2="216.00000000000003" fill="rgb(0, 0, 0)" stroke="rgb(60, 60, 60)" stroke-width="1px" opacity="0.25"></line><line x1="0" y1="189" x2="573.4375" y2="189" fill="rgb(0, 0, 0)" stroke="rgb(60, 60, 60)" stroke-width="1px" opacity="0.25"></line><line x1="0" y1="161.99999999999997" x2="573.4375" y2="161.99999999999997" fill="rgb(0, 0, 0)" stroke="rgb(60, 60, 60)" stroke-width="1px" opacity="0.25"></line><line x1="0" y1="134.99999999999994" x2="573.4375" y2="134.99999999999994" fill="rgb(0, 0, 0)" stroke="rgb(60, 60, 60)" stroke-width="1px" opacity="0.25"></line><line x1="0" y1="107.99999999999996" x2="573.4375" y2="107.99999999999996" fill="rgb(0, 0, 0)" stroke="rgb(60, 60, 60)" stroke-width="1px" opacity="0.25"></line><line x1="0" y1="81.00000000000004" x2="573.4375" y2="81.00000000000004" fill="rgb(0, 0, 0)" stroke="rgb(60, 60, 60)" stroke-width="1px" opacity="0.25"></line><line x1="0" y1="54.00000000000006" x2="573.4375" y2="54.00000000000006" fill="rgb(0, 0, 0)" stroke="rgb(60, 60, 60)" stroke-width="1px" opacity="0.25"></line><line x1="0" y1="27.00000000000003" x2="573.4375" y2="27.00000000000003" fill="rgb(0, 0, 0)" stroke="rgb(60, 60, 60)" stroke-width="1px" opacity="0.25"></line><line x1="0" y1="0" x2="573.4375" y2="0" fill="rgb(0, 0, 0)" stroke="rgb(60, 60, 60)" stroke-width="1px" opacity="0.25"></line></g></g></g><g><g><line x1="0" y1="1025.9999999999998" x2="573.4375" y2="1025.9999999999998" fill="rgb(0, 0, 0)" stroke="rgb(153, 153, 153)" stroke-width="1.5px"></line></g></g><g><g><line x1="47.78645833333333" y1="0" x2="47.78645833333333" y2="378" fill="rgb(0, 0, 0)" stroke="rgb(153, 153, 153)" stroke-width="1.5px"></line></g></g><g><g><g><g><g><path stroke="rgb(238, 51, 119)" stroke-width="2px" d="M57.34375,-93.76467669010158L66.90104166666667,11.985383391380305L76.45833333333333,57.977248191833496L86.015625,68.07053482532503L95.57291666666666,80.4595241546631L105.13020833333333,102.8260896205902L114.6875,59.37615430355071L124.24479166666667,65.07469511032104L133.80208333333334,72.3140845298767L143.359375,68.28336811065672L152.91666666666666,84.1863194704056L162.47395833333334,82.69206082820894L172.03125,72.12820744514464L181.58854166666666,61.98310053348543L191.14583333333331,61.54906547069552L200.703125,63.10311055183413L210.26041666666666,70.38707828521729L219.81770833333334,66.5361235141754L229.375,64.26343417167665L238.93229166666669,64.66986930370332L248.48958333333334,63.75279521942141L258.046875,62.968007683753974L267.6041666666667,63.316507101058946L277.1614583333333,62.53517961502075L286.71875,62.53783500194552L296.2760416666667,62.13131940364838L305.8333333333333,62.540490388870246L315.390625,62.381891369819655L324.9479166666667,62.97999715805056L334.50520833333337,63.12097406387329L344.0625,63.326163053512595L353.6197916666667,63.172794342041016L363.1770833333333,62.99432015419005L372.734375,62.96519136428834L382.29166666666663,62.9145780801773L391.8489583333333,62.87321841716765L401.40625,62.86975836753845L410.9635416666667,62.87780499458315L420.5208333333333,62.90918684005737L430.078125,62.88713908195497L439.6354166666667,62.88311576843264L449.1927083333333,62.88005805015566L458.75,62.8713676929474L468.3072916666667,62.87675893306733L477.86458333333337,62.875632405281074L487.421875,62.87869012355806L496.9791666666667,62.878207325935364L506.5364583333333,62.87740266323089L516.09375,62.877241730690024" style="fill: none;" fill="none"></path></g><g><path stroke="rgb(255, 112, 67)" stroke-width="2px" d="M47.78645833333333,-69.85758447647089L57.34375,58.83228278160095L66.90104166666667,165.6317034959793L76.45833333333333,225.80719685554502L86.015625,227.90817117691037L95.57291666666666,277.2346386909485L105.13020833333333,283.2926223278045L114.6875,294.28294694423676L124.24479166666667,304.29520404338837L133.80208333333334,306.5647552013397L143.359375,313.52943277359003L152.91666666666666,306.5640310049057L162.47395833333334,310.8502278327942L172.03125,301.5603164434433L181.58854166666666,297.20347023010254L191.14583333333331,300.34439063072205L200.703125,294.53979527950287L210.26041666666666,298.82285392284393L219.81770833333334,295.8703050613403L229.375,295.16694939136505L238.93229166666669,294.9697265625L248.48958333333334,295.548761844635L258.046875,295.5261508226394L267.6041666666667,295.47537660598755L277.1614583333333,294.5812354087829L286.71875,294.27683150768274L296.2760416666667,293.79379248619074L305.8333333333333,293.3864722251892L315.390625,293.4232453107834L324.9479166666667,293.47578978538513L334.50520833333337,293.5672799348831L344.0625,293.6367223262787L353.6197916666667,293.61773228645325L363.1770833333333,293.53847301006317L372.734375,293.5482898950577L382.29166666666663,293.59761571884155L391.8489583333333,293.60992705821985L401.40625,293.54619777202606L410.9635416666667,293.53927767276764L420.5208333333333,293.5424963235855L430.078125,293.5387144088745L439.6354166666667,293.54330098629L449.1927083333333,293.5426572561264L458.75,293.54402518272394L468.3072916666667,293.54603683948517L477.86458333333337,293.5503820180893L487.421875,293.5514280796051L496.9791666666667,293.55166947841644L506.5364583333333,293.5527155399322L516.09375,293.5527155399322" style="fill: none;" fill="none"></path></g><g><path stroke="rgb(0, 119, 187)" stroke-width="2px" d="M47.78645833333333,-109.98490655422206L57.34375,180.11748290061948L66.90104166666667,214.02717626094818L76.45833333333333,256.31662702560425L86.015625,293.46363937854767L95.57291666666666,259.3109378814697L105.13020833333333,343.5493061542511L114.6875,332.8662017583847L124.24479166666667,337.8206709623337L133.80208333333334,334.8126808404922L143.359375,327.0344088077545L152.91666666666666,312.8993818759918L162.47395833333334,313.7114474773407L172.03125,304.72167527675623L181.58854166666666,311.32336950302124L191.14583333333331,307.85422718524933L200.703125,312.5196615457535L210.26041666666666,314.03781867027277L219.81770833333334,315.71473574638367L229.375,312.55723929405207L238.93229166666669,311.5807811021805L248.48958333333334,309.2349479198456L258.046875,309.6787194013595L267.6041666666667,310.3723386526107L277.1614583333333,309.542650938034L286.71875,309.79225730895996L296.2760416666667,309.87087285518646L305.8333333333333,309.8402956724167L315.390625,310.0427488088608L324.9479166666667,310.31223034858704L334.50520833333337,310.40380096435547L344.0625,310.4401717185974L353.6197916666667,310.5809072256088L363.1770833333333,310.4168365001678L372.734375,310.4012260437012L382.29166666666663,310.35882031917566L391.8489583333333,310.3345195055008L401.40625,310.3461871147155L410.9635416666667,310.37684476375574L420.5208333333333,310.40034091472626L430.078125,310.4178020954132L439.6354166666667,310.40291583538055L449.1927083333333,310.41273272037506L458.75,310.4075828790664L468.3072916666667,310.40870940685267L477.86458333333337,310.407502412796L487.421875,310.40814614295954L496.9791666666667,310.41015779972076L506.5364583333333,310.4090312719345L516.09375,310.40943360328674" style="fill: none;" fill="none"></path></g><g><path stroke="rgb(0, 153, 136)" stroke-width="2px" d="M57.34375,-16.583119869232178L66.90104166666667,88.53849864006042L76.45833333333333,144.1331276893616L86.015625,210.39307808876038L95.57291666666666,210.4134360551834L105.13020833333333,218.63097345829007L114.6875,218.9084211587906L124.24479166666667,202.99259519577024L133.80208333333334,210.03025567531586L143.359375,210.24284756183621L152.91666666666666,202.29430890083316L162.47395833333334,201.96423625946048L172.03125,206.98798692226407L181.58854166666666,206.85433244705197L191.14583333333331,211.19243001937866L200.703125,210.8831981420517L210.26041666666666,213.5924974679947L219.81770833333334,213.71641552448273L229.375,213.68607974052426L238.93229166666669,213.44934797286987L248.48958333333334,213.96666562557218L258.046875,212.7426127195358L267.6041666666667,212.32732629776L277.1614583333333,211.98212599754333L286.71875,212.288782954216L296.2760416666667,211.8270674943924L305.8333333333333,211.74273884296417L315.390625,211.52419245243073L324.9479166666667,211.2138340473175L334.50520833333337,211.06843149662018L344.0625,211.20618975162506L353.6197916666667,211.2341920137405L363.1770833333333,211.1600021123886L372.734375,211.18341779708862L382.29166666666663,211.2542281150818L391.8489583333333,211.21705269813538L401.40625,211.22719144821167L410.9635416666667,211.21093726158142L420.5208333333333,211.2107763290405L430.078125,211.19387841224668L439.6354166666667,211.19830405712128L449.1927083333333,211.21270751953125L458.75,211.20997166633603L468.3072916666667,211.2152019739151L477.86458333333337,211.21496057510376L487.421875,211.21576523780823L496.9791666666667,211.21673083305356L506.5364583333333,211.21834015846252L516.09375,211.21946668624878" style="fill: none;" fill="none"></path></g><g><path stroke="rgb(204, 51, 17)" stroke-width="2px" d="M47.78645833333333,-197.24075996875757L57.34375,23.72975742816928L66.90104166666667,160.9852591753006L76.45833333333333,189.42598199844363L86.015625,219.1159436702728L95.57291666666666,208.5657695531845L105.13020833333333,229.73893976211548L114.6875,195.90440189838407L124.24479166666667,232.20981752872464L133.80208333333334,240.91200327873227L143.359375,225.1007030010223L152.91666666666666,232.7206174135208L162.47395833333334,223.20990657806396L172.03125,230.74855005741117L181.58854166666666,228.0009487867355L191.14583333333331,226.77601075172421L200.703125,223.7874130010605L210.26041666666666,224.8892376422882L219.81770833333334,225.4253039360046L229.375,223.5838333368301L238.93229166666669,223.1021622419357L248.48958333333334,223.86618947982785L258.046875,222.83533608913422L267.6041666666667,221.5889135599136L277.1614583333333,222.31938636302948L286.71875,221.96308171749115L296.2760416666667,221.35596370697021L305.8333333333333,221.73351144790647L315.390625,221.51005661487577L324.9479166666667,221.62657177448273L334.50520833333337,221.812126994133L344.0625,221.7572489976883L353.6197916666667,221.68659961223602L363.1770833333333,221.65264284610748L372.734375,221.62488198280334L382.29166666666663,221.59873044490814L391.8489583333333,221.56429088115692L401.40625,221.52993178367615L410.9635416666667,221.55278420448303L420.5208333333333,221.5659806728363L430.078125,221.56388854980466L439.6354166666667,221.56927978992462L449.1927083333333,221.5644518136978L458.75,221.5771654844284L468.3072916666667,221.5832004547119L477.86458333333337,221.58593630790708L487.421875,221.58810889720914L496.9791666666667,221.59052288532257L506.5364583333333,221.59221267700195L516.09375,221.59309780597687" style="fill: none;" fill="none"></path></g><g><path stroke="rgb(51, 187, 238)" stroke-width="2px" d="M47.78645833333333,-142.73846054077148L57.34375,60.21219885349275L66.90104166666667,162.87307834625244L76.45833333333333,230.0309518575668L86.015625,190.01145458221436L95.57291666666666,200.51246380805966L105.13020833333333,210.5770239830017L114.6875,238.3239666223526L124.24479166666667,240.1262501478195L133.80208333333334,251.0197738409042L143.359375,238.354302406311L152.91666666666666,260.98938381671906L162.47395833333334,265.7479981184006L172.03125,261.0168228149414L181.58854166666666,264.5844558477402L191.14583333333331,265.3985331058502L200.703125,261.9905451536178L210.26041666666666,256.17251193523407L219.81770833333334,258.24065601825714L229.375,257.2221944332123L238.93229166666669,258.04166293144226L248.48958333333334,257.4810544252395L258.046875,258.23719596862793L267.6041666666667,258.6463669538498L277.1614583333333,258.2851538658142L286.71875,258.35177993774414L296.2760416666667,257.88789188861847L305.8333333333333,258.334640622139L315.390625,258.46531784534454L324.9479166666667,258.09018409252167L334.50520833333337,257.9772094488144L344.0625,257.90784752368927L353.6197916666667,257.84122145175934L363.1770833333333,257.86415433883667L372.734375,257.9014102220535L382.29166666666663,257.8289905786514L391.8489583333333,257.8248063325882L401.40625,257.7960798740387L410.9635416666667,257.7886769771576L420.5208333333333,257.7989766597748L430.078125,257.8026781082153L439.6354166666667,257.8151503801346L449.1927083333333,257.8361520767212L458.75,257.83470368385315L468.3072916666667,257.84073865413666L477.86458333333337,257.84452056884766L487.421875,257.8452447652817L496.9791666666667,257.84492290019983L506.5364583333333,257.8453252315521L516.09375,257.84556663036346" style="fill: none;" fill="none"></path></g></g></g></g></g><g><g opacity="0.701605"><span fill="rgb(0, 0, 0)" stroke="none" stroke-width="1px">Alt + Scroll to Zoom</span></g></g></g><g transform="translate(51, 378)" clip-path="url(#clip_1)"><clipPath id="clip_1"><rect width="573" height="22"></rect></clipPath><g><g><line x1="0" y1="0" x2="0" y2="5" style="visibility: inherit;" fill="rgb(0, 0, 0)" stroke="rgb(204, 204, 204)" stroke-width="1px"></line><line x1="47.78645833333333" y1="0" x2="47.78645833333333" y2="5" style="visibility: inherit;" fill="rgb(0, 0, 0)" stroke="rgb(204, 204, 204)" stroke-width="1px"></line><line x1="95.57291666666666" y1="0" x2="95.57291666666666" y2="5" style="visibility: inherit;" fill="rgb(0, 0, 0)" stroke="rgb(204, 204, 204)" stroke-width="1px"></line><line x1="143.359375" y1="0" x2="143.359375" y2="5" style="visibility: inherit;" fill="rgb(0, 0, 0)" stroke="rgb(204, 204, 204)" stroke-width="1px"></line><line x1="191.14583333333331" y1="0" x2="191.14583333333331" y2="5" style="visibility: inherit;" fill="rgb(0, 0, 0)" stroke="rgb(204, 204, 204)" stroke-width="1px"></line><line x1="238.93229166666669" y1="0" x2="238.93229166666669" y2="5" style="visibility: inherit;" fill="rgb(0, 0, 0)" stroke="rgb(204, 204, 204)" stroke-width="1px"></line><line x1="286.71875" y1="0" x2="286.71875" y2="5" style="visibility: inherit;" fill="rgb(0, 0, 0)" stroke="rgb(204, 204, 204)" stroke-width="1px"></line><line x1="334.50520833333337" y1="0" x2="334.50520833333337" y2="5" style="visibility: inherit;" fill="rgb(0, 0, 0)" stroke="rgb(204, 204, 204)" stroke-width="1px"></line><line x1="382.29166666666663" y1="0" x2="382.29166666666663" y2="5" style="visibility: inherit;" fill="rgb(0, 0, 0)" stroke="rgb(204, 204, 204)" stroke-width="1px"></line><line x1="430.078125" y1="0" x2="430.078125" y2="5" style="visibility: inherit;" fill="rgb(0, 0, 0)" stroke="rgb(204, 204, 204)" stroke-width="1px"></line><line x1="477.86458333333337" y1="0" x2="477.86458333333337" y2="5" style="visibility: inherit;" fill="rgb(0, 0, 0)" stroke="rgb(204, 204, 204)" stroke-width="1px"></line><line x1="525.6510416666666" y1="0" x2="525.6510416666666" y2="5" style="visibility: inherit;" fill="rgb(0, 0, 0)" stroke="rgb(204, 204, 204)" stroke-width="1px"></line><line x1="573.4375" y1="0" x2="573.4375" y2="5" style="visibility: inherit;" fill="rgb(0, 0, 0)" stroke="rgb(204, 204, 204)" stroke-width="1px"></line></g><g transform="translate(0, 8)"><text x="0" y="0" dx="0em" dy="0.95em" style="text-anchor: middle; visibility: hidden; font-family: Roboto, sans-serif; font-size: 12px; font-weight: 200;" fill="rgb(50, 49, 63)" stroke="none" stroke-width="1px">-5</text><text x="47.78645833333333" y="0" dx="0em" dy="0.95em" style="text-anchor: middle; visibility: inherit; font-family: Roboto, sans-serif; font-size: 12px; font-weight: 200;" fill="rgb(50, 49, 63)" stroke="none" stroke-width="1px">0</text><text x="95.57291666666666" y="0" dx="0em" dy="0.95em" style="text-anchor: middle; visibility: inherit; font-family: Roboto, sans-serif; font-size: 12px; font-weight: 200;" fill="rgb(50, 49, 63)" stroke="none" stroke-width="1px">5</text><text x="143.359375" y="0" dx="0em" dy="0.95em" style="text-anchor: middle; visibility: inherit; font-family: Roboto, sans-serif; font-size: 12px; font-weight: 200;" fill="rgb(50, 49, 63)" stroke="none" stroke-width="1px">10</text><text x="191.14583333333331" y="0" dx="0em" dy="0.95em" style="text-anchor: middle; visibility: inherit; font-family: Roboto, sans-serif; font-size: 12px; font-weight: 200;" fill="rgb(50, 49, 63)" stroke="none" stroke-width="1px">15</text><text x="238.93229166666669" y="0" dx="0em" dy="0.95em" style="text-anchor: middle; visibility: inherit; font-family: Roboto, sans-serif; font-size: 12px; font-weight: 200;" fill="rgb(50, 49, 63)" stroke="none" stroke-width="1px">20</text><text x="286.71875" y="0" dx="0em" dy="0.95em" style="text-anchor: middle; visibility: inherit; font-family: Roboto, sans-serif; font-size: 12px; font-weight: 200;" fill="rgb(50, 49, 63)" stroke="none" stroke-width="1px">25</text><text x="334.50520833333337" y="0" dx="0em" dy="0.95em" style="text-anchor: middle; visibility: inherit; font-family: Roboto, sans-serif; font-size: 12px; font-weight: 200;" fill="rgb(50, 49, 63)" stroke="none" stroke-width="1px">30</text><text x="382.29166666666663" y="0" dx="0em" dy="0.95em" style="text-anchor: middle; visibility: inherit; font-family: Roboto, sans-serif; font-size: 12px; font-weight: 200;" fill="rgb(50, 49, 63)" stroke="none" stroke-width="1px">35</text><text x="430.078125" y="0" dx="0em" dy="0.95em" style="text-anchor: middle; visibility: inherit; font-family: Roboto, sans-serif; font-size: 12px; font-weight: 200;" fill="rgb(50, 49, 63)" stroke="none" stroke-width="1px">40</text><text x="477.86458333333337" y="0" dx="0em" dy="0.95em" style="text-anchor: middle; visibility: inherit; font-family: Roboto, sans-serif; font-size: 12px; font-weight: 200;" fill="rgb(50, 49, 63)" stroke="none" stroke-width="1px">45</text><text x="525.6510416666666" y="0" dx="0em" dy="0.95em" style="text-anchor: middle; visibility: inherit; font-family: Roboto, sans-serif; font-size: 12px; font-weight: 200;" fill="rgb(50, 49, 63)" stroke="none" stroke-width="1px">50</text><text x="573.4375" y="0" dx="0em" dy="0.95em" style="text-anchor: middle; visibility: hidden; font-family: Roboto, sans-serif; font-size: 12px; font-weight: 200;" fill="rgb(50, 49, 63)" stroke="none" stroke-width="1px">55</text></g><line x1="0" y1="0" x2="573.4375" y2="0" fill="rgb(0, 0, 0)" stroke="rgb(204, 204, 204)" stroke-width="1px"></line></g></g></g></g></svg>