<svg viewBox="0 0 768.6000366210938 400" xmlns="http://www.w3.org/2000/svg"><g><g><g><g><g><line x1="51.5625" y1="378" x2="46.5625" y2="378" style="visibility: inherit;" fill="rgb(0, 0, 0)" stroke="rgb(204, 204, 204)" stroke-width="1px"></line><line x1="51.5625" y1="343.63636363636357" x2="46.5625" y2="343.63636363636357" style="visibility: inherit;" fill="rgb(0, 0, 0)" stroke="rgb(204, 204, 204)" stroke-width="1px"></line><line x1="51.5625" y1="309.2727272727273" x2="46.5625" y2="309.2727272727273" style="visibility: inherit;" fill="rgb(0, 0, 0)" stroke="rgb(204, 204, 204)" stroke-width="1px"></line><line x1="51.5625" y1="274.90909090909093" x2="46.5625" y2="274.90909090909093" style="visibility: inherit;" fill="rgb(0, 0, 0)" stroke="rgb(204, 204, 204)" stroke-width="1px"></line><line x1="51.5625" y1="240.5454545454545" x2="46.5625" y2="240.5454545454545" style="visibility: inherit;" fill="rgb(0, 0, 0)" stroke="rgb(204, 204, 204)" stroke-width="1px"></line><line x1="51.5625" y1="206.18181818181822" x2="46.5625" y2="206.18181818181822" style="visibility: inherit;" fill="rgb(0, 0, 0)" stroke="rgb(204, 204, 204)" stroke-width="1px"></line><line x1="51.5625" y1="171.81818181818178" x2="46.5625" y2="171.81818181818178" style="visibility: inherit;" fill="rgb(0, 0, 0)" stroke="rgb(204, 204, 204)" stroke-width="1px"></line><line x1="51.5625" y1="137.4545454545454" x2="46.5625" y2="137.4545454545454" style="visibility: inherit;" fill="rgb(0, 0, 0)" stroke="rgb(204, 204, 204)" stroke-width="1px"></line><line x1="51.5625" y1="103.09090909090908" x2="46.5625" y2="103.09090909090908" style="visibility: inherit;" fill="rgb(0, 0, 0)" stroke="rgb(204, 204, 204)" stroke-width="1px"></line><line x1="51.5625" y1="68.7272727272727" x2="46.5625" y2="68.7272727272727" style="visibility: inherit;" fill="rgb(0, 0, 0)" stroke="rgb(204, 204, 204)" stroke-width="1px"></line><line x1="51.5625" y1="34.36363636363629" x2="46.5625" y2="34.36363636363629" style="visibility: inherit;" fill="rgb(0, 0, 0)" stroke="rgb(204, 204, 204)" stroke-width="1px"></line><line x1="51.5625" y1="0" x2="46.5625" y2="0" style="visibility: inherit;" fill="rgb(0, 0, 0)" stroke="rgb(204, 204, 204)" stroke-width="1px"></line></g><g transform="translate(41.5625, 0)"><text x="0" y="378" dx="0em" dy="0.3em" style="text-anchor: end; visibility: hidden; font-family: Roboto, sans-serif; font-size: 12px; font-weight: 200;" fill="rgb(50, 49, 63)" stroke="none" stroke-width="1px">0.26</text><text x="0" y="343.63636363636357" dx="0em" dy="0.3em" style="text-anchor: end; visibility: inherit; font-family: Roboto, sans-serif; font-size: 12px; font-weight: 200;" fill="rgb(50, 49, 63)" stroke="none" stroke-width="1px">0.28</text><text x="0" y="309.2727272727273" dx="0em" dy="0.3em" style="text-anchor: end; visibility: inherit; font-family: Roboto, sans-serif; font-size: 12px; font-weight: 200;" fill="rgb(50, 49, 63)" stroke="none" stroke-width="1px">0.3</text><text x="0" y="274.90909090909093" dx="0em" dy="0.3em" style="text-anchor: end; visibility: inherit; font-family: Roboto, sans-serif; font-size: 12px; font-weight: 200;" fill="rgb(50, 49, 63)" stroke="none" stroke-width="1px">0.32</text><text x="0" y="240.5454545454545" dx="0em" dy="0.3em" style="text-anchor: end; visibility: inherit; font-family: Roboto, sans-serif; font-size: 12px; font-weight: 200;" fill="rgb(50, 49, 63)" stroke="none" stroke-width="1px">0.34</text><text x="0" y="206.18181818181822" dx="0em" dy="0.3em" style="text-anchor: end; visibility: inherit; font-family: Roboto, sans-serif; font-size: 12px; font-weight: 200;" fill="rgb(50, 49, 63)" stroke="none" stroke-width="1px">0.36</text><text x="0" y="171.81818181818178" dx="0em" dy="0.3em" style="text-anchor: end; visibility: inherit; font-family: Roboto, sans-serif; font-size: 12px; font-weight: 200;" fill="rgb(50, 49, 63)" stroke="none" stroke-width="1px">0.38</text><text x="0" y="137.4545454545454" dx="0em" dy="0.3em" style="text-anchor: end; visibility: inherit; font-family: Roboto, sans-serif; font-size: 12px; font-weight: 200;" fill="rgb(50, 49, 63)" stroke="none" stroke-width="1px">0.4</text><text x="0" y="103.09090909090908" dx="0em" dy="0.3em" style="text-anchor: end; visibility: inherit; font-family: Roboto, sans-serif; font-size: 12px; font-weight: 200;" fill="rgb(50, 49, 63)" stroke="none" stroke-width="1px">0.42</text><text x="0" y="68.7272727272727" dx="0em" dy="0.3em" style="text-anchor: end; visibility: inherit; font-family: Roboto, sans-serif; font-size: 12px; font-weight: 200;" fill="rgb(50, 49, 63)" stroke="none" stroke-width="1px">0.44</text><text x="0" y="34.36363636363629" dx="0em" dy="0.3em" style="text-anchor: end; visibility: inherit; font-family: Roboto, sans-serif; font-size: 12px; font-weight: 200;" fill="rgb(50, 49, 63)" stroke="none" stroke-width="1px">0.46</text><text x="0" y="0" dx="0em" dy="0.3em" style="text-anchor: end; visibility: hidden; font-family: Roboto, sans-serif; font-size: 12px; font-weight: 200;" fill="rgb(50, 49, 63)" stroke="none" stroke-width="1px">0.48</text></g><line x1="51.5625" y1="0" x2="51.5625" y2="378" fill="rgb(0, 0, 0)" stroke="rgb(204, 204, 204)" stroke-width="1px"></line></g></g><g transform="translate(51, 0)" clip-path="url(#clip_0)"><clipPath id="clip_0"><rect width="717" height="378"></rect></clipPath><g><g><g><line x1="0" y1="0" x2="0" y2="378" fill="rgb(0, 0, 0)" stroke="rgb(60, 60, 60)" stroke-width="1px" opacity="0.25"></line><line x1="59.753125" y1="0" x2="59.753125" y2="378" fill="rgb(0, 0, 0)" stroke="rgb(60, 60, 60)" stroke-width="1px" opacity="0.25"></line><line x1="119.50625" y1="0" x2="119.50625" y2="378" fill="rgb(0, 0, 0)" stroke="rgb(60, 60, 60)" stroke-width="1px" opacity="0.25"></line><line x1="179.259375" y1="0" x2="179.259375" y2="378" fill="rgb(0, 0, 0)" stroke="rgb(60, 60, 60)" stroke-width="1px" opacity="0.25"></line><line x1="239.0125" y1="0" x2="239.0125" y2="378" fill="rgb(0, 0, 0)" stroke="rgb(60, 60, 60)" stroke-width="1px" opacity="0.25"></line><line x1="298.765625" y1="0" x2="298.765625" y2="378" fill="rgb(0, 0, 0)" stroke="rgb(60, 60, 60)" stroke-width="1px" opacity="0.25"></line><line x1="358.51875" y1="0" x2="358.51875" y2="378" fill="rgb(0, 0, 0)" stroke="rgb(60, 60, 60)" stroke-width="1px" opacity="0.25"></line><line x1="418.271875" y1="0" x2="418.271875" y2="378" fill="rgb(0, 0, 0)" stroke="rgb(60, 60, 60)" stroke-width="1px" opacity="0.25"></line><line x1="478.025" y1="0" x2="478.025" y2="378" fill="rgb(0, 0, 0)" stroke="rgb(60, 60, 60)" stroke-width="1px" opacity="0.25"></line><line x1="537.778125" y1="0" x2="537.778125" y2="378" fill="rgb(0, 0, 0)" stroke="rgb(60, 60, 60)" stroke-width="1px" opacity="0.25"></line><line x1="597.53125" y1="0" x2="597.53125" y2="378" fill="rgb(0, 0, 0)" stroke="rgb(60, 60, 60)" stroke-width="1px" opacity="0.25"></line><line x1="657.284375" y1="0" x2="657.284375" y2="378" fill="rgb(0, 0, 0)" stroke="rgb(60, 60, 60)" stroke-width="1px" opacity="0.25"></line><line x1="717.0375" y1="0" x2="717.0375" y2="378" fill="rgb(0, 0, 0)" stroke="rgb(60, 60, 60)" stroke-width="1px" opacity="0.25"></line></g><g><line x1="0" y1="378" x2="717.0375" y2="378" fill="rgb(0, 0, 0)" stroke="rgb(60, 60, 60)" stroke-width="1px" opacity="0.25"></line><line x1="0" y1="343.63636363636357" x2="717.0375" y2="343.63636363636357" fill="rgb(0, 0, 0)" stroke="rgb(60, 60, 60)" stroke-width="1px" opacity="0.25"></line><line x1="0" y1="309.2727272727273" x2="717.0375" y2="309.2727272727273" fill="rgb(0, 0, 0)" stroke="rgb(60, 60, 60)" stroke-width="1px" opacity="0.25"></line><line x1="0" y1="274.90909090909093" x2="717.0375" y2="274.90909090909093" fill="rgb(0, 0, 0)" stroke="rgb(60, 60, 60)" stroke-width="1px" opacity="0.25"></line><line x1="0" y1="240.5454545454545" x2="717.0375" y2="240.5454545454545" fill="rgb(0, 0, 0)" stroke="rgb(60, 60, 60)" stroke-width="1px" opacity="0.25"></line><line x1="0" y1="206.18181818181822" x2="717.0375" y2="206.18181818181822" fill="rgb(0, 0, 0)" stroke="rgb(60, 60, 60)" stroke-width="1px" opacity="0.25"></line><line x1="0" y1="171.81818181818178" x2="717.0375" y2="171.81818181818178" fill="rgb(0, 0, 0)" stroke="rgb(60, 60, 60)" stroke-width="1px" opacity="0.25"></line><line x1="0" y1="137.4545454545454" x2="717.0375" y2="137.4545454545454" fill="rgb(0, 0, 0)" stroke="rgb(60, 60, 60)" stroke-width="1px" opacity="0.25"></line><line x1="0" y1="103.09090909090908" x2="717.0375" y2="103.09090909090908" fill="rgb(0, 0, 0)" stroke="rgb(60, 60, 60)" stroke-width="1px" opacity="0.25"></line><line x1="0" y1="68.7272727272727" x2="717.0375" y2="68.7272727272727" fill="rgb(0, 0, 0)" stroke="rgb(60, 60, 60)" stroke-width="1px" opacity="0.25"></line><line x1="0" y1="34.36363636363629" x2="717.0375" y2="34.36363636363629" fill="rgb(0, 0, 0)" stroke="rgb(60, 60, 60)" stroke-width="1px" opacity="0.25"></line><line x1="0" y1="0" x2="717.0375" y2="0" fill="rgb(0, 0, 0)" stroke="rgb(60, 60, 60)" stroke-width="1px" opacity="0.25"></line></g></g></g><g><g><line x1="0" y1="824.7272727272729" x2="717.0375" y2="824.7272727272729" fill="rgb(0, 0, 0)" stroke="rgb(153, 153, 153)" stroke-width="1.5px"></line></g></g><g><g><line x1="59.753125" y1="0" x2="59.753125" y2="378" fill="rgb(0, 0, 0)" stroke="rgb(153, 153, 153)" stroke-width="1.5px"></line></g></g><g><g><g><g><g><path stroke="rgb(0, 153, 136)" stroke-width="2px" d="M71.70375,-52.95513406666843L83.654375,78.87611444429913L95.605,104.6997157118537L107.555625,156.43857664411715L119.50625,168.93028482523832L131.456875,170.38837022131136L143.4075,192.13271196322003L155.358125,216.36539996754038L167.30875,218.11771393905985L179.259375,207.84495826201007L191.21,226.3992805480957L203.160625,226.71911202777514L215.11125,231.1422185572711L227.061875,229.3206743327054L239.0125,236.11542908711866L250.963125,233.96903521364388L262.91375,234.53194066611204L274.86437500000005,236.24820574847135L286.815,234.59087855165657L298.765625,237.5751018632542L310.71625,235.47986259243703L322.666875,236.19469567862424L334.6175,238.5554370663383L346.568125,238.0312432050705L358.51875,237.32992845231834L370.46937500000007,237.24472198703074L382.42,237.644946586002L394.370625,238.09089797193352L406.32125,237.52732684395528L418.271875,237.77649430795148L430.2225,237.71827330372548L442.173125,237.63772656700826L454.12375,237.59655709700152L466.07437500000003,237.58390926231036L478.025,237.60587655414233L489.97562500000004,237.55948409167203L501.92625,237.61693700877103L513.876875,237.63388613137332L525.8275,237.60705428773704L537.778125,237.59077084064484L549.7287500000001,237.57110781019387L561.679375,237.55231527848676L573.63,237.55323698303914L585.580625,237.5592792684382L597.53125,237.5566677722064L609.4818750000001,237.55415868759155L621.4325,237.55236648429522L633.383125,237.55159839716825L645.33375,237.55241769010368" style="fill: none;" fill="none"></path></g><g><path stroke="rgb(51, 187, 238)" stroke-width="2px" d="M71.70375,-99.8341541290284L83.654375,26.155279723080714L95.605,121.3162053823471L107.555625,132.36856949329376L119.50625,110.1861620599573L131.456875,112.14365770600057L143.4075,116.33695256710052L155.358125,134.88405483419243L167.30875,132.737814578143L179.259375,141.64649872346357L191.21,149.72001613270152L203.160625,166.6511142904108L215.11125,164.76755983179262L227.061875,167.07801711559296L239.0125,168.1927675659006L250.963125,169.95527149330485L262.91375,173.63574018261647L274.86437500000005,173.8379007144408L286.815,176.75816797126424L298.765625,174.08983329209414L310.71625,174.15343090620908L322.666875,174.71377606825396L334.6175,175.59000986272636L346.568125,175.6504839225249L358.51875,175.67081262848592L370.46937500000007,176.3486239151521L382.42,176.03713898225263L394.370625,176.43383038043976L406.32125,176.61525255983523L418.271875,176.61796646768394L430.2225,176.2151815782894L442.173125,176.04784099622205L454.12375,176.00677393783224L466.07437500000003,175.98224635557696L478.025,175.9722100171176L489.97562500000004,176.0175271576101L501.92625,176.00078285824168L513.876875,175.97615286436948L525.8275,176.0051353519613L537.778125,176.03048222715202L549.7287500000001,176.0186024795879L561.679375,176.0323768420653L573.63,176.02244291522285L585.580625,176.02075312354347L597.53125,176.01921694928947L609.4818750000001,176.01522289622915L621.4325,176.01645183563232L633.383125,176.01809042150322L645.33375,176.0178343924609" style="fill: none;" fill="none"></path></g><g><path stroke="rgb(255, 112, 67)" stroke-width="2px" d="M59.753125,-115.56345196203756L71.70375,84.2802730581977L83.654375,186.51272086663678L95.605,227.550899180499L107.555625,261.6185331994837L119.50625,262.47735701907766L131.456875,283.6694953224876L143.4075,309.0043883540414L155.358125,302.97516043619675L167.30875,299.6676748557524L179.259375,311.9090378392827L191.21,307.63529865308243L203.160625,301.87889528274536L215.11125,303.92415768449956L227.061875,306.6111824837598L239.0125,311.96521061117L250.963125,312.42657494544983L262.91375,313.6806564005938L274.86437500000005,315.30557032064957L286.815,314.14770457961345L298.765625,314.2520620172674L310.71625,314.8195759924975L322.666875,314.69360970367086L334.6175,314.9301293329759L346.568125,314.71660111167216L358.51875,315.06725848804825L370.46937500000007,314.98461231318385L382.42,314.76985515247696L394.370625,314.82858821478754L406.32125,314.9830761389299L418.271875,314.969352982261L430.2225,315.0059651353143L442.173125,314.9984378814697L454.12375,314.9179935563695L466.07437500000003,314.8539862957868L478.025,314.9000203175978L489.97562500000004,314.88383928212255L501.92625,314.9124121232466L513.876875,314.9277738657865L525.8275,314.9198369654742L537.778125,314.9146651788191L549.7287500000001,314.9128729755228L561.679375,314.9104663025249L573.63,314.9102102734826L585.580625,314.9120024767789L597.53125,314.9153820601377L609.4818750000001,314.91865923187953L621.4325,314.9194273190065L633.383125,314.9201954061335L645.33375,314.9200417887081" style="fill: none;" fill="none"></path></g><g><path stroke="rgb(0, 119, 187)" stroke-width="2px" d="M71.70375,-120.26629582318394L83.654375,27.150823051279225L95.605,51.561092799360075L107.555625,76.05073155056346L119.50625,103.49771056391974L131.456875,93.08700643886216L143.4075,109.23685757680373L155.358125,102.2226859331131L167.30875,123.94572605869985L179.259375,128.29519863562152L191.21,125.6198999665L203.160625,127.93240548263896L215.11125,126.16032606905154L227.061875,132.78046901659533L239.0125,140.5282662781802L250.963125,141.04662267728284L262.91375,137.21591614593157L274.86437500000005,135.9041769504547L286.815,139.37265359271655L298.765625,138.1862150105563L310.71625,137.70416352965614L322.666875,136.74425944415006L334.6175,136.9748904054815L346.568125,136.94954353029075L358.51875,136.80212200771678L370.46937500000007,136.51608636162496L382.42,136.61086831309578L394.370625,136.58388285203412L406.32125,136.2100292444229L418.271875,136.4292925162749L430.2225,136.36687263575467L442.173125,136.44931398738512L454.12375,136.5405115322633L466.07437500000003,136.57169586961916L478.025,136.5377976244146L489.97562500000004,136.57297601483083L501.92625,136.5799912105907L513.876875,136.5400506799871L525.8275,136.55408107150683L537.778125,136.55628292127088L549.7287500000001,136.56570479002866L561.679375,136.56555117260325L573.63,136.56114747307515L585.580625,136.56724096428263L597.53125,136.57169586961916L609.4818750000001,136.56821387464348L621.4325,136.5685211094943L633.383125,136.56975004889748L645.33375,136.57051813602448" style="fill: none;" fill="none"></path></g></g></g></g></g></g><g transform="translate(51, 378)" clip-path="url(#clip_1)"><clipPath id="clip_1"><rect width="717" height="22"></rect></clipPath><g><g><line x1="0" y1="0" x2="0" y2="5" style="visibility: inherit;" fill="rgb(0, 0, 0)" stroke="rgb(204, 204, 204)" stroke-width="1px"></line><line x1="59.753125" y1="0" x2="59.753125" y2="5" style="visibility: inherit;" fill="rgb(0, 0, 0)" stroke="rgb(204, 204, 204)" stroke-width="1px"></line><line x1="119.50625" y1="0" x2="119.50625" y2="5" style="visibility: inherit;" fill="rgb(0, 0, 0)" stroke="rgb(204, 204, 204)" stroke-width="1px"></line><line x1="179.259375" y1="0" x2="179.259375" y2="5" style="visibility: inherit;" fill="rgb(0, 0, 0)" stroke="rgb(204, 204, 204)" stroke-width="1px"></line><line x1="239.0125" y1="0" x2="239.0125" y2="5" style="visibility: inherit;" fill="rgb(0, 0, 0)" stroke="rgb(204, 204, 204)" stroke-width="1px"></line><line x1="298.765625" y1="0" x2="298.765625" y2="5" style="visibility: inherit;" fill="rgb(0, 0, 0)" stroke="rgb(204, 204, 204)" stroke-width="1px"></line><line x1="358.51875" y1="0" x2="358.51875" y2="5" style="visibility: inherit;" fill="rgb(0, 0, 0)" stroke="rgb(204, 204, 204)" stroke-width="1px"></line><line x1="418.271875" y1="0" x2="418.271875" y2="5" style="visibility: inherit;" fill="rgb(0, 0, 0)" stroke="rgb(204, 204, 204)" stroke-width="1px"></line><line x1="478.025" y1="0" x2="478.025" y2="5" style="visibility: inherit;" fill="rgb(0, 0, 0)" stroke="rgb(204, 204, 204)" stroke-width="1px"></line><line x1="537.778125" y1="0" x2="537.778125" y2="5" style="visibility: inherit;" fill="rgb(0, 0, 0)" stroke="rgb(204, 204, 204)" stroke-width="1px"></line><line x1="597.53125" y1="0" x2="597.53125" y2="5" style="visibility: inherit;" fill="rgb(0, 0, 0)" stroke="rgb(204, 204, 204)" stroke-width="1px"></line><line x1="657.284375" y1="0" x2="657.284375" y2="5" style="visibility: inherit;" fill="rgb(0, 0, 0)" stroke="rgb(204, 204, 204)" stroke-width="1px"></line><line x1="717.0375" y1="0" x2="717.0375" y2="5" style="visibility: inherit;" fill="rgb(0, 0, 0)" stroke="rgb(204, 204, 204)" stroke-width="1px"></line></g><g transform="translate(0, 8)"><text x="0" y="0" dx="0em" dy="0.95em" style="text-anchor: middle; visibility: hidden; font-family: Roboto, sans-serif; font-size: 12px; font-weight: 200;" fill="rgb(50, 49, 63)" stroke="none" stroke-width="1px">-5</text><text x="59.753125" y="0" dx="0em" dy="0.95em" style="text-anchor: middle; visibility: inherit; font-family: Roboto, sans-serif; font-size: 12px; font-weight: 200;" fill="rgb(50, 49, 63)" stroke="none" stroke-width="1px">0</text><text x="119.50625" y="0" dx="0em" dy="0.95em" style="text-anchor: middle; visibility: inherit; font-family: Roboto, sans-serif; font-size: 12px; font-weight: 200;" fill="rgb(50, 49, 63)" stroke="none" stroke-width="1px">5</text><text x="179.259375" y="0" dx="0em" dy="0.95em" style="text-anchor: middle; visibility: inherit; font-family: Roboto, sans-serif; font-size: 12px; font-weight: 200;" fill="rgb(50, 49, 63)" stroke="none" stroke-width="1px">10</text><text x="239.0125" y="0" dx="0em" dy="0.95em" style="text-anchor: middle; visibility: inherit; font-family: Roboto, sans-serif; font-size: 12px; font-weight: 200;" fill="rgb(50, 49, 63)" stroke="none" stroke-width="1px">15</text><text x="298.765625" y="0" dx="0em" dy="0.95em" style="text-anchor: middle; visibility: inherit; font-family: Roboto, sans-serif; font-size: 12px; font-weight: 200;" fill="rgb(50, 49, 63)" stroke="none" stroke-width="1px">20</text><text x="358.51875" y="0" dx="0em" dy="0.95em" style="text-anchor: middle; visibility: inherit; font-family: Roboto, sans-serif; font-size: 12px; font-weight: 200;" fill="rgb(50, 49, 63)" stroke="none" stroke-width="1px">25</text><text x="418.271875" y="0" dx="0em" dy="0.95em" style="text-anchor: middle; visibility: inherit; font-family: Roboto, sans-serif; font-size: 12px; font-weight: 200;" fill="rgb(50, 49, 63)" stroke="none" stroke-width="1px">30</text><text x="478.025" y="0" dx="0em" dy="0.95em" style="text-anchor: middle; visibility: inherit; font-family: Roboto, sans-serif; font-size: 12px; font-weight: 200;" fill="rgb(50, 49, 63)" stroke="none" stroke-width="1px">35</text><text x="537.778125" y="0" dx="0em" dy="0.95em" style="text-anchor: middle; visibility: inherit; font-family: Roboto, sans-serif; font-size: 12px; font-weight: 200;" fill="rgb(50, 49, 63)" stroke="none" stroke-width="1px">40</text><text x="597.53125" y="0" dx="0em" dy="0.95em" style="text-anchor: middle; visibility: inherit; font-family: Roboto, sans-serif; font-size: 12px; font-weight: 200;" fill="rgb(50, 49, 63)" stroke="none" stroke-width="1px">45</text><text x="657.284375" y="0" dx="0em" dy="0.95em" style="text-anchor: middle; visibility: inherit; font-family: Roboto, sans-serif; font-size: 12px; font-weight: 200;" fill="rgb(50, 49, 63)" stroke="none" stroke-width="1px">50</text><text x="717.0375" y="0" dx="0em" dy="0.95em" style="text-anchor: middle; visibility: hidden; font-family: Roboto, sans-serif; font-size: 12px; font-weight: 200;" fill="rgb(50, 49, 63)" stroke="none" stroke-width="1px">55</text></g><line x1="0" y1="0" x2="717.0375" y2="0" fill="rgb(0, 0, 0)" stroke="rgb(204, 204, 204)" stroke-width="1px"></line></g></g></g></g></svg>