<svg viewBox="0 0 625 400" xmlns="http://www.w3.org/2000/svg"><g><g><g><g><g><line x1="61.953125" y1="378" x2="56.953125" y2="378" style="visibility: inherit;" fill="rgb(0, 0, 0)" stroke="rgb(204, 204, 204)" stroke-width="1px"></line><line x1="61.953125" y1="330.75" x2="56.953125" y2="330.75" style="visibility: inherit;" fill="rgb(0, 0, 0)" stroke="rgb(204, 204, 204)" stroke-width="1px"></line><line x1="61.953125" y1="283.5" x2="56.953125" y2="283.5" style="visibility: inherit;" fill="rgb(0, 0, 0)" stroke="rgb(204, 204, 204)" stroke-width="1px"></line><line x1="61.953125" y1="236.25" x2="56.953125" y2="236.25" style="visibility: inherit;" fill="rgb(0, 0, 0)" stroke="rgb(204, 204, 204)" stroke-width="1px"></line><line x1="61.953125" y1="189" x2="56.953125" y2="189" style="visibility: inherit;" fill="rgb(0, 0, 0)" stroke="rgb(204, 204, 204)" stroke-width="1px"></line><line x1="61.953125" y1="141.75" x2="56.953125" y2="141.75" style="visibility: inherit;" fill="rgb(0, 0, 0)" stroke="rgb(204, 204, 204)" stroke-width="1px"></line><line x1="61.953125" y1="94.5" x2="56.953125" y2="94.5" style="visibility: inherit;" fill="rgb(0, 0, 0)" stroke="rgb(204, 204, 204)" stroke-width="1px"></line><line x1="61.953125" y1="47.25" x2="56.953125" y2="47.25" style="visibility: inherit;" fill="rgb(0, 0, 0)" stroke="rgb(204, 204, 204)" stroke-width="1px"></line><line x1="61.953125" y1="0" x2="56.953125" y2="0" style="visibility: inherit;" fill="rgb(0, 0, 0)" stroke="rgb(204, 204, 204)" stroke-width="1px"></line></g><g transform="translate(51.953125, 0)"><text x="0" y="378" dx="0em" dy="0.3em" style="text-anchor: end; visibility: hidden; font-family: Roboto, sans-serif; font-size: 12px; font-weight: 200;" fill="rgb(50, 49, 63)" stroke="none" stroke-width="1px">0.855</text><text x="0" y="330.75" dx="0em" dy="0.3em" style="text-anchor: end; visibility: inherit; font-family: Roboto, sans-serif; font-size: 12px; font-weight: 200;" fill="rgb(50, 49, 63)" stroke="none" stroke-width="1px">0.86</text><text x="0" y="283.5" dx="0em" dy="0.3em" style="text-anchor: end; visibility: inherit; font-family: Roboto, sans-serif; font-size: 12px; font-weight: 200;" fill="rgb(50, 49, 63)" stroke="none" stroke-width="1px">0.865</text><text x="0" y="236.25" dx="0em" dy="0.3em" style="text-anchor: end; visibility: inherit; font-family: Roboto, sans-serif; font-size: 12px; font-weight: 200;" fill="rgb(50, 49, 63)" stroke="none" stroke-width="1px">0.87</text><text x="0" y="189" dx="0em" dy="0.3em" style="text-anchor: end; visibility: inherit; font-family: Roboto, sans-serif; font-size: 12px; font-weight: 200;" fill="rgb(50, 49, 63)" stroke="none" stroke-width="1px">0.875</text><text x="0" y="141.75" dx="0em" dy="0.3em" style="text-anchor: end; visibility: inherit; font-family: Roboto, sans-serif; font-size: 12px; font-weight: 200;" fill="rgb(50, 49, 63)" stroke="none" stroke-width="1px">0.88</text><text x="0" y="94.5" dx="0em" dy="0.3em" style="text-anchor: end; visibility: inherit; font-family: Roboto, sans-serif; font-size: 12px; font-weight: 200;" fill="rgb(50, 49, 63)" stroke="none" stroke-width="1px">0.885</text><text x="0" y="47.25" dx="0em" dy="0.3em" style="text-anchor: end; visibility: inherit; font-family: Roboto, sans-serif; font-size: 12px; font-weight: 200;" fill="rgb(50, 49, 63)" stroke="none" stroke-width="1px">0.89</text><text x="0" y="0" dx="0em" dy="0.3em" style="text-anchor: end; visibility: hidden; font-family: Roboto, sans-serif; font-size: 12px; font-weight: 200;" fill="rgb(50, 49, 63)" stroke="none" stroke-width="1px">0.895</text></g><line x1="61.953125" y1="0" x2="61.953125" y2="378" fill="rgb(0, 0, 0)" stroke="rgb(204, 204, 204)" stroke-width="1px"></line></g></g><g transform="translate(61, 0)" clip-path="url(#clip_0)"><clipPath id="clip_0"><rect width="563" height="378"></rect></clipPath><g><g><g><line x1="0" y1="0" x2="0" y2="378" fill="rgb(0, 0, 0)" stroke="rgb(60, 60, 60)" stroke-width="1px" opacity="0.25"></line><line x1="46.920572916666664" y1="0" x2="46.920572916666664" y2="378" fill="rgb(0, 0, 0)" stroke="rgb(60, 60, 60)" stroke-width="1px" opacity="0.25"></line><line x1="93.84114583333333" y1="0" x2="93.84114583333333" y2="378" fill="rgb(0, 0, 0)" stroke="rgb(60, 60, 60)" stroke-width="1px" opacity="0.25"></line><line x1="140.76171875" y1="0" x2="140.76171875" y2="378" fill="rgb(0, 0, 0)" stroke="rgb(60, 60, 60)" stroke-width="1px" opacity="0.25"></line><line x1="187.68229166666666" y1="0" x2="187.68229166666666" y2="378" fill="rgb(0, 0, 0)" stroke="rgb(60, 60, 60)" stroke-width="1px" opacity="0.25"></line><line x1="234.60286458333334" y1="0" x2="234.60286458333334" y2="378" fill="rgb(0, 0, 0)" stroke="rgb(60, 60, 60)" stroke-width="1px" opacity="0.25"></line><line x1="281.5234375" y1="0" x2="281.5234375" y2="378" fill="rgb(0, 0, 0)" stroke="rgb(60, 60, 60)" stroke-width="1px" opacity="0.25"></line><line x1="328.4440104166667" y1="0" x2="328.4440104166667" y2="378" fill="rgb(0, 0, 0)" stroke="rgb(60, 60, 60)" stroke-width="1px" opacity="0.25"></line><line x1="375.3645833333333" y1="0" x2="375.3645833333333" y2="378" fill="rgb(0, 0, 0)" stroke="rgb(60, 60, 60)" stroke-width="1px" opacity="0.25"></line><line x1="422.28515625" y1="0" x2="422.28515625" y2="378" fill="rgb(0, 0, 0)" stroke="rgb(60, 60, 60)" stroke-width="1px" opacity="0.25"></line><line x1="469.2057291666667" y1="0" x2="469.2057291666667" y2="378" fill="rgb(0, 0, 0)" stroke="rgb(60, 60, 60)" stroke-width="1px" opacity="0.25"></line><line x1="516.1263020833333" y1="0" x2="516.1263020833333" y2="378" fill="rgb(0, 0, 0)" stroke="rgb(60, 60, 60)" stroke-width="1px" opacity="0.25"></line><line x1="563.046875" y1="0" x2="563.046875" y2="378" fill="rgb(0, 0, 0)" stroke="rgb(60, 60, 60)" stroke-width="1px" opacity="0.25"></line></g><g><line x1="0" y1="378" x2="563.046875" y2="378" fill="rgb(0, 0, 0)" stroke="rgb(60, 60, 60)" stroke-width="1px" opacity="0.25"></line><line x1="0" y1="330.75" x2="563.046875" y2="330.75" fill="rgb(0, 0, 0)" stroke="rgb(60, 60, 60)" stroke-width="1px" opacity="0.25"></line><line x1="0" y1="283.5" x2="563.046875" y2="283.5" fill="rgb(0, 0, 0)" stroke="rgb(60, 60, 60)" stroke-width="1px" opacity="0.25"></line><line x1="0" y1="236.25" x2="563.046875" y2="236.25" fill="rgb(0, 0, 0)" stroke="rgb(60, 60, 60)" stroke-width="1px" opacity="0.25"></line><line x1="0" y1="189" x2="563.046875" y2="189" fill="rgb(0, 0, 0)" stroke="rgb(60, 60, 60)" stroke-width="1px" opacity="0.25"></line><line x1="0" y1="141.75" x2="563.046875" y2="141.75" fill="rgb(0, 0, 0)" stroke="rgb(60, 60, 60)" stroke-width="1px" opacity="0.25"></line><line x1="0" y1="94.5" x2="563.046875" y2="94.5" fill="rgb(0, 0, 0)" stroke="rgb(60, 60, 60)" stroke-width="1px" opacity="0.25"></line><line x1="0" y1="47.25" x2="563.046875" y2="47.25" fill="rgb(0, 0, 0)" stroke="rgb(60, 60, 60)" stroke-width="1px" opacity="0.25"></line><line x1="0" y1="0" x2="563.046875" y2="0" fill="rgb(0, 0, 0)" stroke="rgb(60, 60, 60)" stroke-width="1px" opacity="0.25"></line></g></g></g><g><g><line x1="0" y1="8457.749999999993" x2="563.046875" y2="8457.749999999993" fill="rgb(0, 0, 0)" stroke="rgb(153, 153, 153)" stroke-width="1.5px"></line></g></g><g><g><line x1="46.920572916666664" y1="0" x2="46.920572916666664" y2="378" fill="rgb(0, 0, 0)" stroke="rgb(153, 153, 153)" stroke-width="1.5px"></line></g></g><g><g><g><g><g><path stroke="rgb(238, 51, 119)" stroke-width="2px" d="M56.3046875,409.75438499450667L65.68880208333333,276.9328161478042L75.07291666666667,183.4659322500229L84.45703125,176.08661198616028L93.84114583333333,176.08661198616028L103.22526041666666,173.62740182876587L112.609375,161.32909798622134L121.99348958333334,163.78830814361575L131.37760416666666,124.43418645858769L140.76171875,151.4900043010712L150.14583333333334,121.97441303730015L159.52994791666666,124.43418645858769L168.9140625,117.05486619472512L178.29817708333331,112.13588261604318L187.68229166666666,117.05486619472512L197.06640625,124.43418645858769L206.45052083333331,99.83757877349862L215.83463541666669,107.2163357734681L225.21875,99.83757877349862L234.60286458333334,97.37780535221108L243.98697916666669,99.83757877349862L253.37109375,99.83757877349862L262.7552083333333,109.67610919475564L272.1393229166667,102.29735219478616L281.5234375,99.83757877349862L290.90755208333337,99.83757877349862L300.2916666666667,99.83757877349862L309.67578125,99.83757877349862L319.0598958333333,99.83757877349862L328.4440104166667,99.83757877349862L337.828125,99.83757877349862L347.21223958333337,97.37780535221108L356.59635416666663,99.83757877349862L365.98046875,97.37780535221108L375.3645833333333,99.83757877349862L384.7486979166667,97.37780535221108L394.1328125,97.37780535221108L403.5169270833333,97.37780535221108L412.90104166666663,97.37780535221108L422.28515625,97.37780535221108L431.66927083333337,97.37780535221108L441.0533854166667,97.37780535221108L450.4375,97.37780535221108L459.8216145833333,97.37780535221108L469.2057291666667,97.37780535221108L478.58984375,97.37780535221108L487.97395833333337,97.37780535221108L497.35807291666663,97.37780535221108L506.7421875,97.37780535221108" style="fill: none;" fill="none"></path></g><g><path stroke="rgb(255, 112, 67)" stroke-width="2px" d="M46.920572916666664,537.656406998634L56.3046875,370.39970004558546L65.68880208333333,323.66625809669483L75.07291666666667,252.33620846271506L84.45703125,212.98152351379395L93.84114583333333,141.65147387981418L103.22526041666666,136.73249030113223L112.609375,77.70074450969705L121.99348958333334,104.75656235218057L131.37760416666666,75.24097108840951L140.76171875,89.9990483522416L150.14583333333334,75.24097108840951L159.52994791666666,70.32142424583448L168.9140625,75.24097108840951L178.29817708333331,67.86165082454694L187.68229166666666,70.32142424583448L197.06640625,67.86165082454694L206.45052083333331,62.942667245864996L215.83463541666669,62.942667245864996L225.21875,67.86165082454694L234.60286458333334,65.40244066715253L243.98697916666669,65.40244066715253L253.37109375,62.942667245864996L262.7552083333333,62.942667245864996L272.1393229166667,67.86165082454694L281.5234375,65.40244066715253L290.90755208333337,67.86165082454694L300.2916666666667,70.32142424583448L309.67578125,72.78119766712197L319.0598958333333,72.78119766712197L328.4440104166667,72.78119766712197L337.828125,72.78119766712197L347.21223958333337,72.78119766712197L356.59635416666663,72.78119766712197L365.98046875,72.78119766712197L375.3645833333333,72.78119766712197L384.7486979166667,72.78119766712197L394.1328125,72.78119766712197L403.5169270833333,72.78119766712197L412.90104166666663,72.78119766712197L422.28515625,72.78119766712197L431.66927083333337,72.78119766712197L441.0533854166667,72.78119766712197L450.4375,72.78119766712197L459.8216145833333,72.78119766712197L469.2057291666667,72.78119766712197L478.58984375,72.78119766712197L487.97395833333337,72.78119766712197L497.35807291666663,72.78119766712197L506.7421875,72.78119766712197" style="fill: none;" fill="none"></path></g><g><path stroke="rgb(0, 119, 187)" stroke-width="2px" d="M46.920572916666664,586.8496223688122L56.3046875,377.77845704555494L65.68880208333333,294.1501035690307L75.07291666666667,272.01326930522913L84.45703125,193.3044626712799L93.84114583333333,200.6832196712494L103.22526041666666,107.2163357734681L112.609375,117.05486619472512L121.99348958333334,62.942667245864996L131.37760416666666,48.184589982032904L140.76171875,87.53927493095406L150.14583333333334,89.9990483522416L159.52994791666666,77.70074450969705L168.9140625,102.29735219478616L178.29817708333331,65.40244066715253L187.68229166666666,65.40244066715253L197.06640625,62.942667245864996L206.45052083333331,58.02312040328992L215.83463541666669,58.02312040328992L225.21875,58.02312040328992L234.60286458333334,60.48289382457746L243.98697916666669,58.02312040328992L253.37109375,60.48289382457746L262.7552083333333,58.02312040328992L272.1393229166667,58.02312040328992L281.5234375,53.10413682460798L290.90755208333337,53.10413682460798L300.2916666666667,58.02312040328992L309.67578125,60.48289382457746L319.0598958333333,60.48289382457746L328.4440104166667,60.48289382457746L337.828125,60.48289382457746L347.21223958333337,60.48289382457746L356.59635416666663,60.48289382457746L365.98046875,60.48289382457746L375.3645833333333,60.48289382457746L384.7486979166667,58.02312040328992L394.1328125,58.02312040328992L403.5169270833333,58.02312040328992L412.90104166666663,58.02312040328992L422.28515625,58.02312040328992L431.66927083333337,58.02312040328992L441.0533854166667,58.02312040328992L450.4375,58.02312040328992L459.8216145833333,58.02312040328992L469.2057291666667,58.02312040328992L478.58984375,58.02312040328992L487.97395833333337,58.02312040328992L497.35807291666663,58.02312040328992L506.7421875,58.02312040328992" style="fill: none;" fill="none"></path></g><g><path stroke="rgb(0, 153, 136)" stroke-width="2px" d="M56.3046875,495.84194862842537L65.68880208333333,321.2064846754073L75.07291666666667,289.23111999034876L84.45703125,178.54638540744781L93.84114583333333,161.32909798622134L103.22526041666666,117.05486619472512L112.609375,92.45825850963601L121.99348958333334,109.67610919475564L131.37760416666666,124.43418645858769L140.76171875,97.37780535221108L150.14583333333334,102.29735219478616L159.52994791666666,87.53927493095406L168.9140625,99.83757877349862L178.29817708333331,94.91803193092355L187.68229166666666,97.37780535221108L197.06640625,89.9990483522416L206.45052083333331,92.45825850963601L215.83463541666669,87.53927493095406L225.21875,92.45825850963601L234.60286458333334,89.9990483522416L243.98697916666669,92.45825850963601L253.37109375,87.53927493095406L262.7552083333333,89.9990483522416L272.1393229166667,89.9990483522416L281.5234375,87.53927493095406L290.90755208333337,89.9990483522416L300.2916666666667,94.91803193092355L309.67578125,94.91803193092355L319.0598958333333,92.45825850963601L328.4440104166667,92.45825850963601L337.828125,92.45825850963601L347.21223958333337,92.45825850963601L356.59635416666663,92.45825850963601L365.98046875,92.45825850963601L375.3645833333333,92.45825850963601L384.7486979166667,92.45825850963601L394.1328125,92.45825850963601L403.5169270833333,92.45825850963601L412.90104166666663,92.45825850963601L422.28515625,92.45825850963601L431.66927083333337,92.45825850963601L441.0533854166667,92.45825850963601L450.4375,92.45825850963601L459.8216145833333,92.45825850963601L469.2057291666667,92.45825850963601L478.58984375,92.45825850963601L487.97395833333337,92.45825850963601L497.35807291666663,92.45825850963601L506.7421875,92.45825850963601" style="fill: none;" fill="none"></path></g><g><path stroke="rgb(204, 51, 17)" stroke-width="2px" d="M56.3046875,380.2382304668425L65.68880208333333,257.25519204139704L75.07291666666667,215.44129693508148L84.45703125,166.24808156490326L93.84114583333333,163.78830814361575L103.22526041666666,89.9990483522416L112.609375,112.13588261604318L121.99348958333334,60.48289382457746L131.37760416666666,67.86165082454694L140.76171875,82.61972808837899L150.14583333333334,55.563910245895514L159.52994791666666,72.78119766712197L168.9140625,53.10413682460798L178.29817708333331,77.70074450969705L187.68229166666666,77.70074450969705L197.06640625,77.70074450969705L206.45052083333331,75.24097108840951L215.83463541666669,72.78119766712197L225.21875,55.563910245895514L234.60286458333334,72.78119766712197L243.98697916666669,75.24097108840951L253.37109375,65.40244066715253L262.7552083333333,62.942667245864996L272.1393229166667,60.48289382457746L281.5234375,65.40244066715253L290.90755208333337,65.40244066715253L300.2916666666667,70.32142424583448L309.67578125,70.32142424583448L319.0598958333333,70.32142424583448L328.4440104166667,70.32142424583448L337.828125,70.32142424583448L347.21223958333337,70.32142424583448L356.59635416666663,70.32142424583448L365.98046875,70.32142424583448L375.3645833333333,70.32142424583448L384.7486979166667,70.32142424583448L394.1328125,70.32142424583448L403.5169270833333,70.32142424583448L412.90104166666663,70.32142424583448L422.28515625,70.32142424583448L431.66927083333337,70.32142424583448L441.0533854166667,70.32142424583448L450.4375,70.32142424583448L459.8216145833333,70.32142424583448L469.2057291666667,70.32142424583448L478.58984375,70.32142424583448L487.97395833333337,70.32142424583448L497.35807291666663,70.32142424583448L506.7421875,70.32142424583448" style="fill: none;" fill="none"></path></g><g><path stroke="rgb(51, 187, 238)" stroke-width="2px" d="M56.3046875,451.5682801008222L65.68880208333333,350.7226392030715L75.07291666666667,222.82005393505096L84.45703125,203.14299309253693L93.84114583333333,205.60276651382446L103.22526041666666,188.38491582870483L112.609375,136.73249030113223L121.99348958333334,129.35317003726962L131.37760416666666,121.97441303730015L140.76171875,119.51463961601262L150.14583333333334,153.94977772235873L159.52994791666666,114.59565603733071L168.9140625,97.37780535221108L178.29817708333331,119.51463961601262L187.68229166666666,114.59565603733071L197.06640625,119.51463961601262L206.45052083333331,121.97441303730015L215.83463541666669,112.13588261604318L225.21875,124.43418645858769L234.60286458333334,107.2163357734681L243.98697916666669,92.45825850963601L253.37109375,97.37780535221108L262.7552083333333,97.37780535221108L272.1393229166667,107.2163357734681L281.5234375,104.75656235218057L290.90755208333337,109.67610919475564L300.2916666666667,104.75656235218057L309.67578125,104.75656235218057L319.0598958333333,104.75656235218057L328.4440104166667,104.75656235218057L337.828125,99.83757877349862L347.21223958333337,99.83757877349862L356.59635416666663,94.91803193092355L365.98046875,99.83757877349862L375.3645833333333,99.83757877349862L384.7486979166667,99.83757877349862L394.1328125,99.83757877349862L403.5169270833333,99.83757877349862L412.90104166666663,99.83757877349862L422.28515625,99.83757877349862L431.66927083333337,94.91803193092355L441.0533854166667,94.91803193092355L450.4375,94.91803193092355L459.8216145833333,94.91803193092355L469.2057291666667,94.91803193092355L478.58984375,94.91803193092355L487.97395833333337,94.91803193092355L497.35807291666663,94.91803193092355L506.7421875,94.91803193092355" style="fill: none;" fill="none"></path></g></g></g></g></g></g><g transform="translate(61, 378)" clip-path="url(#clip_1)"><clipPath id="clip_1"><rect width="563" height="22"></rect></clipPath><g><g><line x1="0" y1="0" x2="0" y2="5" style="visibility: inherit;" fill="rgb(0, 0, 0)" stroke="rgb(204, 204, 204)" stroke-width="1px"></line><line x1="46.920572916666664" y1="0" x2="46.920572916666664" y2="5" style="visibility: inherit;" fill="rgb(0, 0, 0)" stroke="rgb(204, 204, 204)" stroke-width="1px"></line><line x1="93.84114583333333" y1="0" x2="93.84114583333333" y2="5" style="visibility: inherit;" fill="rgb(0, 0, 0)" stroke="rgb(204, 204, 204)" stroke-width="1px"></line><line x1="140.76171875" y1="0" x2="140.76171875" y2="5" style="visibility: inherit;" fill="rgb(0, 0, 0)" stroke="rgb(204, 204, 204)" stroke-width="1px"></line><line x1="187.68229166666666" y1="0" x2="187.68229166666666" y2="5" style="visibility: inherit;" fill="rgb(0, 0, 0)" stroke="rgb(204, 204, 204)" stroke-width="1px"></line><line x1="234.60286458333334" y1="0" x2="234.60286458333334" y2="5" style="visibility: inherit;" fill="rgb(0, 0, 0)" stroke="rgb(204, 204, 204)" stroke-width="1px"></line><line x1="281.5234375" y1="0" x2="281.5234375" y2="5" style="visibility: inherit;" fill="rgb(0, 0, 0)" stroke="rgb(204, 204, 204)" stroke-width="1px"></line><line x1="328.4440104166667" y1="0" x2="328.4440104166667" y2="5" style="visibility: inherit;" fill="rgb(0, 0, 0)" stroke="rgb(204, 204, 204)" stroke-width="1px"></line><line x1="375.3645833333333" y1="0" x2="375.3645833333333" y2="5" style="visibility: inherit;" fill="rgb(0, 0, 0)" stroke="rgb(204, 204, 204)" stroke-width="1px"></line><line x1="422.28515625" y1="0" x2="422.28515625" y2="5" style="visibility: inherit;" fill="rgb(0, 0, 0)" stroke="rgb(204, 204, 204)" stroke-width="1px"></line><line x1="469.2057291666667" y1="0" x2="469.2057291666667" y2="5" style="visibility: inherit;" fill="rgb(0, 0, 0)" stroke="rgb(204, 204, 204)" stroke-width="1px"></line><line x1="516.1263020833333" y1="0" x2="516.1263020833333" y2="5" style="visibility: inherit;" fill="rgb(0, 0, 0)" stroke="rgb(204, 204, 204)" stroke-width="1px"></line><line x1="563.046875" y1="0" x2="563.046875" y2="5" style="visibility: inherit;" fill="rgb(0, 0, 0)" stroke="rgb(204, 204, 204)" stroke-width="1px"></line></g><g transform="translate(0, 8)"><text x="0" y="0" dx="0em" dy="0.95em" style="text-anchor: middle; visibility: hidden; font-family: Roboto, sans-serif; font-size: 12px; font-weight: 200;" fill="rgb(50, 49, 63)" stroke="none" stroke-width="1px">-5</text><text x="46.920572916666664" y="0" dx="0em" dy="0.95em" style="text-anchor: middle; visibility: inherit; font-family: Roboto, sans-serif; font-size: 12px; font-weight: 200;" fill="rgb(50, 49, 63)" stroke="none" stroke-width="1px">0</text><text x="93.84114583333333" y="0" dx="0em" dy="0.95em" style="text-anchor: middle; visibility: inherit; font-family: Roboto, sans-serif; font-size: 12px; font-weight: 200;" fill="rgb(50, 49, 63)" stroke="none" stroke-width="1px">5</text><text x="140.76171875" y="0" dx="0em" dy="0.95em" style="text-anchor: middle; visibility: inherit; font-family: Roboto, sans-serif; font-size: 12px; font-weight: 200;" fill="rgb(50, 49, 63)" stroke="none" stroke-width="1px">10</text><text x="187.68229166666666" y="0" dx="0em" dy="0.95em" style="text-anchor: middle; visibility: inherit; font-family: Roboto, sans-serif; font-size: 12px; font-weight: 200;" fill="rgb(50, 49, 63)" stroke="none" stroke-width="1px">15</text><text x="234.60286458333334" y="0" dx="0em" dy="0.95em" style="text-anchor: middle; visibility: inherit; font-family: Roboto, sans-serif; font-size: 12px; font-weight: 200;" fill="rgb(50, 49, 63)" stroke="none" stroke-width="1px">20</text><text x="281.5234375" y="0" dx="0em" dy="0.95em" style="text-anchor: middle; visibility: inherit; font-family: Roboto, sans-serif; font-size: 12px; font-weight: 200;" fill="rgb(50, 49, 63)" stroke="none" stroke-width="1px">25</text><text x="328.4440104166667" y="0" dx="0em" dy="0.95em" style="text-anchor: middle; visibility: inherit; font-family: Roboto, sans-serif; font-size: 12px; font-weight: 200;" fill="rgb(50, 49, 63)" stroke="none" stroke-width="1px">30</text><text x="375.3645833333333" y="0" dx="0em" dy="0.95em" style="text-anchor: middle; visibility: inherit; font-family: Roboto, sans-serif; font-size: 12px; font-weight: 200;" fill="rgb(50, 49, 63)" stroke="none" stroke-width="1px">35</text><text x="422.28515625" y="0" dx="0em" dy="0.95em" style="text-anchor: middle; visibility: inherit; font-family: Roboto, sans-serif; font-size: 12px; font-weight: 200;" fill="rgb(50, 49, 63)" stroke="none" stroke-width="1px">40</text><text x="469.2057291666667" y="0" dx="0em" dy="0.95em" style="text-anchor: middle; visibility: inherit; font-family: Roboto, sans-serif; font-size: 12px; font-weight: 200;" fill="rgb(50, 49, 63)" stroke="none" stroke-width="1px">45</text><text x="516.1263020833333" y="0" dx="0em" dy="0.95em" style="text-anchor: middle; visibility: inherit; font-family: Roboto, sans-serif; font-size: 12px; font-weight: 200;" fill="rgb(50, 49, 63)" stroke="none" stroke-width="1px">50</text><text x="563.046875" y="0" dx="0em" dy="0.95em" style="text-anchor: middle; visibility: hidden; font-family: Roboto, sans-serif; font-size: 12px; font-weight: 200;" fill="rgb(50, 49, 63)" stroke="none" stroke-width="1px">55</text></g><line x1="0" y1="0" x2="563.046875" y2="0" fill="rgb(0, 0, 0)" stroke="rgb(204, 204, 204)" stroke-width="1px"></line></g></g></g></g></svg>