<svg viewBox="0 0 768.6000366210938 400" xmlns="http://www.w3.org/2000/svg"><g><g><g><g><g><line x1="61.953125" y1="378" x2="56.953125" y2="378" style="visibility: inherit;" fill="rgb(0, 0, 0)" stroke="rgb(204, 204, 204)" stroke-width="1px"></line><line x1="61.953125" y1="343.6363636363636" x2="56.953125" y2="343.6363636363636" style="visibility: inherit;" fill="rgb(0, 0, 0)" stroke="rgb(204, 204, 204)" stroke-width="1px"></line><line x1="61.953125" y1="309.27272727272725" x2="56.953125" y2="309.27272727272725" style="visibility: inherit;" fill="rgb(0, 0, 0)" stroke="rgb(204, 204, 204)" stroke-width="1px"></line><line x1="61.953125" y1="274.90909090909093" x2="56.953125" y2="274.90909090909093" style="visibility: inherit;" fill="rgb(0, 0, 0)" stroke="rgb(204, 204, 204)" stroke-width="1px"></line><line x1="61.953125" y1="240.54545454545453" x2="56.953125" y2="240.54545454545453" style="visibility: inherit;" fill="rgb(0, 0, 0)" stroke="rgb(204, 204, 204)" stroke-width="1px"></line><line x1="61.953125" y1="206.18181818181816" x2="56.953125" y2="206.18181818181816" style="visibility: inherit;" fill="rgb(0, 0, 0)" stroke="rgb(204, 204, 204)" stroke-width="1px"></line><line x1="61.953125" y1="171.81818181818184" x2="56.953125" y2="171.81818181818184" style="visibility: inherit;" fill="rgb(0, 0, 0)" stroke="rgb(204, 204, 204)" stroke-width="1px"></line><line x1="61.953125" y1="137.45454545454547" x2="56.953125" y2="137.45454545454547" style="visibility: inherit;" fill="rgb(0, 0, 0)" stroke="rgb(204, 204, 204)" stroke-width="1px"></line><line x1="61.953125" y1="103.09090909090908" x2="56.953125" y2="103.09090909090908" style="visibility: inherit;" fill="rgb(0, 0, 0)" stroke="rgb(204, 204, 204)" stroke-width="1px"></line><line x1="61.953125" y1="68.7272727272727" x2="56.953125" y2="68.7272727272727" style="visibility: inherit;" fill="rgb(0, 0, 0)" stroke="rgb(204, 204, 204)" stroke-width="1px"></line><line x1="61.953125" y1="34.363636363636374" x2="56.953125" y2="34.363636363636374" style="visibility: inherit;" fill="rgb(0, 0, 0)" stroke="rgb(204, 204, 204)" stroke-width="1px"></line><line x1="61.953125" y1="0" x2="56.953125" y2="0" style="visibility: inherit;" fill="rgb(0, 0, 0)" stroke="rgb(204, 204, 204)" stroke-width="1px"></line></g><g transform="translate(51.953125, 0)"><text x="0" y="378" dx="0em" dy="0.3em" style="text-anchor: end; visibility: hidden; font-family: Roboto, sans-serif; font-size: 12px; font-weight: 200;" fill="rgb(50, 49, 63)" stroke="none" stroke-width="1px">0.825</text><text x="0" y="343.6363636363636" dx="0em" dy="0.3em" style="text-anchor: end; visibility: inherit; font-family: Roboto, sans-serif; font-size: 12px; font-weight: 200;" fill="rgb(50, 49, 63)" stroke="none" stroke-width="1px">0.83</text><text x="0" y="309.27272727272725" dx="0em" dy="0.3em" style="text-anchor: end; visibility: inherit; font-family: Roboto, sans-serif; font-size: 12px; font-weight: 200;" fill="rgb(50, 49, 63)" stroke="none" stroke-width="1px">0.835</text><text x="0" y="274.90909090909093" dx="0em" dy="0.3em" style="text-anchor: end; visibility: inherit; font-family: Roboto, sans-serif; font-size: 12px; font-weight: 200;" fill="rgb(50, 49, 63)" stroke="none" stroke-width="1px">0.84</text><text x="0" y="240.54545454545453" dx="0em" dy="0.3em" style="text-anchor: end; visibility: inherit; font-family: Roboto, sans-serif; font-size: 12px; font-weight: 200;" fill="rgb(50, 49, 63)" stroke="none" stroke-width="1px">0.845</text><text x="0" y="206.18181818181816" dx="0em" dy="0.3em" style="text-anchor: end; visibility: inherit; font-family: Roboto, sans-serif; font-size: 12px; font-weight: 200;" fill="rgb(50, 49, 63)" stroke="none" stroke-width="1px">0.85</text><text x="0" y="171.81818181818184" dx="0em" dy="0.3em" style="text-anchor: end; visibility: inherit; font-family: Roboto, sans-serif; font-size: 12px; font-weight: 200;" fill="rgb(50, 49, 63)" stroke="none" stroke-width="1px">0.855</text><text x="0" y="137.45454545454547" dx="0em" dy="0.3em" style="text-anchor: end; visibility: inherit; font-family: Roboto, sans-serif; font-size: 12px; font-weight: 200;" fill="rgb(50, 49, 63)" stroke="none" stroke-width="1px">0.86</text><text x="0" y="103.09090909090908" dx="0em" dy="0.3em" style="text-anchor: end; visibility: inherit; font-family: Roboto, sans-serif; font-size: 12px; font-weight: 200;" fill="rgb(50, 49, 63)" stroke="none" stroke-width="1px">0.865</text><text x="0" y="68.7272727272727" dx="0em" dy="0.3em" style="text-anchor: end; visibility: inherit; font-family: Roboto, sans-serif; font-size: 12px; font-weight: 200;" fill="rgb(50, 49, 63)" stroke="none" stroke-width="1px">0.87</text><text x="0" y="34.363636363636374" dx="0em" dy="0.3em" style="text-anchor: end; visibility: inherit; font-family: Roboto, sans-serif; font-size: 12px; font-weight: 200;" fill="rgb(50, 49, 63)" stroke="none" stroke-width="1px">0.875</text><text x="0" y="0" dx="0em" dy="0.3em" style="text-anchor: end; visibility: hidden; font-family: Roboto, sans-serif; font-size: 12px; font-weight: 200;" fill="rgb(50, 49, 63)" stroke="none" stroke-width="1px">0.88</text></g><line x1="61.953125" y1="0" x2="61.953125" y2="378" fill="rgb(0, 0, 0)" stroke="rgb(204, 204, 204)" stroke-width="1px"></line></g></g><g transform="translate(61, 0)" clip-path="url(#clip_0)"><clipPath id="clip_0"><rect width="706" height="378"></rect></clipPath><g><g><g><line x1="0" y1="0" x2="0" y2="378" fill="rgb(0, 0, 0)" stroke="rgb(60, 60, 60)" stroke-width="1px" opacity="0.25"></line><line x1="58.88723958333333" y1="0" x2="58.88723958333333" y2="378" fill="rgb(0, 0, 0)" stroke="rgb(60, 60, 60)" stroke-width="1px" opacity="0.25"></line><line x1="117.77447916666667" y1="0" x2="117.77447916666667" y2="378" fill="rgb(0, 0, 0)" stroke="rgb(60, 60, 60)" stroke-width="1px" opacity="0.25"></line><line x1="176.66171875" y1="0" x2="176.66171875" y2="378" fill="rgb(0, 0, 0)" stroke="rgb(60, 60, 60)" stroke-width="1px" opacity="0.25"></line><line x1="235.54895833333333" y1="0" x2="235.54895833333333" y2="378" fill="rgb(0, 0, 0)" stroke="rgb(60, 60, 60)" stroke-width="1px" opacity="0.25"></line><line x1="294.4361979166667" y1="0" x2="294.4361979166667" y2="378" fill="rgb(0, 0, 0)" stroke="rgb(60, 60, 60)" stroke-width="1px" opacity="0.25"></line><line x1="353.3234375" y1="0" x2="353.3234375" y2="378" fill="rgb(0, 0, 0)" stroke="rgb(60, 60, 60)" stroke-width="1px" opacity="0.25"></line><line x1="412.2106770833334" y1="0" x2="412.2106770833334" y2="378" fill="rgb(0, 0, 0)" stroke="rgb(60, 60, 60)" stroke-width="1px" opacity="0.25"></line><line x1="471.09791666666666" y1="0" x2="471.09791666666666" y2="378" fill="rgb(0, 0, 0)" stroke="rgb(60, 60, 60)" stroke-width="1px" opacity="0.25"></line><line x1="529.98515625" y1="0" x2="529.98515625" y2="378" fill="rgb(0, 0, 0)" stroke="rgb(60, 60, 60)" stroke-width="1px" opacity="0.25"></line><line x1="588.8723958333334" y1="0" x2="588.8723958333334" y2="378" fill="rgb(0, 0, 0)" stroke="rgb(60, 60, 60)" stroke-width="1px" opacity="0.25"></line><line x1="647.7596354166667" y1="0" x2="647.7596354166667" y2="378" fill="rgb(0, 0, 0)" stroke="rgb(60, 60, 60)" stroke-width="1px" opacity="0.25"></line><line x1="706.646875" y1="0" x2="706.646875" y2="378" fill="rgb(0, 0, 0)" stroke="rgb(60, 60, 60)" stroke-width="1px" opacity="0.25"></line></g><g><line x1="0" y1="378" x2="706.646875" y2="378" fill="rgb(0, 0, 0)" stroke="rgb(60, 60, 60)" stroke-width="1px" opacity="0.25"></line><line x1="0" y1="343.6363636363636" x2="706.646875" y2="343.6363636363636" fill="rgb(0, 0, 0)" stroke="rgb(60, 60, 60)" stroke-width="1px" opacity="0.25"></line><line x1="0" y1="309.27272727272725" x2="706.646875" y2="309.27272727272725" fill="rgb(0, 0, 0)" stroke="rgb(60, 60, 60)" stroke-width="1px" opacity="0.25"></line><line x1="0" y1="274.90909090909093" x2="706.646875" y2="274.90909090909093" fill="rgb(0, 0, 0)" stroke="rgb(60, 60, 60)" stroke-width="1px" opacity="0.25"></line><line x1="0" y1="240.54545454545453" x2="706.646875" y2="240.54545454545453" fill="rgb(0, 0, 0)" stroke="rgb(60, 60, 60)" stroke-width="1px" opacity="0.25"></line><line x1="0" y1="206.18181818181816" x2="706.646875" y2="206.18181818181816" fill="rgb(0, 0, 0)" stroke="rgb(60, 60, 60)" stroke-width="1px" opacity="0.25"></line><line x1="0" y1="171.81818181818184" x2="706.646875" y2="171.81818181818184" fill="rgb(0, 0, 0)" stroke="rgb(60, 60, 60)" stroke-width="1px" opacity="0.25"></line><line x1="0" y1="137.45454545454547" x2="706.646875" y2="137.45454545454547" fill="rgb(0, 0, 0)" stroke="rgb(60, 60, 60)" stroke-width="1px" opacity="0.25"></line><line x1="0" y1="103.09090909090908" x2="706.646875" y2="103.09090909090908" fill="rgb(0, 0, 0)" stroke="rgb(60, 60, 60)" stroke-width="1px" opacity="0.25"></line><line x1="0" y1="68.7272727272727" x2="706.646875" y2="68.7272727272727" fill="rgb(0, 0, 0)" stroke="rgb(60, 60, 60)" stroke-width="1px" opacity="0.25"></line><line x1="0" y1="34.363636363636374" x2="706.646875" y2="34.363636363636374" fill="rgb(0, 0, 0)" stroke="rgb(60, 60, 60)" stroke-width="1px" opacity="0.25"></line><line x1="0" y1="0" x2="706.646875" y2="0" fill="rgb(0, 0, 0)" stroke="rgb(60, 60, 60)" stroke-width="1px" opacity="0.25"></line></g></g></g><g><g><line x1="0" y1="6047.9999999999945" x2="706.646875" y2="6047.9999999999945" fill="rgb(0, 0, 0)" stroke="rgb(153, 153, 153)" stroke-width="1.5px"></line></g></g><g><g><line x1="58.88723958333333" y1="0" x2="58.88723958333333" y2="378" fill="rgb(0, 0, 0)" stroke="rgb(153, 153, 153)" stroke-width="1.5px"></line></g></g><g><g><g><g><g><path stroke="rgb(0, 153, 136)" stroke-width="2px" d="M70.6646875,477.5490893450646L82.44213541666667,361.2742166519162L94.21958333333333,363.063142776489L105.99703125,305.820374315435L117.77447916666667,246.78867972980828L129.55192708333334,280.7766375108197L141.329375,193.12335387143204L153.1068229166667,218.1670906760474L164.88427083333335,191.3344277468593L176.66171875,205.6450174505059L188.43916666666667,198.48972259868265L200.21661458333332,180.60128064589054L211.9940625,178.8123545213178L223.77151041666667,175.23491191864002L235.54895833333333,162.71283869309846L247.32640625,168.07961706681672L259.1038541666667,162.71283869309846L270.88130208333337,162.71283869309846L282.65875,150.19117511402467L294.4361979166667,155.55754384127522L306.2136458333334,155.55754384127522L317.99109375,153.76861771670247L329.7685416666667,157.34646996584797L341.5459895833333,162.71283869309846L353.3234375,160.92432221499348L365.1008854166667,160.92432221499348L376.87833333333333,162.71283869309846L388.65578125,157.34646996584797L400.43322916666665,157.34646996584797L412.2106770833334,155.55754384127522L423.988125,155.55754384127522L435.7655729166667,157.34646996584797L447.54302083333334,155.55754384127522L459.32046875000003,157.34646996584797L471.09791666666666,157.34646996584797L482.87536458333335,157.34646996584797L494.6528125,157.34646996584797L506.43026041666667,157.34646996584797L518.2077083333334,157.34646996584797L529.98515625,160.92432221499348L541.7626041666667,160.92432221499348L553.5400520833333,159.13539609042073L565.3175,159.13539609042073L577.0949479166667,159.13539609042073L588.8723958333334,159.13539609042073L600.6498437500001,159.13539609042073L612.4272916666667,159.13539609042073L624.2047395833333,159.13539609042073L635.9821875,159.13539609042073" style="fill: none;" fill="none"></path></g><g><path stroke="rgb(51, 187, 238)" stroke-width="2px" d="M70.6646875,491.8596790487112L82.44213541666667,302.2425220662895L94.21958333333333,241.42190135609002L105.99703125,207.43394357507864L117.77447916666667,202.0675748478281L129.55192708333334,207.43394357507864L141.329375,205.6450174505059L153.1068229166667,177.02383804321278L164.88427083333335,169.86854319138948L176.66171875,151.98010123859743L188.43916666666667,169.86854319138948L200.21661458333332,143.03588026220137L211.9940625,146.61332286487917L223.77151041666667,143.03588026220137L235.54895833333333,137.6691018884831L247.32640625,135.88017576391036L259.1038541666667,119.78065993569108L270.88130208333337,130.51380703665984L282.65875,123.35851218483658L294.4361979166667,121.56958606026383L306.2136458333334,128.7248809120871L317.99109375,125.14743830940934L329.7685416666667,126.93636443398209L341.5459895833333,119.78065993569108L353.3234375,125.14743830940934L365.1008854166667,125.14743830940934L376.87833333333333,125.14743830940934L388.65578125,121.56958606026383L400.43322916666665,123.35851218483658L412.2106770833334,121.56958606026383L423.988125,121.56958606026383L435.7655729166667,121.56958606026383L447.54302083333334,125.14743830940934L459.32046875000003,125.14743830940934L471.09791666666666,128.7248809120871L482.87536458333335,128.7248809120871L494.6528125,128.7248809120871L506.43026041666667,128.7248809120871L518.2077083333334,128.7248809120871L529.98515625,128.7248809120871L541.7626041666667,128.7248809120871L553.5400520833333,128.7248809120871L565.3175,128.7248809120871L577.0949479166667,128.7248809120871L588.8723958333334,128.7248809120871L600.6498437500001,128.7248809120871L612.4272916666667,128.7248809120871L624.2047395833333,128.7248809120871L635.9821875,128.7248809120871" style="fill: none;" fill="none"></path></g><g><path stroke="rgb(255, 112, 67)" stroke-width="2px" d="M58.88723958333333,543.7360787825146L70.6646875,352.32999567552014L82.44213541666667,273.62093301252867L94.21958333333333,200.27864872325534L105.99703125,162.71283869309846L117.77447916666667,164.50176481767122L129.55192708333334,148.40224898945192L141.329375,105.47007023204449L153.1068229166667,60.74896535006436L164.88427083333335,100.10370150479396L176.66171875,87.58162827925244L188.43916666666667,100.10370150479396L200.21661458333332,82.21525955200191L211.9940625,87.58162827925244L223.77151041666667,67.90426020188761L235.54895833333333,66.11574372378261L247.32640625,60.74896535006436L259.1038541666667,66.11574372378261L270.88130208333337,51.80474437366831L282.65875,57.171522747386575L294.4361979166667,57.171522747386575L306.2136458333334,66.11574372378261L317.99109375,58.960039225491606L329.7685416666667,58.960039225491606L341.5459895833333,57.171522747386575L353.3234375,51.80474437366831L365.1008854166667,58.960039225491606L376.87833333333333,57.171522747386575L388.65578125,55.38259662281382L400.43322916666665,55.38259662281382L412.2106770833334,55.38259662281382L423.988125,55.38259662281382L435.7655729166667,55.38259662281382L447.54302083333334,55.38259662281382L459.32046875000003,51.80474437366831L471.09791666666666,51.80474437366831L482.87536458333335,51.80474437366831L494.6528125,51.80474437366831L506.43026041666667,51.80474437366831L518.2077083333334,51.80474437366831L529.98515625,51.80474437366831L541.7626041666667,51.80474437366831L553.5400520833333,51.80474437366831L565.3175,51.80474437366831L577.0949479166667,51.80474437366831L588.8723958333334,51.80474437366831L600.6498437500001,51.80474437366831L612.4272916666667,51.80474437366831L624.2047395833333,51.80474437366831L635.9821875,51.80474437366831" style="fill: none;" fill="none"></path></g><g><path stroke="rgb(0, 119, 187)" stroke-width="2px" d="M70.6646875,482.9154580723152L82.44213541666667,280.7766375108197L94.21958333333333,295.0872272144662L105.99703125,212.8007219487969L117.77447916666667,193.12335387143204L129.55192708333334,175.23491191864002L141.329375,150.19117511402467L153.1068229166667,171.65705966949452L164.88427083333335,143.03588026220137L176.66171875,144.8243967403064L188.43916666666667,151.98010123859743L200.21661458333332,150.19117511402467L211.9940625,150.19117511402467L223.77151041666667,125.14743830940934L235.54895833333333,128.7248809120871L247.32640625,123.35851218483658L259.1038541666667,125.14743830940934L270.88130208333337,125.14743830940934L282.65875,125.14743830940934L294.4361979166667,121.56958606026383L306.2136458333334,119.78065993569108L317.99109375,123.35851218483658L329.7685416666667,117.99214345758605L341.5459895833333,119.78065993569108L353.3234375,119.78065993569108L365.1008854166667,116.2032173330133L376.87833333333333,116.2032173330133L388.65578125,116.2032173330133L400.43322916666665,116.2032173330133L412.2106770833334,116.2032173330133L423.988125,116.2032173330133L435.7655729166667,116.2032173330133L447.54302083333334,116.2032173330133L459.32046875000003,116.2032173330133L471.09791666666666,116.2032173330133L482.87536458333335,116.2032173330133L494.6528125,116.2032173330133L506.43026041666667,116.2032173330133L518.2077083333334,116.2032173330133L529.98515625,116.2032173330133L541.7626041666667,116.2032173330133L553.5400520833333,116.2032173330133L565.3175,116.2032173330133L577.0949479166667,116.2032173330133L588.8723958333334,116.2032173330133L600.6498437500001,116.2032173330133L612.4272916666667,116.2032173330133L624.2047395833333,116.2032173330133L635.9821875,116.2032173330133" style="fill: none;" fill="none"></path></g></g></g></g></g></g><g transform="translate(61, 378)" clip-path="url(#clip_1)"><clipPath id="clip_1"><rect width="706" height="22"></rect></clipPath><g><g><line x1="0" y1="0" x2="0" y2="5" style="visibility: inherit;" fill="rgb(0, 0, 0)" stroke="rgb(204, 204, 204)" stroke-width="1px"></line><line x1="58.88723958333333" y1="0" x2="58.88723958333333" y2="5" style="visibility: inherit;" fill="rgb(0, 0, 0)" stroke="rgb(204, 204, 204)" stroke-width="1px"></line><line x1="117.77447916666667" y1="0" x2="117.77447916666667" y2="5" style="visibility: inherit;" fill="rgb(0, 0, 0)" stroke="rgb(204, 204, 204)" stroke-width="1px"></line><line x1="176.66171875" y1="0" x2="176.66171875" y2="5" style="visibility: inherit;" fill="rgb(0, 0, 0)" stroke="rgb(204, 204, 204)" stroke-width="1px"></line><line x1="235.54895833333333" y1="0" x2="235.54895833333333" y2="5" style="visibility: inherit;" fill="rgb(0, 0, 0)" stroke="rgb(204, 204, 204)" stroke-width="1px"></line><line x1="294.4361979166667" y1="0" x2="294.4361979166667" y2="5" style="visibility: inherit;" fill="rgb(0, 0, 0)" stroke="rgb(204, 204, 204)" stroke-width="1px"></line><line x1="353.3234375" y1="0" x2="353.3234375" y2="5" style="visibility: inherit;" fill="rgb(0, 0, 0)" stroke="rgb(204, 204, 204)" stroke-width="1px"></line><line x1="412.2106770833334" y1="0" x2="412.2106770833334" y2="5" style="visibility: inherit;" fill="rgb(0, 0, 0)" stroke="rgb(204, 204, 204)" stroke-width="1px"></line><line x1="471.09791666666666" y1="0" x2="471.09791666666666" y2="5" style="visibility: inherit;" fill="rgb(0, 0, 0)" stroke="rgb(204, 204, 204)" stroke-width="1px"></line><line x1="529.98515625" y1="0" x2="529.98515625" y2="5" style="visibility: inherit;" fill="rgb(0, 0, 0)" stroke="rgb(204, 204, 204)" stroke-width="1px"></line><line x1="588.8723958333334" y1="0" x2="588.8723958333334" y2="5" style="visibility: inherit;" fill="rgb(0, 0, 0)" stroke="rgb(204, 204, 204)" stroke-width="1px"></line><line x1="647.7596354166667" y1="0" x2="647.7596354166667" y2="5" style="visibility: inherit;" fill="rgb(0, 0, 0)" stroke="rgb(204, 204, 204)" stroke-width="1px"></line><line x1="706.646875" y1="0" x2="706.646875" y2="5" style="visibility: inherit;" fill="rgb(0, 0, 0)" stroke="rgb(204, 204, 204)" stroke-width="1px"></line></g><g transform="translate(0, 8)"><text x="0" y="0" dx="0em" dy="0.95em" style="text-anchor: middle; visibility: hidden; font-family: Roboto, sans-serif; font-size: 12px; font-weight: 200;" fill="rgb(50, 49, 63)" stroke="none" stroke-width="1px">-5</text><text x="58.88723958333333" y="0" dx="0em" dy="0.95em" style="text-anchor: middle; visibility: inherit; font-family: Roboto, sans-serif; font-size: 12px; font-weight: 200;" fill="rgb(50, 49, 63)" stroke="none" stroke-width="1px">0</text><text x="117.77447916666667" y="0" dx="0em" dy="0.95em" style="text-anchor: middle; visibility: inherit; font-family: Roboto, sans-serif; font-size: 12px; font-weight: 200;" fill="rgb(50, 49, 63)" stroke="none" stroke-width="1px">5</text><text x="176.66171875" y="0" dx="0em" dy="0.95em" style="text-anchor: middle; visibility: inherit; font-family: Roboto, sans-serif; font-size: 12px; font-weight: 200;" fill="rgb(50, 49, 63)" stroke="none" stroke-width="1px">10</text><text x="235.54895833333333" y="0" dx="0em" dy="0.95em" style="text-anchor: middle; visibility: inherit; font-family: Roboto, sans-serif; font-size: 12px; font-weight: 200;" fill="rgb(50, 49, 63)" stroke="none" stroke-width="1px">15</text><text x="294.4361979166667" y="0" dx="0em" dy="0.95em" style="text-anchor: middle; visibility: inherit; font-family: Roboto, sans-serif; font-size: 12px; font-weight: 200;" fill="rgb(50, 49, 63)" stroke="none" stroke-width="1px">20</text><text x="353.3234375" y="0" dx="0em" dy="0.95em" style="text-anchor: middle; visibility: inherit; font-family: Roboto, sans-serif; font-size: 12px; font-weight: 200;" fill="rgb(50, 49, 63)" stroke="none" stroke-width="1px">25</text><text x="412.2106770833334" y="0" dx="0em" dy="0.95em" style="text-anchor: middle; visibility: inherit; font-family: Roboto, sans-serif; font-size: 12px; font-weight: 200;" fill="rgb(50, 49, 63)" stroke="none" stroke-width="1px">30</text><text x="471.09791666666666" y="0" dx="0em" dy="0.95em" style="text-anchor: middle; visibility: inherit; font-family: Roboto, sans-serif; font-size: 12px; font-weight: 200;" fill="rgb(50, 49, 63)" stroke="none" stroke-width="1px">35</text><text x="529.98515625" y="0" dx="0em" dy="0.95em" style="text-anchor: middle; visibility: inherit; font-family: Roboto, sans-serif; font-size: 12px; font-weight: 200;" fill="rgb(50, 49, 63)" stroke="none" stroke-width="1px">40</text><text x="588.8723958333334" y="0" dx="0em" dy="0.95em" style="text-anchor: middle; visibility: inherit; font-family: Roboto, sans-serif; font-size: 12px; font-weight: 200;" fill="rgb(50, 49, 63)" stroke="none" stroke-width="1px">45</text><text x="647.7596354166667" y="0" dx="0em" dy="0.95em" style="text-anchor: middle; visibility: inherit; font-family: Roboto, sans-serif; font-size: 12px; font-weight: 200;" fill="rgb(50, 49, 63)" stroke="none" stroke-width="1px">50</text><text x="706.646875" y="0" dx="0em" dy="0.95em" style="text-anchor: middle; visibility: hidden; font-family: Roboto, sans-serif; font-size: 12px; font-weight: 200;" fill="rgb(50, 49, 63)" stroke="none" stroke-width="1px">55</text></g><line x1="0" y1="0" x2="706.646875" y2="0" fill="rgb(0, 0, 0)" stroke="rgb(204, 204, 204)" stroke-width="1px"></line></g></g></g></g></svg>